{"glyphs":{"0":{"ha":472,"x_min":-5,"x_max":470,"o":"m 309 747 q 375 688 345 719 q 425 613 405 656 q 458 510 446 569 q 470 368 470 451 q 470 335 470 354 q 469 302 470 316 q 384 -65 448 63 q 241 -191 319 -193 q 127 -155 174 -189 q 50 -64 80 -122 q 8 71 21 -7 q -5 240 -5 149 q 0 329 -5 285 q 19 425 5 373 q 127 681 61 594 q 285 769 193 769 q 301 763 302 769 q 309 748 300 757 l 309 747 m 396 627 q 378 653 389 637 q 353 683 366 668 q 328 707 340 698 q 311 717 316 717 q 266 673 295 717 q 207 551 236 628 q 155 367 177 474 q 132 135 132 260 q 142 -7 132 50 q 168 -100 153 -64 q 203 -151 184 -135 q 240 -167 222 -167 q 313 -121 276 -167 q 378 -1 349 -75 q 424 166 406 73 q 441 352 441 259 q 432 511 441 441 q 396 627 424 582 z "},"1":{"ha":363,"x_min":-2,"x_max":347,"o":"m 177 -104 q 161 43 167 -42 q 156 219 156 127 q 163 426 156 325 q 184 595 170 528 q 188 620 186 604 q 193 650 191 635 q 196 678 194 665 q 198 694 198 691 q 198 690 198 698 q 196 682 198 682 q 166 659 193 682 q 108 607 139 635 q 49 555 76 578 q 19 531 23 531 q 4 537 10 531 q -2 545 -2 543 q 37 588 -2 550 q 148 696 76 625 q 201 742 179 727 q 238 763 222 757 q 263 768 253 769 q 281 767 273 767 q 299 765 288 767 q 321 754 311 762 q 339 733 332 747 q 347 698 347 719 q 336 486 347 663 q 313 5 325 309 l 309 -153 q 290 -187 309 -179 q 247 -186 271 -194 q 203 -156 224 -177 q 177 -104 182 -135 z "},"2":{"ha":582,"x_min":-2,"x_max":580,"o":"m 365 293 q 396 380 382 332 q 420 474 410 429 q 436 555 431 519 q 441 606 441 590 q 420 701 441 668 q 344 733 399 733 q 276 717 314 733 q 201 677 238 701 q 131 623 163 653 q 83 566 99 594 q 69 547 78 547 q 61 556 61 547 q 89 620 61 583 q 159 688 118 656 q 247 743 200 720 q 330 766 293 766 q 431 742 389 766 q 501 678 474 719 q 540 583 528 637 q 552 470 552 530 q 403 54 552 276 q 368 5 389 33 q 328 -47 347 -23 q 296 -89 309 -71 q 285 -106 283 -106 q 398 -160 349 -153 q 482 -152 448 -167 q 535 -111 516 -137 q 556 -66 554 -85 q 569 -59 557 -59 q 580 -68 580 -59 q 573 -112 580 -90 q 548 -151 566 -134 q 499 -180 530 -168 q 424 -191 469 -191 q 377 -183 405 -191 q 323 -166 349 -175 q 276 -148 297 -156 q 252 -135 255 -139 q 220 -153 247 -135 q 102 -191 156 -193 q 23 -169 49 -187 q -2 -127 -2 -151 q 37 -59 -2 -71 q 144 -62 76 -47 l 168 -35 q 274 115 219 28 q 365 293 330 203 m 45 -148 q 63 -140 50 -148 q 89 -122 76 -132 q 110 -102 101 -111 q 120 -87 120 -92 q 109 -82 120 -83 q 87 -80 97 -80 q 43 -89 57 -80 q 24 -113 30 -99 q 30 -139 19 -130 q 45 -148 40 -148 z "},"3":{"ha":563,"x_min":2,"x_max":563,"o":"m 151 -160 q 266 -136 214 -163 q 355 -65 318 -109 q 411 36 392 -21 q 428 150 431 94 q 398 259 425 207 q 314 347 372 311 l 262 321 q 127 281 181 281 q 78 306 78 281 q 119 358 78 330 q 233 394 160 385 l 271 398 q 359 482 330 425 q 386 595 389 538 q 345 694 384 651 q 229 736 307 736 q 148 724 184 736 q 64 677 113 712 l 52 686 q 74 718 54 703 q 124 743 94 733 q 189 759 155 753 q 255 764 224 764 q 352 748 307 762 q 430 708 396 734 q 483 645 464 682 q 502 561 502 608 q 490 502 502 528 q 461 453 479 476 q 419 411 443 431 q 372 373 396 392 q 438 344 405 363 q 499 295 472 325 q 543 226 526 266 q 561 135 561 186 q 532 -11 563 52 q 451 -116 502 -75 q 333 -177 401 -158 q 191 -191 266 -196 q 126 -178 160 -189 q 65 -148 92 -167 q 20 -102 38 -128 q 2 -43 2 -76 q 5 -30 2 -30 q 12 -42 9 -30 q 33 -87 16 -66 q 72 -124 50 -108 q 115 -150 94 -141 q 151 -160 137 -160 m 245 366 q 171 352 203 363 q 121 328 139 340 q 99 307 102 316 q 108 299 95 299 q 124 298 113 299 q 153 301 135 297 q 193 319 170 306 q 245 361 215 332 l 245 366 z "},"4":{"ha":618,"x_min":-7,"x_max":608,"o":"m 234 571 q 223 384 234 453 q 186 266 212 314 q 170 233 170 234 q 172 231 170 231 q 188 234 174 231 q 262 238 201 238 q 306 238 281 238 q 359 236 330 238 l 359 281 q 366 529 361 434 q 380 676 372 623 q 404 747 389 729 q 441 766 418 766 q 458 764 450 766 q 477 759 467 762 q 516 742 505 750 q 528 717 526 734 q 526 668 530 700 q 523 582 523 635 q 523 510 523 549 q 521 420 523 470 l 517 248 q 534 247 519 248 q 565 245 549 247 q 595 241 582 243 q 608 236 608 240 q 601 229 608 233 q 582 226 594 226 q 554 227 566 226 q 533 221 542 229 q 520 189 524 214 q 516 111 516 165 q 517 -36 516 23 q 519 -101 519 -95 q 494 -174 519 -156 q 429 -193 469 -193 q 394 -192 406 -193 q 376 -179 382 -191 q 368 -138 370 -167 q 363 -56 366 -109 q 359 145 359 80 q 351 210 359 210 q 323 213 347 210 q 266 215 299 215 q 182 204 215 215 q 124 179 149 193 q 80 154 99 165 q 40 142 61 142 q 7 148 21 142 q -7 161 -7 153 q -3 168 -7 165 q 7 177 2 170 q 41 222 28 186 q 62 304 54 259 q 73 392 69 349 q 76 458 76 436 q 80 600 78 545 q 84 687 82 655 q 89 733 87 719 q 95 755 92 747 q 115 759 97 760 q 153 753 132 757 q 190 745 174 750 q 210 734 207 740 q 220 714 215 724 q 227 687 224 703 q 231 642 229 670 q 234 571 233 615 z "},"5":{"ha":533,"x_min":-2,"x_max":535,"o":"m 163 729 q 155 684 161 729 q 142 580 149 639 q 130 464 135 521 q 125 382 125 406 q 128 373 125 373 q 144 378 130 373 q 178 387 158 382 q 219 397 198 392 q 259 401 240 401 q 366 380 316 401 q 454 326 417 359 q 513 248 491 292 q 535 158 535 205 q 501 43 535 104 q 413 -72 467 -19 q 293 -161 359 -125 q 161 -196 226 -196 q 76 -158 109 -196 q 42 -52 42 -120 q 46 4 42 -24 q 58 57 50 33 q 76 97 66 82 q 95 113 85 113 q 101 109 101 113 q 84 72 101 111 q 68 -35 68 33 q 94 -126 68 -85 q 158 -167 120 -167 q 262 -129 215 -167 q 341 -36 309 -92 q 386 88 373 21 q 389 213 399 155 q 341 312 378 271 q 236 358 304 352 q 189 347 215 359 q 140 319 163 335 q 100 291 116 304 q 82 278 83 278 q 17 350 36 278 q -2 540 -2 422 q 3 630 -2 590 q 17 713 10 686 q 43 750 24 740 q 96 760 61 760 q 198 760 132 760 q 251 760 222 760 q 309 759 280 759 l 425 757 q 439 758 432 757 q 453 759 446 759 q 482 751 472 759 q 491 734 491 743 q 473 723 491 720 q 418 726 455 726 q 346 727 387 726 q 268 727 306 727 q 201 728 231 727 q 163 729 172 729 z "},"6":{"ha":483,"x_min":-3,"x_max":497,"o":"m -2 196 q 33 437 -2 330 q 122 618 68 543 q 246 733 177 693 q 382 773 314 773 q 477 755 443 773 q 492 743 488 750 q 495 732 497 736 q 485 727 493 727 q 462 738 477 727 q 373 736 432 752 q 294 676 333 726 q 223 557 255 627 q 170 411 191 488 q 148 269 149 333 l 148 260 l 148 234 l 168 260 q 245 326 208 313 q 302 339 281 339 q 357 323 330 339 q 405 279 384 307 q 438 208 425 250 q 450 115 451 167 q 424 -10 446 47 q 371 -105 403 -66 q 301 -166 339 -144 q 229 -187 264 -187 q 111 -153 156 -187 q 40 -62 66 -118 q 5 62 14 -7 q -2 196 -3 130 m 156 189 q 147 172 149 175 q 143 166 144 168 q 142 155 142 163 q 142 123 142 146 q 147 24 141 75 q 170 -66 153 -26 q 214 -130 189 -111 q 265 -145 238 -149 q 318 -117 292 -141 q 366 -52 344 -94 q 395 36 384 -21 q 404 151 406 94 q 381 253 401 208 q 314 307 361 299 q 235 280 285 313 q 156 189 186 247 z "},"7":{"ha":425,"x_min":10,"x_max":382,"o":"m 50 747 q 89 745 71 745 q 134 746 108 745 q 201 747 160 747 q 311 748 243 748 q 350 760 337 766 q 367 736 363 755 q 368 688 372 717 q 359 632 365 660 q 352 593 358 623 q 342 522 347 563 q 332 435 337 481 q 324 349 328 389 q 317 280 319 309 q 316 247 314 252 q 349 241 318 241 q 377 236 372 238 q 380 226 382 234 q 347 219 382 219 l 313 219 l 307 90 q 306 -1 307 45 q 303 -85 306 -47 q 297 -149 300 -123 q 288 -177 293 -175 q 257 -189 276 -184 q 218 -193 238 -194 q 181 -180 198 -191 q 160 -142 165 -168 q 155 -82 156 -118 q 155 -3 155 -45 q 157 80 155 38 q 163 158 160 122 q 167 199 167 193 q 163 203 167 205 q 147 202 160 203 q 117 201 134 201 q 84 199 101 200 q 57 198 68 198 l 16 198 l 12 205 q 11 217 10 214 q 24 226 12 220 q 49 232 33 229 q 85 238 66 234 l 172 243 l 188 340 q 233 530 208 439 q 302 719 257 620 q 253 719 285 719 q 183 720 220 719 q 109 721 146 720 q 49 724 73 722 l 50 747 z "},"8":{"ha":524,"x_min":2,"x_max":535,"o":"m 92 550 q 90 575 90 557 q 104 647 90 611 q 143 710 118 682 q 204 755 168 738 q 283 773 240 773 q 411 728 373 773 q 450 611 450 684 q 438 549 450 582 q 410 486 427 516 q 372 432 392 457 q 333 396 351 408 q 462 275 417 340 q 521 144 507 210 q 518 18 535 78 q 461 -89 502 -42 q 359 -163 420 -135 q 220 -191 297 -191 q 122 -172 163 -191 q 55 -122 82 -153 q 15 -52 28 -90 q 2 24 2 -14 q 52 196 2 104 q 186 385 102 288 l 161 413 q 114 482 128 453 q 92 550 99 510 m 226 576 q 231 524 224 543 q 252 481 238 505 q 266 462 257 472 q 283 441 274 451 q 299 424 292 431 q 311 417 307 417 q 336 436 319 417 q 369 484 352 455 q 398 544 385 512 q 410 604 410 576 q 403 664 410 641 q 385 701 396 688 q 364 720 375 715 q 345 726 352 726 q 306 715 326 726 q 269 687 286 705 q 240 643 252 668 q 226 590 227 618 l 226 576 m 205 363 q 164 314 189 347 q 115 238 139 281 q 69 144 90 194 q 38 42 47 94 q 46 -39 30 -3 q 90 -98 63 -75 q 152 -134 118 -122 q 214 -146 186 -146 q 284 -130 250 -146 q 343 -84 318 -115 q 381 -10 368 -54 q 389 92 394 35 q 362 204 380 165 q 309 278 344 243 q 279 305 295 290 q 247 332 262 319 q 220 354 233 345 q 205 363 208 363 z "},"9":{"ha":495,"x_min":0,"x_max":500,"o":"m 498 385 q 464 145 498 252 q 374 -36 429 38 q 251 -151 319 -111 q 115 -191 182 -191 q 19 -174 54 -191 q 4 -161 9 -168 q 2 -150 0 -155 q 11 -146 3 -146 q 35 -156 19 -146 q 123 -155 69 -172 q 199 -92 160 -142 q 271 27 238 -42 q 326 172 304 95 q 349 313 347 248 l 349 321 l 349 347 l 328 321 q 252 256 288 269 q 194 243 215 243 q 140 259 167 243 q 92 303 113 274 q 58 373 71 332 q 47 467 45 415 q 71 591 49 535 q 126 687 94 648 q 195 747 158 726 q 267 769 233 769 q 385 734 340 769 q 457 644 431 700 q 491 520 483 589 q 498 385 500 451 m 340 392 q 350 410 347 406 q 353 416 352 413 q 354 426 354 418 q 354 458 354 434 q 350 557 356 507 q 326 648 344 608 q 283 712 307 693 q 232 727 259 731 q 179 699 205 722 q 130 634 153 675 q 102 545 113 602 q 93 431 90 488 q 115 327 95 373 q 182 274 135 281 q 261 302 212 269 q 340 392 311 335 z "},"\u0000":{"ha":0,"x_min":0,"x_max":0,"o":""},"\r":{"ha":257,"x_min":0,"x_max":0,"o":""}," ":{"ha":257,"x_min":0,"x_max":0,"o":""},"E":{"ha":748,"x_min":-2,"x_max":800,"o":"m 630 957 q 609 989 616 977 q 590 1010 601 1000 q 549 1036 571 1031 q 506 1034 528 1040 q 464 1014 484 1028 q 425 984 443 1000 q 313 832 358 920 q 262 656 269 745 q 264 628 260 648 q 275 589 267 608 q 294 556 283 569 q 319 549 306 543 q 361 556 333 554 q 410 557 389 559 q 464 548 439 557 q 493 526 488 538 q 487 515 500 519 q 453 507 474 510 q 328 432 382 491 q 238 296 274 373 q 182 135 201 219 q 165 -12 163 52 q 179 -113 167 -68 q 211 -194 191 -158 q 255 -253 231 -229 q 306 -290 280 -278 q 415 -301 363 -319 q 514 -234 467 -283 q 602 -115 561 -186 q 675 33 642 -43 q 734 184 708 109 q 774 314 759 259 q 795 363 785 363 q 799 348 799 363 q 793 314 800 333 q 760 190 780 262 q 711 42 740 118 q 644 -108 682 -35 q 556 -237 606 -181 q 444 -325 507 -293 q 306 -347 382 -356 q 191 -312 243 -340 q 101 -238 139 -283 q 39 -135 63 -193 q 9 -14 16 -76 q 28 189 -2 92 q 113 380 57 286 q 167 449 130 411 q 234 507 203 486 l 267 528 q 250 536 264 528 q 217 563 236 545 q 179 608 198 582 q 149 667 160 634 q 152 797 130 729 q 219 922 174 865 q 326 1019 264 979 q 450 1069 387 1059 q 565 1053 517 1080 q 648 969 613 1026 l 665 977 q 691 989 674 981 q 719 997 708 997 q 703 984 710 991 q 688 973 696 979 q 674 960 681 967 l 658 946 l 663 922 q 669 888 668 908 q 668 847 670 868 q 661 793 667 821 q 644 740 655 764 q 621 700 634 715 q 594 686 608 684 q 544 718 561 691 q 526 769 528 745 q 545 852 526 800 q 630 957 564 903 m 642 910 q 639 920 639 922 q 630 911 639 918 q 612 881 622 901 q 595 839 602 861 q 583 793 589 816 q 578 757 578 771 q 580 720 576 738 q 587 701 583 701 q 616 728 604 703 q 636 787 628 753 q 646 856 644 821 q 642 910 648 891 z "},"F":{"ha":1021,"x_min":2,"x_max":1528,"o":"m 854 319 q 998 335 950 321 q 1071 378 1047 349 q 1076 379 1075 382 q 1078 373 1078 377 q 1059 345 1078 361 q 1009 316 1040 330 q 937 293 977 302 q 852 285 896 285 q 844 203 849 257 q 832 88 839 149 q 819 -35 825 26 q 811 -137 813 -95 l 809 -160 l 806 -234 q 795 -266 806 -255 q 771 -282 785 -278 q 740 -285 757 -286 q 708 -278 722 -283 q 665 -256 684 -269 q 641 -220 646 -243 q 641 -160 637 -207 q 653 -44 644 -113 q 674 109 661 24 q 700 285 686 194 q 636 287 665 286 q 582 286 608 288 q 532 278 556 285 q 484 259 509 271 q 475 260 477 255 q 471 271 472 264 q 472 284 470 278 q 477 292 474 290 q 516 305 497 299 q 560 314 535 311 q 619 318 585 318 q 703 313 653 318 q 734 526 719 422 q 758 712 748 630 q 768 843 767 793 q 757 896 769 892 q 613 910 691 910 q 457 896 535 910 q 305 853 378 882 q 172 782 231 825 q 76 681 113 740 q 33 552 38 623 q 39 487 31 519 q 65 429 47 455 q 114 387 83 403 q 186 372 144 372 q 245 386 222 372 q 286 401 267 401 l 286 399 q 246 367 283 384 q 174 351 208 351 q 93 369 127 351 q 38 417 59 387 q 10 484 17 446 q 5 564 2 523 q 45 712 12 642 q 139 838 78 781 q 287 934 200 894 q 490 991 375 974 q 726 1005 611 1010 q 965 984 840 1000 q 1141 963 1047 974 q 1317 955 1236 951 q 1452 987 1398 958 q 1509 1087 1507 1016 q 1518 1089 1509 1092 q 1528 1080 1528 1087 q 1464 934 1526 990 q 1264 865 1401 878 q 1187 864 1231 861 q 1092 872 1142 866 q 989 883 1042 877 q 889 894 936 889 l 856 898 q 856 889 856 894 q 859 877 856 884 q 879 725 878 821 q 868 469 880 628 l 854 319 z "},"G":{"ha":962,"x_min":3,"x_max":1010,"o":"m 606 76 q 558 1 585 38 q 497 -65 531 -36 q 425 -112 464 -94 q 345 -130 387 -130 q 208 -109 269 -132 q 104 -40 148 -85 q 36 71 61 5 q 7 220 10 137 q 27 419 3 318 q 94 616 50 521 q 197 798 137 712 q 328 950 257 884 q 398 1003 359 979 q 476 1044 436 1028 q 555 1067 516 1061 q 628 1066 594 1073 q 706 1024 677 1056 q 747 950 734 993 q 757 856 760 906 q 738 760 753 806 q 707 688 726 724 q 668 625 689 653 q 623 581 646 597 q 580 564 601 564 q 565 569 569 563 q 575 582 561 576 q 681 707 644 634 q 726 846 719 780 q 711 963 733 913 q 641 1020 689 1012 q 519 979 592 1028 q 351 802 446 931 q 215 544 257 677 q 165 285 174 411 q 161 214 161 255 q 166 130 161 174 q 181 44 170 87 q 214 -30 193 2 q 267 -82 234 -62 q 347 -99 300 -102 q 443 -66 394 -95 q 535 24 491 -36 q 578 98 559 59 q 608 177 597 137 q 620 226 615 205 q 628 267 625 247 q 636 311 632 288 q 648 363 641 333 q 667 438 658 413 q 688 474 675 462 q 735 480 712 490 q 783 443 759 470 q 790 431 786 438 q 795 412 793 425 q 797 378 797 399 q 795 319 797 356 q 790 237 792 286 q 787 141 788 188 q 787 61 786 94 q 792 26 788 28 q 838 89 813 49 q 888 175 863 128 q 938 270 913 222 q 983 352 962 318 q 1000 375 990 375 q 1007 361 1010 375 q 973 280 993 326 q 925 182 953 233 q 865 82 898 132 q 793 -12 832 31 q 777 -129 790 -68 q 738 -247 764 -191 q 670 -345 712 -302 q 564 -406 628 -387 q 505 -406 524 -418 q 485 -388 493 -398 q 479 -352 477 -378 q 518 -247 481 -314 q 611 -108 556 -181 l 618 -97 q 621 -12 618 -71 q 622 113 623 47 q 606 76 616 94 m 542 -380 q 574 -344 559 -370 q 599 -283 589 -318 q 615 -209 609 -248 q 620 -134 620 -170 q 588 -189 611 -151 q 543 -268 564 -227 q 510 -343 521 -309 q 516 -387 500 -377 q 529 -386 519 -389 q 542 -380 538 -384 z "},"H":{"ha":1243,"x_min":2,"x_max":1306,"o":"m 1304 356 q 1305 354 1304 354 q 1306 352 1306 354 q 1259 323 1306 337 q 1104 302 1212 309 l 1102 280 q 1100 251 1102 276 q 1095 185 1097 226 q 1091 93 1092 144 q 1092 -12 1090 42 l 1101 -292 q 1079 -332 1101 -325 q 1029 -332 1057 -340 q 974 -305 1000 -325 q 941 -262 948 -285 q 930 -190 934 -236 q 924 -89 925 -144 q 924 26 924 -33 q 926 138 925 85 q 929 234 927 191 q 931 299 931 276 q 834 305 891 304 q 725 306 778 306 q 635 307 672 307 q 599 311 599 307 q 598 281 599 309 q 596 209 597 253 q 595 111 595 165 q 593 6 594 57 q 591 -90 592 -45 q 590 -160 590 -135 l 590 -182 l 592 -257 q 582 -289 592 -278 q 556 -305 571 -300 q 522 -308 540 -309 q 488 -306 503 -307 q 444 -287 464 -302 q 417 -250 424 -273 q 412 -200 413 -240 q 411 -105 411 -160 q 413 13 411 -50 q 417 136 415 76 q 420 245 418 196 q 424 319 422 293 l 366 316 q 311 309 342 314 q 249 296 280 304 q 193 278 219 288 q 155 257 167 267 q 145 259 148 255 q 142 267 142 262 q 142 278 142 273 q 142 283 142 283 l 141 283 q 162 301 141 292 q 216 319 184 311 q 286 332 248 326 q 358 342 325 339 l 429 347 q 437 492 431 410 q 450 659 443 575 q 461 819 457 743 q 465 944 465 896 q 452 1010 465 991 q 418 1030 439 1030 q 366 1015 396 1030 q 304 977 337 1000 q 183 861 236 931 q 95 717 130 792 q 43 572 59 642 q 36 453 28 502 q 50 394 43 418 q 57 363 57 370 q 56 359 57 361 q 39 370 47 359 q 24 396 31 380 q 13 430 17 411 q 7 465 9 448 q 18 594 2 526 q 67 727 35 661 q 143 853 99 793 q 235 959 188 913 q 331 1033 283 1005 q 420 1061 378 1061 q 499 1036 465 1061 q 556 954 533 1010 q 589 806 578 898 q 601 582 601 714 q 601 552 601 568 q 600 510 601 536 q 598 444 599 484 q 597 339 597 403 q 747 330 688 332 q 845 328 807 328 q 902 330 882 328 q 934 330 922 332 q 983 876 953 686 q 1050 1075 1012 1066 q 1090 1070 1069 1078 q 1128 1049 1111 1063 q 1154 1023 1144 1036 q 1161 998 1163 1009 q 1143 906 1151 965 q 1129 776 1135 847 q 1118 631 1123 705 q 1109 496 1113 557 q 1104 391 1106 434 q 1102 340 1102 347 l 1102 332 q 1104 328 1102 330 q 1195 332 1161 328 q 1249 343 1229 337 q 1279 353 1269 349 q 1297 358 1288 358 q 1301 357 1300 358 q 1304 356 1302 356 z "},"I":{"ha":644,"x_min":-17,"x_max":559,"o":"m 542 345 q 541 300 542 337 q 539 212 540 264 q 537 98 538 160 q 536 -21 536 36 q 533 -127 535 -78 q 531 -200 531 -175 l 531 -222 l 530 -297 q 521 -329 530 -318 q 499 -345 512 -340 q 470 -348 486 -349 q 439 -345 455 -347 q 396 -327 415 -342 q 370 -290 377 -312 q 365 -236 366 -280 q 366 -132 365 -193 q 370 0 368 -71 q 375 140 372 71 q 382 265 378 208 q 389 354 385 321 q 403 499 394 417 q 421 666 411 582 q 438 826 431 750 q 446 951 444 903 q 433 1019 448 1000 q 393 1036 418 1038 q 337 1016 368 1035 q 276 976 306 998 q 170 861 219 929 q 87 720 122 793 q 34 578 52 648 q 16 460 16 509 q 25 401 16 425 q 33 370 35 377 q 31 366 33 368 q 15 377 23 366 q 1 403 7 387 q -9 437 -5 418 q -14 472 -12 455 q 1 601 -17 533 q 52 734 19 668 q 129 860 85 800 q 221 966 174 920 q 317 1040 269 1012 q 406 1068 365 1068 q 482 1043 451 1068 q 530 961 512 1017 q 553 813 547 905 q 554 589 559 720 q 552 559 554 575 q 549 517 550 543 q 546 451 549 491 q 542 345 543 410 z "},"J":{"ha":745,"x_min":-21,"x_max":790,"o":"m 500 1043 q 549 1036 523 1038 q 599 1033 575 1033 q 685 1045 653 1033 q 720 1057 717 1057 q 725 1056 722 1057 q 724 1050 727 1054 q 683 1021 708 1030 q 631 1010 658 1012 q 580 1010 604 1009 q 543 1012 556 1012 l 552 998 q 566 938 557 990 q 582 801 575 885 q 593 607 589 717 q 595 372 597 497 q 592 297 594 332 q 589 214 590 262 q 655 241 622 224 q 716 279 688 259 q 764 319 745 299 q 786 359 783 340 q 787 359 786 361 q 788 354 788 358 q 772 302 790 328 q 724 253 753 276 q 658 212 694 231 q 589 177 622 193 q 454 -228 556 -99 q 191 -358 352 -358 q 54 -319 106 -358 q -7 -219 2 -280 q 12 -87 -21 -153 q 107 34 45 -21 q 252 127 168 89 q 425 177 335 165 q 436 344 434 177 q 437 461 438 392 q 436 601 436 530 q 435 738 436 672 q 436 849 434 804 q 441 967 438 927 q 451 1016 444 1007 q 453 1017 453 1016 q 425 1030 453 1024 q 354 1039 398 1036 q 261 1038 311 1042 q 169 1022 212 1035 q 98 986 127 1009 q 71 929 69 964 q 78 898 71 911 q 94 875 85 885 q 111 858 102 865 q 125 847 120 851 q 115 845 128 845 q 67 874 83 845 q 49 924 50 903 q 107 1028 47 984 q 292 1071 167 1071 q 394 1065 349 1071 q 500 1043 439 1059 m 168 -321 q 262 -281 220 -318 q 336 -184 304 -245 q 390 -40 368 -123 q 424 141 411 43 l 424 146 q 266 98 342 130 q 135 19 191 66 q 48 -87 78 -28 q 24 -215 17 -146 q 69 -294 28 -264 q 168 -321 109 -325 z "},"K":{"ha":948,"x_min":-7,"x_max":1064,"o":"m 56 418 q 26 442 38 424 q 7 484 14 460 q -3 530 0 507 q -5 566 -5 552 q 1 650 -7 611 q 24 740 9 689 q 84 867 49 802 q 165 983 120 932 q 363 1050 271 1101 q 398 1024 385 1042 q 429 977 411 1007 q 460 891 446 938 q 484 784 474 844 q 502 648 495 724 q 512 476 509 573 l 517 340 q 546 349 538 344 q 576 370 554 354 q 644 459 609 394 q 714 606 679 524 q 786 774 748 688 q 861 931 823 861 q 939 1042 899 1002 q 1021 1071 979 1082 q 1039 1058 1030 1068 q 1056 1037 1049 1049 q 1063 1017 1063 1026 q 1057 1009 1064 1009 q 1048 1010 1054 1009 q 1038 1014 1042 1010 q 1009 1003 1028 1019 q 970 966 990 988 q 933 921 951 944 q 908 887 915 898 q 828 746 868 830 q 748 580 788 661 q 668 431 708 498 q 587 339 628 363 q 597 338 589 339 q 615 333 606 337 q 701 291 661 321 q 785 207 741 260 q 915 -61 856 115 q 935 -130 925 -89 q 958 -211 944 -172 q 992 -280 972 -250 q 1043 -312 1012 -309 q 1038 -325 1040 -321 q 1028 -333 1036 -328 q 998 -343 1012 -340 q 960 -340 984 -345 q 872 -286 913 -330 q 788 -155 830 -243 q 745 -49 764 -109 q 698 95 726 10 q 683 151 693 111 q 657 230 674 191 q 615 296 641 269 q 554 311 590 323 l 517 288 l 510 217 q 510 160 510 191 q 510 96 510 128 q 510 34 510 64 q 507 -19 509 3 q 500 -141 502 -99 q 497 -201 498 -182 q 494 -226 495 -220 q 488 -238 493 -231 q 465 -258 488 -255 q 415 -253 443 -260 q 363 -233 387 -247 q 335 -200 339 -219 q 333 -161 333 -196 q 334 -74 333 -125 q 337 34 335 -23 q 340 135 339 90 q 352 347 345 250 q 366 533 359 444 q 378 707 373 622 q 382 882 384 792 q 359 995 378 960 q 321 1038 340 1030 q 263 1030 295 1045 q 197 978 231 1014 q 130 891 163 943 q 71 776 97 839 q 44 702 57 747 q 25 611 31 658 q 25 519 19 564 q 56 444 31 474 q 56 418 82 413 z "},"L":{"ha":797,"x_min":24,"x_max":1410,"o":"m 451 -3 q 470 27 458 0 q 491 95 481 54 q 514 189 502 137 q 535 297 526 241 q 550 405 543 352 q 561 502 557 458 q 550 498 557 502 q 394 385 465 429 q 245 342 323 342 q 120 383 168 342 q 68 502 71 424 q 72 565 66 531 q 91 628 78 599 q 122 675 104 656 q 160 694 139 694 q 167 691 167 694 q 163 684 167 688 q 153 672 160 681 q 108 586 122 637 q 101 485 94 535 q 139 401 108 436 q 233 366 170 366 q 304 379 264 366 q 385 414 344 392 q 470 466 427 436 q 549 531 512 497 q 561 546 556 540 q 569 561 566 552 q 574 585 571 569 q 580 627 576 601 q 618 799 597 717 q 665 942 639 880 q 722 1039 691 1003 q 792 1075 753 1075 q 823 1061 811 1075 q 837 1019 835 1047 q 818 907 840 974 q 755 767 795 840 l 734 738 l 727 651 q 677 209 717 389 q 583 -68 637 30 q 612 -87 587 -75 q 673 -114 637 -99 q 746 -141 708 -128 q 809 -165 783 -155 q 930 -194 866 -186 q 1056 -200 993 -203 q 1148 -188 1099 -198 q 1243 -159 1198 -179 q 1322 -109 1288 -139 q 1368 -38 1356 -80 q 1376 -41 1370 -33 q 1389 -63 1382 -49 q 1402 -95 1396 -78 q 1408 -122 1408 -111 q 1382 -195 1410 -160 q 1307 -258 1354 -231 q 1199 -300 1260 -285 q 1073 -316 1137 -316 q 799 -276 925 -316 q 563 -170 674 -236 l 533 -153 l 509 -179 q 414 -242 464 -224 q 311 -262 365 -260 q 211 -244 262 -262 q 118 -192 160 -226 q 50 -111 76 -158 q 24 -7 24 -64 q 58 90 26 54 q 165 116 90 127 q 241 95 198 113 q 326 58 285 78 q 400 20 366 38 q 451 -3 434 2 m 431 -64 q 387 -36 411 -52 q 340 -5 363 -21 q 265 37 314 12 q 166 73 215 63 q 82 66 116 83 q 54 -19 49 49 q 77 -92 57 -56 q 128 -157 97 -128 q 195 -204 158 -186 q 271 -222 233 -222 q 351 -185 311 -222 q 431 -64 391 -148 m 760 924 q 753 894 757 913 q 747 856 750 875 q 743 820 745 837 q 741 802 741 804 l 741 800 q 758 825 745 800 q 785 885 771 849 q 809 961 799 920 q 818 1035 819 1002 q 816 1042 816 1038 q 814 1045 816 1043 q 800 1034 809 1045 q 784 1005 792 1023 q 769 966 776 988 q 760 924 762 944 z "},"M":{"ha":1375,"x_min":-3,"x_max":1358,"o":"m 196 854 q 293 936 247 903 q 380 969 340 969 q 436 954 411 969 q 477 902 460 939 q 504 800 493 865 q 521 637 516 736 q 523 591 521 628 q 525 513 524 554 q 526 439 526 472 q 524 406 526 406 q 547 473 530 424 q 589 588 564 523 q 645 724 615 653 q 708 854 675 795 q 773 951 741 913 q 832 988 804 990 q 887 965 865 986 q 922 898 910 944 q 937 775 934 851 q 934 590 939 700 l 932 476 l 979 566 q 1066 740 1021 649 q 1153 906 1111 830 q 1230 1032 1194 983 q 1290 1082 1266 1082 q 1323 1078 1309 1082 q 1345 1063 1337 1075 q 1355 1026 1352 1050 q 1356 960 1358 1002 q 1345 870 1354 939 q 1324 704 1337 800 q 1297 494 1311 608 q 1273 269 1283 380 q 1259 61 1264 158 q 1259 -101 1253 -36 q 1281 -265 1267 -207 q 1306 -339 1295 -323 q 1288 -348 1313 -351 q 1247 -337 1264 -345 q 1133 -181 1165 -297 q 1104 104 1101 -66 q 1113 261 1104 174 q 1135 440 1122 349 q 1168 617 1149 531 q 1208 771 1188 703 q 1223 824 1212 783 q 1245 906 1234 865 q 1260 1010 1273 1010 q 1196 920 1248 1009 q 1141 819 1172 878 q 1077 686 1111 759 q 1008 532 1043 613 q 936 368 972 451 q 904 253 911 313 q 890 148 896 194 q 870 76 884 101 q 818 66 856 52 q 771 102 786 78 q 751 162 755 127 q 749 245 747 198 q 757 349 752 292 q 766 455 760 392 q 780 581 773 517 q 796 703 788 644 q 811 800 804 762 q 814 828 811 806 q 820 876 818 851 q 823 921 823 901 q 818 941 823 941 q 733 832 788 941 q 650 646 696 759 q 550 384 604 533 l 523 300 l 516 123 q 509 15 512 57 q 502 -56 505 -28 q 493 -103 498 -83 q 483 -144 488 -123 q 459 -191 472 -186 q 418 -193 446 -196 q 405 -189 413 -193 q 386 -179 396 -186 q 368 -160 377 -172 q 358 -128 359 -148 q 351 -82 354 -106 q 345 -20 347 -57 q 344 72 344 17 q 349 214 344 127 q 357 314 351 255 q 370 439 363 373 q 385 573 377 505 q 398 699 392 641 q 409 799 405 757 q 415 858 413 842 q 397 929 417 915 q 345 932 377 943 q 280 894 314 922 q 220 839 247 866 q 153 748 184 799 q 96 641 122 698 q 54 523 71 583 q 31 406 36 464 q 34 338 26 366 q 52 291 42 309 q 72 262 63 273 q 82 247 82 252 q 69 241 82 241 q 41 254 54 241 q 17 286 28 267 q 2 330 7 306 q -3 377 -3 354 q 10 494 -3 431 q 50 621 24 557 q 114 744 76 684 q 196 854 151 804 z "},"N":{"ha":767,"x_min":-69,"x_max":1085,"o":"m -57 -304 q -38 -310 -49 -309 q -19 -311 -28 -311 q 99 -174 56 -311 q 155 255 142 -38 q 155 312 155 283 q 156 374 156 340 q 155 451 156 408 q 151 556 153 495 q 146 700 148 634 q 130 847 144 766 q 111 938 120 908 q 97 983 102 969 q 90 1001 92 997 q 89 1014 89 1005 q 86 1026 90 1023 q 95 1030 82 1030 q 145 1029 122 1030 q 189 1020 168 1028 q 229 994 210 1012 q 264 943 248 976 q 286 872 274 922 q 320 742 299 823 q 378 545 342 661 q 470 276 413 429 q 486 240 476 264 q 510 184 497 215 q 538 115 523 153 q 568 42 554 78 q 670 689 611 446 q 832 1010 729 932 q 938 1063 889 1054 q 1023 1064 988 1071 q 1071 1045 1057 1057 q 1073 1033 1085 1033 q 1022 1034 1045 1035 q 974 1028 998 1033 q 924 1010 950 1023 q 870 976 899 998 q 781 877 823 941 q 707 712 740 813 q 653 470 675 611 q 622 139 630 328 q 615 -74 615 -2 q 617 -175 615 -146 q 622 -207 620 -205 q 620 -215 623 -210 q 589 -227 608 -227 q 559 -220 571 -227 q 448 -101 498 -182 q 352 101 398 -19 q 264 377 307 220 q 174 719 220 533 q 173 721 174 720 q 172 724 172 722 l 172 726 l 174 684 q 178 627 175 660 q 182 556 181 594 q 184 143 193 313 q 148 -133 175 -26 q 78 -287 122 -240 q -21 -335 35 -335 q -60 -325 -52 -335 q -68 -312 -68 -314 q -65 -304 -69 -307 q -57 -304 -61 -300 z "},"O":{"ha":1141,"x_min":-5,"x_max":1085,"o":"m 606 1068 q 847 1003 748 1068 q 1002 828 946 938 q 1071 576 1057 719 q 1061 280 1085 432 q 1002 52 1042 163 q 903 -145 962 -59 q 766 -282 844 -231 q 597 -333 689 -333 q 443 -292 510 -333 q 327 -182 375 -250 q 254 -26 280 -115 q 229 160 229 63 q 227 158 227 160 q 89 240 141 188 q 16 359 36 292 q 3 508 -5 427 q 47 675 12 589 q 132 819 76 748 q 261 944 188 889 q 424 1033 335 998 q 606 1068 512 1068 m 854 898 q 753 1004 816 972 q 620 1035 691 1036 q 475 1000 549 1033 q 340 911 401 967 q 234 786 281 856 q 153 637 186 715 q 115 495 125 569 q 112 355 104 420 q 148 246 120 290 q 229 194 177 201 q 245 355 229 271 q 286 514 260 439 q 345 644 313 589 q 410 719 377 700 q 438 723 424 727 q 460 708 451 719 q 446 666 455 708 q 426 551 438 623 q 404 384 415 479 q 384 184 392 288 q 482 193 441 184 q 550 213 523 201 q 594 234 578 224 q 618 248 609 245 q 628 244 632 257 q 611 220 625 231 q 510 172 564 189 q 384 156 457 155 l 382 139 q 389 2 380 76 q 421 -138 398 -73 q 485 -250 444 -203 q 592 -302 526 -297 q 729 -247 668 -309 q 834 -79 790 -184 q 903 160 878 26 q 931 429 927 293 q 917 688 936 564 q 854 898 898 813 z "},"P":{"ha":1056,"x_min":-3,"x_max":1087,"o":"m 403 1066 q 513 990 476 1066 q 561 745 550 913 q 597 863 575 806 q 678 1010 632 960 q 774 1068 724 1059 q 840 1068 809 1075 q 899 1043 872 1061 q 951 1002 927 1026 q 998 950 976 977 q 1063 820 1040 894 q 1083 656 1087 747 q 1043 465 1078 552 q 951 315 1007 378 q 826 215 896 252 q 682 174 755 179 q 622 174 653 174 q 557 181 590 174 q 556 74 557 130 q 553 -36 554 17 q 551 -135 552 -90 q 550 -205 550 -181 l 552 -227 l 552 -302 q 544 -334 552 -323 q 523 -350 536 -345 q 495 -353 510 -354 q 464 -351 479 -352 q 420 -332 439 -347 q 392 -295 401 -318 q 388 -243 389 -285 q 388 -143 387 -201 q 391 -16 389 -85 q 397 117 394 52 q 403 237 399 182 q 408 325 406 292 q 417 474 410 387 q 430 650 424 561 q 441 820 436 740 q 446 950 446 901 q 431 1016 446 998 q 391 1029 415 1033 q 336 1004 366 1024 q 276 962 306 984 q 173 845 219 915 q 95 699 127 774 q 46 551 63 623 q 31 431 30 479 q 43 372 33 396 q 52 340 54 347 q 50 337 52 339 q 34 347 42 337 q 19 373 26 358 q 8 407 12 389 q 2 443 3 425 q 13 573 -3 503 q 60 712 30 642 q 133 845 90 781 q 221 958 175 910 q 314 1036 267 1007 q 403 1066 361 1066 m 561 316 q 560 277 561 307 q 559 201 559 247 q 603 196 583 198 q 648 198 623 194 q 759 240 710 201 q 843 336 807 278 q 899 467 878 394 q 927 615 920 540 q 927 763 934 691 q 901 892 920 835 q 840 995 875 965 q 770 1017 806 1024 q 701 970 734 1010 q 641 865 667 929 q 566 608 602 773 l 566 559 q 565 530 566 545 q 563 488 564 514 q 562 421 563 462 q 561 316 561 380 m 550 528 q 549 530 549 530 l 550 528 z "},"Q":{"ha":1125,"x_min":0,"x_max":1234,"o":"m 649 1085 q 817 1054 745 1085 q 939 967 889 1023 q 1020 836 990 911 q 1062 674 1050 760 q 1065 496 1073 589 q 1035 311 1057 403 q 983 154 1016 236 q 903 -3 950 71 q 797 -133 856 -76 q 668 -210 738 -189 q 662 -212 667 -214 q 658 -212 658 -210 q 693 -218 658 -214 q 790 -234 727 -222 q 943 -246 873 -248 q 1061 -229 1012 -243 q 1162 -172 1128 -210 q 1212 -95 1196 -134 q 1221 -105 1214 -94 q 1229 -127 1229 -116 q 1220 -192 1234 -158 q 1174 -256 1205 -226 q 1098 -308 1144 -286 q 995 -337 1052 -330 q 930 -343 960 -342 q 866 -339 899 -344 q 795 -325 833 -335 q 705 -297 757 -314 q 595 -266 642 -278 q 511 -248 549 -253 q 444 -244 474 -243 q 387 -252 415 -245 q 345 -264 363 -257 q 313 -278 326 -271 q 286 -295 297 -285 q 276 -290 281 -295 q 287 -273 276 -285 q 316 -246 299 -260 q 355 -220 333 -231 q 401 -205 377 -208 q 324 -139 356 -184 q 269 -39 292 -94 q 234 74 247 16 q 215 177 220 132 q 214 175 214 177 q 82 257 130 205 q 16 377 33 309 q 13 525 0 444 q 66 693 26 606 q 161 836 101 766 q 298 961 220 906 q 465 1050 375 1016 q 649 1085 556 1085 m 891 917 q 797 1023 858 991 q 663 1053 736 1056 q 514 1017 590 1050 q 373 929 438 984 q 260 803 313 873 q 168 655 207 733 q 122 512 137 587 q 110 372 106 438 q 141 263 115 307 q 217 212 167 219 q 240 376 219 292 q 293 534 262 460 q 359 662 323 608 q 431 736 396 717 q 481 726 460 750 q 457 679 476 726 q 420 557 439 632 q 385 389 401 483 q 372 201 370 295 q 470 210 429 201 q 540 230 512 219 q 584 252 568 241 q 609 266 601 262 q 620 261 623 274 q 601 238 616 248 q 497 189 552 207 q 370 174 443 172 l 370 170 q 375 68 366 125 q 403 -43 384 10 q 451 -136 422 -95 q 521 -187 481 -177 l 590 -193 q 709 -129 653 -189 q 812 26 766 -69 q 889 242 858 122 q 933 484 920 363 q 937 720 946 606 q 891 917 927 833 z "},"R":{"ha":1080,"x_min":-7,"x_max":1095,"o":"m 641 174 q 677 155 660 165 q 710 132 694 144 q 810 36 750 99 q 924 -120 870 -26 q 1003 -264 974 -214 q 1063 -311 1033 -314 q 1089 -313 1083 -307 q 1089 -327 1095 -319 q 1063 -342 1082 -335 q 1016 -349 1043 -349 q 924 -332 965 -349 q 845 -277 884 -316 q 767 -174 806 -238 q 688 -19 729 -111 q 630 85 665 30 q 554 170 595 141 q 549 23 550 97 q 547 -95 547 -52 l 549 -118 l 549 -193 q 541 -225 549 -214 q 520 -240 533 -236 q 491 -244 507 -245 q 460 -241 476 -243 q 417 -223 436 -238 q 389 -186 398 -208 q 385 -105 384 -170 q 389 41 385 -40 q 397 201 392 122 q 405 330 401 281 q 412 479 406 392 q 424 655 418 566 q 435 823 431 743 q 439 951 439 903 q 424 1017 439 1000 q 384 1030 408 1035 q 329 1006 359 1026 q 269 964 299 986 q 167 847 212 917 q 90 702 122 778 q 43 556 59 627 q 28 436 26 484 q 40 377 30 401 q 49 345 50 352 q 47 342 49 344 q 30 352 38 342 q 16 378 23 363 q 4 412 9 394 q -2 448 0 431 q 9 578 -7 509 q 55 716 24 648 q 127 848 85 785 q 214 960 168 911 q 307 1038 260 1009 q 396 1068 354 1068 q 510 989 470 1068 q 559 734 549 910 q 576 801 568 769 q 597 863 585 833 q 678 1010 632 960 q 774 1068 724 1059 q 840 1068 809 1075 q 899 1043 872 1061 q 951 1002 927 1026 q 998 950 976 977 q 1063 820 1040 894 q 1083 656 1087 747 q 1043 465 1078 552 q 951 315 1007 378 q 826 215 896 252 q 682 174 755 179 l 641 174 m 557 321 q 556 280 557 313 q 554 203 556 248 q 648 198 601 193 q 759 240 710 201 q 843 336 807 278 q 899 467 878 394 q 927 615 920 540 q 927 763 934 691 q 901 892 920 835 q 840 995 875 965 q 770 1017 806 1024 q 701 970 734 1010 q 641 865 667 929 q 563 590 599 760 l 563 564 q 562 535 563 550 q 560 493 561 519 q 558 426 559 467 q 557 321 557 385 m 550 528 q 549 530 549 530 l 550 528 z "},"S":{"ha":1019,"x_min":-5,"x_max":1095,"o":"m 1095 377 q 1072 352 1095 368 q 1013 318 1049 335 q 937 284 977 300 q 861 260 896 267 l 872 252 q 901 26 927 130 q 798 -155 875 -78 q 608 -274 720 -231 q 377 -318 495 -318 q 320 -316 347 -318 q 274 -312 293 -314 q 181 -289 227 -304 q 99 -251 135 -274 q 39 -194 63 -227 q 16 -116 16 -161 q 168 76 14 -9 q 611 220 321 160 q 687 239 658 231 q 712 253 715 247 q 672 322 703 273 q 602 431 641 372 q 524 548 563 490 q 467 642 486 606 q 456 643 464 648 q 443 637 448 639 q 304 624 382 625 q 156 641 226 623 q 41 701 87 660 q -2 813 -5 741 q 21 900 2 870 q 59 931 40 931 q 63 930 63 931 q 66 929 64 929 l 69 929 l 68 929 q 57 919 64 929 q 43 895 50 910 q 29 862 35 880 q 23 826 23 844 q 39 748 19 780 q 95 697 59 717 q 179 668 130 677 q 281 660 227 660 q 334 662 304 660 q 392 668 365 665 q 438 675 420 672 q 455 682 457 679 q 444 806 434 736 q 491 936 455 875 q 587 1039 528 997 q 724 1082 646 1082 q 840 972 845 1082 q 803 875 837 925 q 708 774 769 825 q 667 745 689 759 q 626 720 644 731 q 595 701 608 708 q 583 691 583 693 q 595 660 583 684 q 620 616 608 635 q 679 530 641 580 q 755 430 717 479 q 822 342 793 380 q 849 292 851 304 q 973 328 917 300 q 1094 382 1030 356 q 1095 379 1094 380 q 1095 377 1095 378 m 576 800 q 575 786 576 793 q 573 773 573 780 q 572 744 571 755 q 576 733 573 733 q 678 795 635 760 q 748 864 720 830 q 790 929 776 898 q 806 984 804 960 q 796 1030 809 1017 q 769 1042 783 1042 q 705 1022 738 1042 q 645 969 672 1002 q 600 891 618 936 q 576 800 582 847 m 243 -247 q 482 -222 375 -255 q 656 -127 589 -189 q 745 21 724 -64 q 726 203 766 106 l 710 203 q 654 195 700 203 q 551 175 608 188 q 441 151 495 163 q 361 132 387 139 q 139 24 222 87 q 52 -104 56 -38 q 65 -163 50 -137 q 107 -207 80 -189 q 169 -234 134 -224 q 243 -247 205 -245 z "},"T":{"ha":974,"x_min":2,"x_max":1528,"o":"m 854 299 q 847 226 852 280 q 835 107 842 172 q 821 -25 828 42 q 811 -137 814 -92 l 809 -160 l 806 -234 q 795 -266 806 -255 q 771 -282 785 -278 q 740 -285 757 -286 q 708 -278 722 -283 q 665 -256 684 -269 q 641 -220 646 -243 q 642 -148 637 -205 q 658 -11 648 -92 q 683 167 668 69 q 713 364 698 264 q 740 558 727 464 q 760 726 753 653 q 767 845 767 799 q 757 892 767 891 q 613 906 691 906 q 457 892 535 906 q 305 851 378 878 q 172 780 231 823 q 76 681 113 738 q 33 552 38 623 q 39 487 31 519 q 65 429 47 455 q 114 387 83 403 q 186 372 144 372 q 245 386 222 372 q 286 401 267 401 l 286 399 q 246 367 283 384 q 174 351 208 351 q 93 369 127 351 q 38 417 59 387 q 10 484 17 446 q 5 564 2 523 q 45 712 12 642 q 139 838 78 781 q 287 934 200 894 q 490 991 375 974 q 726 1005 611 1010 q 965 984 840 1000 q 1141 963 1047 974 q 1317 955 1236 951 q 1452 987 1398 958 q 1509 1087 1507 1016 q 1518 1089 1509 1092 q 1528 1080 1528 1087 q 1464 936 1526 990 q 1264 868 1401 882 q 1187 867 1231 865 q 1092 875 1142 870 q 989 886 1042 880 q 889 898 936 892 l 856 901 q 856 892 856 898 q 859 880 856 887 q 879 727 878 825 q 868 469 880 628 q 862 406 865 441 q 854 299 859 372 z "},"U":{"ha":1182,"x_min":9,"x_max":1207,"o":"m 495 762 q 514 874 509 835 q 519 939 519 913 q 506 1023 519 997 q 450 1045 493 1050 q 300 993 373 1036 q 170 886 227 950 q 78 746 113 823 q 43 592 43 668 q 53 506 43 543 q 89 443 63 469 q 104 422 104 427 q 102 420 104 420 q 70 435 87 420 q 40 475 54 450 q 17 531 26 500 q 9 597 9 563 q 56 793 9 705 q 173 943 104 880 q 317 1039 241 1005 q 448 1073 392 1073 q 573 997 533 1073 q 613 755 613 922 q 601 537 613 661 q 578 281 589 413 q 566 23 568 149 q 583 -203 564 -104 q 622 -306 599 -280 q 673 -320 646 -332 q 730 -266 700 -309 q 788 -158 760 -222 q 855 22 821 -80 q 913 243 889 123 q 929 324 924 292 q 938 380 934 356 q 946 427 943 405 q 957 481 950 450 q 997 707 981 602 q 1025 891 1012 813 q 1052 1017 1038 970 q 1089 1069 1066 1064 q 1133 1066 1111 1069 q 1171 1052 1155 1063 q 1197 1024 1188 1042 q 1203 981 1207 1007 q 1172 789 1193 891 q 1130 565 1151 688 q 1093 296 1109 443 q 1075 -33 1076 149 q 1076 -89 1075 -54 q 1078 -157 1076 -123 q 1083 -215 1080 -191 q 1092 -241 1087 -240 q 1082 -251 1089 -243 q 1036 -259 1075 -259 q 984 -239 1005 -259 q 951 -188 964 -219 q 931 -119 938 -158 q 920 -43 924 -80 q 916 29 917 -5 q 915 83 915 63 q 869 -75 894 5 q 811 -218 844 -155 q 737 -320 778 -281 q 646 -356 696 -359 q 556 -335 601 -354 q 476 -268 510 -316 q 420 -140 441 -220 q 401 69 399 -59 q 408 211 403 144 q 424 354 413 278 q 451 528 434 431 q 495 762 469 625 z "},"V":{"ha":1024,"x_min":9,"x_max":1733,"o":"m 1396 1024 q 1566 1071 1486 1071 q 1627 1062 1597 1071 q 1680 1035 1656 1052 q 1718 994 1703 1017 q 1733 944 1733 970 q 1727 936 1733 936 q 1714 949 1719 936 q 1700 977 1710 962 q 1670 1004 1689 991 q 1615 1017 1651 1017 q 1444 974 1530 1017 q 1275 853 1358 931 q 1117 667 1193 776 q 978 425 1042 557 q 865 142 915 293 q 786 -170 816 -9 q 771 -249 778 -219 q 753 -296 764 -280 q 728 -315 743 -312 q 688 -312 714 -318 q 633 -281 653 -304 q 603 -228 613 -259 q 591 -163 594 -198 q 587 -95 589 -128 q 582 -14 585 -59 q 572 95 578 31 q 556 250 566 160 q 531 467 545 340 q 505 668 517 587 q 482 801 493 748 q 460 888 470 854 q 439 948 450 922 q 392 1009 420 991 q 333 1024 365 1026 q 270 1004 302 1023 q 208 960 238 986 q 84 793 128 889 q 40 592 40 698 q 45 527 40 559 q 59 470 50 495 q 79 431 68 446 q 104 415 90 415 q 108 413 104 415 l 109 413 l 109 411 q 95 406 104 406 q 35 464 61 406 q 9 609 9 523 q 38 758 9 679 q 116 905 68 837 q 225 1017 165 972 q 347 1063 285 1063 q 442 1038 401 1063 q 515 968 483 1014 q 573 857 547 922 q 623 708 599 792 q 649 582 634 670 q 681 385 665 493 q 714 168 698 278 q 745 -24 731 57 l 760 -113 l 776 -35 q 1049 669 885 405 q 1396 1024 1214 934 z "},"W":{"ha":1118,"x_min":-146,"x_max":1618,"o":"m 981 365 q 1070 703 1023 559 q 1175 943 1118 847 q 1304 1084 1233 1038 q 1467 1130 1375 1130 q 1563 1105 1519 1130 q 1616 1035 1606 1080 q 1609 1028 1618 1028 q 1564 1076 1585 1061 q 1509 1094 1543 1090 q 1396 1072 1451 1099 q 1290 993 1340 1045 q 1196 867 1240 941 q 1118 705 1153 793 q 1064 552 1085 623 q 1026 402 1043 481 q 993 226 1009 323 q 955 -3 977 128 q 922 -207 934 -139 q 892 -285 910 -274 q 818 -299 849 -312 q 750 -245 786 -285 q 694 -154 719 -212 q 652 -22 668 -95 q 626 135 635 52 q 616 302 616 219 q 616 388 616 354 q 618 453 616 422 q 623 523 620 484 q 632 620 627 561 q 635 652 634 635 q 636 683 635 668 q 638 708 637 698 q 639 719 639 719 l 632 708 l 625 698 q 610 643 623 698 q 577 505 597 589 q 533 321 557 422 q 485 126 509 220 q 442 -44 462 31 q 411 -151 422 -120 q 391 -182 403 -174 q 367 -190 380 -191 q 339 -182 354 -189 q 311 -165 325 -175 q 266 -68 283 -148 q 250 184 250 12 q 256 342 250 252 q 270 526 262 432 q 284 709 278 620 q 290 868 290 799 q 265 988 290 950 q 201 1033 240 1026 q 116 1019 163 1040 q 26 962 69 998 q -72 829 -35 910 q -109 655 -109 748 q -103 613 -109 634 q -91 576 -97 592 q -79 547 -85 559 q -73 531 -73 535 q -76 528 -73 528 q -96 537 -85 528 q -119 564 -108 547 q -138 608 -130 582 q -146 667 -146 634 q -119 806 -146 734 q -48 935 -92 877 q 54 1030 -3 993 q 172 1068 111 1068 q 318 1009 259 1068 q 398 840 377 950 q 406 789 403 814 q 411 730 410 764 q 412 650 411 696 q 413 535 413 604 q 413 421 413 469 q 413 330 413 373 q 411 241 413 286 q 403 135 408 196 q 397 82 399 106 q 394 57 394 59 q 401 73 394 57 q 418 115 408 89 q 438 173 427 141 q 460 240 450 205 q 496 361 472 281 q 545 530 519 441 q 596 701 571 620 q 639 826 622 783 q 679 891 660 878 q 712 893 698 903 q 734 863 726 884 q 741 828 741 842 q 743 688 741 771 q 748 510 745 606 q 760 310 752 413 q 783 110 769 207 q 817 -69 797 14 q 866 -210 837 -153 l 868 -214 q 889 -139 877 -191 q 913 -23 901 -87 q 938 111 925 42 q 959 237 950 181 q 975 330 969 293 q 981 365 981 366 z "},"X":{"ha":1012,"x_min":35,"x_max":1398,"o":"m 333 1038 q 418 1071 373 1059 q 503 1081 462 1083 q 582 1057 545 1078 q 648 995 620 1036 q 683 938 668 964 q 710 866 698 911 q 722 822 715 851 q 736 759 729 793 q 750 687 743 724 q 762 615 757 649 q 773 571 769 589 q 778 554 776 554 l 773 549 q 776 557 767 543 q 816 621 792 583 q 869 700 840 658 q 929 785 898 741 q 988 865 960 828 q 1193 1071 1099 1026 q 1241 1089 1214 1083 q 1297 1092 1269 1094 q 1348 1079 1325 1090 q 1385 1047 1372 1068 q 1391 1031 1389 1042 q 1396 1011 1394 1021 q 1397 997 1398 1002 q 1394 995 1396 991 q 1346 1023 1375 1016 q 1289 1028 1318 1030 q 1236 1019 1260 1026 q 1201 1007 1212 1012 q 1131 964 1165 990 q 1061 899 1097 938 q 984 810 1024 861 q 894 689 943 759 q 858 638 877 667 q 823 584 839 609 q 796 540 807 559 q 785 517 785 521 q 789 473 783 509 q 805 391 795 438 q 826 294 814 344 q 845 207 837 245 q 869 103 854 170 q 905 -37 884 36 q 951 -180 925 -111 q 1012 -286 977 -248 q 1031 -307 1026 -302 q 1030 -316 1036 -312 q 954 -343 988 -339 q 894 -339 920 -347 q 848 -315 868 -332 q 814 -278 828 -299 q 758 -154 783 -233 q 716 13 733 -75 q 689 185 700 101 q 675 326 679 269 q 667 314 675 328 q 646 280 658 300 q 622 237 634 259 q 604 201 611 215 q 563 130 585 167 q 520 59 542 94 q 479 -8 498 24 q 444 -62 460 -40 q 374 -156 415 -104 q 284 -247 333 -208 q 179 -302 234 -286 q 68 -288 123 -318 q 60 -271 52 -274 q 97 -262 68 -267 q 166 -240 130 -257 q 235 -199 201 -222 q 300 -148 269 -175 q 356 -92 332 -120 q 474 57 418 -21 q 590 238 530 135 q 621 286 604 259 q 650 336 637 313 q 671 377 663 359 q 679 398 679 394 q 674 441 679 405 q 661 530 668 477 q 648 641 655 582 q 635 750 641 700 q 606 912 627 844 q 550 1017 585 981 q 466 1055 516 1054 q 349 1016 417 1056 q 226 911 281 976 q 134 769 170 845 q 83 612 97 693 q 85 460 69 531 q 76 424 92 420 q 52 467 61 427 q 47 624 35 542 q 97 784 59 707 q 195 928 135 861 q 333 1038 255 995 z "},"Y":{"ha":1106,"x_min":12,"x_max":1205,"o":"m 1203 385 q 1205 384 1203 385 q 1176 341 1205 370 q 1113 284 1148 313 q 1050 234 1078 255 q 1023 212 1023 212 l 991 184 l 986 87 q 979 -10 983 30 q 971 -79 976 -50 q 961 -129 967 -108 q 944 -174 955 -151 q 879 -272 917 -236 q 806 -325 842 -307 q 738 -346 769 -342 q 694 -351 707 -351 q 592 -271 592 -351 q 611 -193 592 -233 q 660 -114 630 -153 q 726 -37 689 -75 q 797 33 762 0 l 819 52 q 823 231 821 158 q 826 355 825 304 q 830 444 828 406 q 832 519 832 483 l 814 465 q 786 398 802 434 q 753 330 769 363 q 720 267 736 297 q 693 217 703 238 q 616 107 653 144 q 540 69 580 69 q 393 146 441 69 q 345 342 345 222 q 350 424 345 375 q 364 534 354 474 q 386 660 373 594 q 418 792 399 726 q 445 897 438 861 q 453 957 453 932 q 434 1027 453 1005 q 385 1049 415 1049 q 317 1032 354 1049 q 244 989 280 1016 q 176 930 208 962 q 127 866 144 898 q 71 757 92 809 q 50 641 50 705 q 60 543 50 582 q 102 469 69 503 q 122 443 122 446 q 120 441 122 441 q 92 460 111 441 q 33 536 54 491 q 16 644 12 580 q 49 794 19 717 q 128 934 78 872 q 242 1036 177 997 q 382 1076 307 1076 q 503 991 470 1076 q 536 747 536 906 q 518 498 536 623 q 500 241 500 373 q 516 134 500 161 q 555 114 531 106 q 608 158 578 122 q 663 247 637 194 q 724 374 693 304 q 783 516 755 444 q 829 655 811 589 q 851 769 847 720 q 862 906 858 847 q 872 1005 866 965 q 885 1065 877 1045 q 911 1085 894 1085 q 988 1063 951 1085 q 1024 990 1024 1040 q 1023 973 1024 981 q 1023 955 1023 965 q 1008 776 1014 861 q 998 605 1002 691 q 993 424 995 519 q 991 217 991 330 q 1024 244 991 219 q 1118 321 1057 269 q 1179 374 1165 361 q 1200 387 1193 387 q 1203 385 1201 387 m 819 19 l 792 -7 q 682 -140 729 -73 q 635 -259 635 -207 q 646 -299 635 -285 q 669 -318 656 -312 q 694 -323 682 -323 q 710 -323 707 -323 q 780 -255 753 -319 q 819 -40 807 -191 l 819 19 z "},"Z":{"ha":849,"x_min":90,"x_max":1116,"o":"m 891 -250 q 971 -227 943 -243 q 1017 -187 1000 -210 q 1044 -135 1035 -163 q 1066 -73 1054 -106 q 1078 -71 1071 -59 q 1089 -109 1085 -83 q 1089 -172 1092 -135 q 1070 -242 1085 -208 q 1026 -303 1056 -276 q 948 -339 997 -330 q 848 -336 903 -347 q 734 -301 793 -325 q 609 -247 674 -278 q 476 -181 543 -215 l 443 -217 q 343 -302 391 -278 q 245 -333 295 -326 q 167 -322 200 -340 q 115 -272 134 -304 q 94 -201 97 -240 q 105 -129 90 -163 q 153 -72 120 -95 q 240 -47 186 -49 q 293 -53 273 -45 q 351 -78 314 -61 q 364 -87 359 -83 q 372 -85 368 -90 q 384 -64 377 -80 q 405 -19 391 -49 q 441 62 418 10 q 488 170 464 113 q 533 284 512 227 q 564 382 554 340 q 536 388 554 384 q 497 394 517 392 q 460 396 477 396 q 434 391 443 396 q 420 382 427 387 q 413 373 413 377 q 411 366 413 366 q 408 373 408 366 q 417 407 399 392 q 467 425 434 422 q 514 423 486 427 q 580 411 542 418 l 773 863 l 783 861 q 669 878 734 861 q 536 918 604 896 q 404 957 469 939 q 292 979 339 976 q 243 969 266 981 q 206 939 220 957 q 185 903 191 922 q 184 872 179 884 q 189 849 191 856 q 182 843 188 842 q 169 854 177 844 q 155 885 161 865 q 151 945 149 911 q 164 1009 153 979 q 201 1059 175 1038 q 267 1080 226 1080 q 306 1077 288 1080 q 348 1065 323 1075 q 411 1038 373 1056 q 510 991 450 1021 q 596 956 557 970 q 670 931 635 941 q 740 916 705 922 q 813 908 774 910 l 821 929 q 839 952 828 938 q 865 983 851 967 q 891 1014 878 998 q 915 1040 905 1030 q 974 1082 948 1069 q 1031 1095 1000 1095 q 1096 1074 1076 1095 q 1102 1007 1116 1052 q 1058 939 1092 977 q 960 882 1024 901 q 925 875 932 873 q 911 870 918 877 q 888 796 908 858 q 840 646 868 734 q 806 545 819 585 q 782 477 792 505 q 766 433 773 450 q 755 405 760 417 q 748 365 747 366 q 782 356 757 361 q 821 351 807 351 q 859 355 845 351 q 884 372 872 359 q 898 382 894 382 q 901 372 901 382 q 877 335 901 351 q 819 327 861 325 q 738 344 778 330 q 730 332 734 345 q 710 278 726 318 q 664 175 693 236 q 604 54 635 115 q 544 -62 573 -7 q 497 -144 516 -116 l 498 -144 q 593 -187 545 -165 q 689 -225 641 -208 q 788 -249 738 -241 q 891 -250 839 -257 m 302 -219 q 319 -194 309 -210 q 337 -161 328 -177 q 352 -133 345 -146 q 356 -120 358 -120 q 345 -110 356 -116 q 321 -98 335 -104 q 293 -88 307 -92 q 266 -82 278 -83 q 193 -92 222 -76 q 148 -134 163 -108 q 128 -191 132 -160 q 134 -247 125 -222 q 163 -284 142 -271 q 217 -286 184 -297 q 263 -257 241 -273 q 302 -219 285 -241 m 944 967 q 920 928 924 936 q 925 922 917 920 q 987 944 951 927 q 1052 990 1023 960 q 1089 1049 1090 1033 q 1063 1061 1087 1066 q 1005 1031 1040 1056 q 944 967 970 1007 z "},"a":{"ha":523,"x_min":-42,"x_max":571,"o":"m 201 193 q 196 178 198 184 q 193 168 194 172 q 189 160 191 163 q 151 76 167 108 q 124 29 135 45 q 102 6 113 12 q 76 0 90 0 q 25 14 47 0 q -12 52 3 28 q -35 109 -28 76 q -42 177 -42 141 q -23 273 -42 226 q 27 358 -3 319 q 95 419 57 396 q 172 443 132 443 q 212 432 198 443 q 231 413 226 422 l 231 415 q 254 434 238 420 q 290 448 271 448 q 359 433 340 448 q 377 399 377 418 q 370 325 377 377 q 354 186 363 273 q 349 130 351 165 q 347 66 347 95 q 352 3 347 3 q 354 2 354 3 q 356 3 354 0 q 380 35 363 7 q 419 102 398 63 q 465 187 441 141 q 510 271 490 233 q 543 334 530 309 q 557 359 557 359 q 564 359 559 359 q 571 356 569 358 q 560 334 571 358 q 531 275 549 311 q 494 197 514 240 q 457 118 474 155 q 416 40 434 69 q 385 -5 398 10 q 360 -29 372 -24 q 333 -33 349 -33 q 312 -28 321 -33 q 288 -14 302 -23 q 253 24 267 0 q 227 76 238 49 q 211 133 217 104 q 203 184 205 161 l 201 193 m 224 363 q 225 368 226 366 q 226 373 224 370 l 226 382 q 215 407 224 396 q 182 403 207 418 q 126 326 149 382 q 90 215 102 271 q 84 179 89 205 q 77 123 80 153 q 75 68 75 94 q 83 31 75 42 q 104 40 90 23 q 135 90 118 57 q 170 167 153 123 q 201 252 188 210 q 213 303 207 276 q 224 359 219 330 l 224 363 z "},"b":{"ha":512,"x_min":-10,"x_max":590,"o":"m 17 31 q -4 91 2 49 q -10 194 -10 134 q -4 325 -10 253 q 12 472 2 396 q 31 595 21 536 q 52 699 42 653 q 74 775 63 745 q 95 816 85 806 q 120 825 99 821 q 153 819 135 825 q 181 806 170 814 q 192 793 189 799 q 191 767 194 786 q 186 714 191 757 q 173 607 181 670 q 156 467 165 543 q 139 314 148 391 l 132 233 l 127 222 q 188 330 156 288 q 260 385 219 372 q 358 365 306 401 q 391 325 378 347 q 413 273 405 302 l 415 253 l 436 267 q 467 287 443 273 q 516 319 491 302 q 563 348 542 335 q 585 361 583 361 q 574 347 590 361 q 535 316 557 333 q 489 282 512 299 q 458 260 465 266 l 418 233 l 415 191 q 389 100 406 137 q 342 26 372 63 q 304 -13 330 10 q 247 -56 278 -36 q 186 -83 217 -75 q 132 -78 155 -92 q 111 -36 109 -62 q 130 19 113 -10 q 189 100 153 57 q 286 198 226 142 q 293 227 292 203 q 291 279 295 252 q 276 327 286 306 q 248 347 266 349 q 214 327 231 345 q 184 286 198 309 q 161 239 170 262 q 146 205 151 215 q 122 140 132 168 q 106 76 113 111 q 95 31 99 42 q 78 12 92 21 q 48 14 69 9 q 17 31 26 19 m 189 -31 q 227 18 212 -5 q 253 64 243 42 q 271 110 264 87 q 285 163 278 134 q 269 155 286 170 q 227 114 252 141 q 179 54 203 87 q 142 -9 155 21 q 133 -47 132 -35 q 142 -61 134 -59 q 163 -55 151 -62 q 189 -31 175 -47 z "},"c":{"ha":330,"x_min":-47,"x_max":370,"o":"m 78 0 q 9 46 42 9 q -38 134 -24 83 q -43 214 -47 172 q -27 297 -40 257 q 10 371 -14 337 q 68 429 33 405 q 115 448 90 444 q 161 448 139 451 q 201 436 184 444 q 222 417 217 427 q 226 378 234 396 q 208 363 217 361 q 203 369 203 363 q 204 382 203 375 q 204 398 205 389 q 198 411 203 406 q 174 422 188 425 q 148 404 161 418 q 124 367 135 389 q 106 323 113 345 q 89 257 95 292 q 79 188 82 222 q 77 123 76 155 q 83 68 78 92 q 128 21 97 19 q 186 57 158 23 q 219 103 203 80 q 252 155 234 127 q 288 221 269 184 q 333 309 307 259 q 357 350 347 339 q 370 361 366 361 q 339 282 361 339 q 285 166 316 226 q 218 57 253 106 q 151 2 182 9 q 116 -3 137 -2 q 78 0 95 -3 z "},"d":{"ha":512,"x_min":-62,"x_max":543,"o":"m 54 45 q -32 92 -2 45 q -61 205 -62 139 q -43 290 -61 248 q 5 365 -24 332 q 72 420 35 399 q 149 441 109 441 q 194 436 179 441 q 212 429 208 431 q 215 464 212 434 q 225 542 219 495 q 239 646 231 589 q 255 760 247 703 q 279 860 266 830 q 313 891 292 891 q 339 888 323 891 q 369 879 354 885 q 395 865 384 873 q 406 847 406 858 q 405 842 406 844 q 405 837 405 840 q 392 745 399 802 q 378 620 385 688 q 363 480 370 552 q 350 343 356 408 q 340 226 344 278 q 337 146 337 174 q 345 -7 333 -7 q 366 10 352 -7 q 402 67 380 28 q 453 170 424 106 q 523 328 483 234 q 540 351 535 351 q 543 345 543 351 q 530 305 543 337 q 503 240 517 273 q 451 123 472 165 q 415 47 431 82 q 369 -22 391 -7 q 321 -36 347 -36 q 284 -23 300 -36 q 255 10 267 -10 q 234 51 243 30 q 220 92 226 73 q 204 178 208 137 q 203 280 200 219 q 191 252 198 267 q 179 223 184 236 q 170 201 174 210 q 167 189 167 191 q 128 115 144 142 q 102 71 113 87 q 79 50 90 56 q 54 45 68 45 m 207 385 q 208 401 207 389 q 208 415 210 413 q 169 399 189 415 q 131 357 149 384 q 96 297 113 330 q 69 231 80 264 q 61 201 66 222 q 52 154 56 179 q 49 106 49 128 q 61 75 50 83 q 94 98 71 64 q 139 184 116 132 q 181 293 161 236 q 207 385 201 349 z "},"e":{"ha":372,"x_min":-43,"x_max":427,"o":"m 80 -9 q 9 36 40 2 q -35 125 -23 69 q -38 207 -43 165 q -17 287 -33 248 q 23 360 -2 326 q 83 415 49 394 q 138 443 108 432 q 198 453 168 453 q 245 438 231 453 q 259 398 259 422 q 247 348 259 375 q 215 300 234 321 q 162 245 193 274 q 102 200 132 215 q 88 196 95 196 q 71 193 80 196 q 74 206 75 194 q 87 220 73 217 q 141 253 109 227 q 196 311 172 278 q 226 360 215 337 q 238 400 236 384 q 232 422 240 417 q 205 415 224 427 q 147 357 174 398 q 102 266 120 316 q 79 164 85 215 q 83 75 73 113 q 118 17 95 30 q 166 15 141 5 q 217 49 191 24 q 264 101 243 73 q 299 154 283 128 q 332 206 316 179 q 363 263 347 233 q 396 332 378 293 q 412 356 405 351 q 422 361 420 361 q 425 351 427 361 q 418 326 424 340 q 359 203 389 266 q 281 78 328 141 q 195 -3 241 24 q 80 -9 149 -30 z "},"f":{"ha":306,"x_min":-97,"x_max":339,"o":"m 198 727 q 174 584 186 668 q 155 415 163 500 q 141 255 146 330 q 137 142 137 181 l 139 134 q 192 168 158 134 q 257 247 226 203 q 335 361 293 297 q 339 356 339 361 q 318 304 339 342 q 266 224 297 266 q 201 148 236 182 q 139 108 167 113 l 135 24 q 171 -16 156 5 q 194 -59 186 -38 q 207 -99 203 -80 q 214 -128 212 -118 q 213 -159 215 -142 q 202 -190 210 -175 q 180 -214 194 -205 q 142 -222 165 -222 q 92 -200 116 -222 q 49 -141 68 -177 q 15 -58 30 -104 q -5 38 0 -12 l -7 71 l -21 71 q -73 82 -49 71 q -95 106 -97 94 q -86 121 -97 115 q -59 127 -75 127 q -44 126 -50 127 q -28 122 -38 125 l -12 118 l -9 198 q -3 310 -7 248 q 5 436 0 372 q 18 559 10 500 q 35 663 26 618 q 50 727 42 703 q 69 763 59 750 q 89 780 78 776 q 113 783 99 783 q 172 768 144 783 q 198 727 200 753 m -26 94 l -42 99 q -51 102 -45 101 q -62 104 -57 104 l -80 101 l -64 99 q -53 95 -61 97 q -40 94 -45 94 l -26 94 m 139 -62 q 148 -162 139 -135 q 161 -196 156 -189 q 179 -193 168 -207 q 193 -151 189 -179 q 186 -85 196 -123 q 139 -7 175 -47 l 139 -62 z "},"g":{"ha":460,"x_min":-64,"x_max":503,"o":"m 149 443 q 193 431 174 443 q 201 438 196 436 q 210 443 205 439 q 238 447 220 446 q 273 444 255 448 q 304 431 290 439 q 321 411 318 424 q 326 372 325 398 q 328 312 328 345 q 327 240 328 278 q 326 165 326 201 l 326 163 q 374 204 349 179 q 422 257 399 229 q 463 313 444 285 q 490 361 481 340 q 497 358 490 363 q 503 351 503 352 q 448 263 490 319 q 326 128 406 207 l 321 69 q 276 -174 311 -69 q 194 -351 241 -280 q 95 -456 148 -422 q -7 -484 42 -490 q -41 -456 -31 -481 q -45 -403 -50 -431 q -31 -348 -42 -377 q -3 -285 -21 -319 q 43 -207 16 -250 q 111 -108 71 -163 q 140 -64 128 -82 q 159 -36 151 -47 q 170 -17 167 -24 q 175 -3 174 -10 q 176 46 174 5 q 181 134 179 87 q 181 171 181 155 q 182 201 182 188 q 171 173 175 184 q 167 160 167 161 q 128 76 144 108 q 102 29 113 45 q 79 6 90 12 q 54 0 68 0 q 3 14 24 0 q -35 52 -19 28 q -57 109 -50 76 q -64 177 -64 141 q -45 273 -64 226 q 4 358 -26 319 q 72 419 35 396 q 149 443 109 443 m 186 373 q 183 394 184 385 q 184 410 182 403 q 160 403 175 413 q 103 326 127 382 q 68 215 80 271 q 62 179 66 205 q 55 123 57 153 q 52 68 52 94 q 61 31 52 42 q 84 43 68 21 q 120 106 101 66 q 157 194 139 146 q 186 286 175 243 l 186 373 m 160 -82 q 153 -88 160 -80 q 135 -109 146 -95 q 110 -142 123 -123 q 85 -182 97 -161 q 3 -329 36 -266 q -26 -444 -31 -392 q -15 -458 -23 -453 q -3 -464 -7 -464 q 36 -437 12 -464 q 83 -359 59 -410 q 128 -239 108 -309 q 160 -82 149 -168 z "},"h":{"ha":497,"x_min":-3,"x_max":528,"o":"m 134 236 q 159 292 144 262 q 189 346 174 321 q 218 391 205 372 q 238 418 231 410 q 262 437 252 432 q 288 441 273 441 q 332 432 309 441 q 363 405 354 424 q 372 357 375 385 q 366 285 370 328 q 358 201 363 250 q 350 107 352 151 q 348 30 347 63 q 356 -2 349 -2 q 383 24 366 -2 q 417 89 399 50 q 450 172 434 128 q 476 247 465 215 q 492 296 483 273 q 510 336 502 319 q 523 360 517 352 q 528 361 528 368 q 525 346 528 359 q 517 315 523 333 q 505 275 512 297 q 491 234 498 253 q 466 155 481 201 q 432 67 451 109 q 390 -5 413 24 q 340 -33 366 -35 q 260 10 290 -30 q 220 89 229 49 q 215 135 217 109 q 215 188 214 161 q 220 242 217 215 q 226 292 222 269 q 236 351 229 321 q 252 398 243 380 q 209 332 238 378 q 158 231 181 286 q 137 174 148 203 q 120 106 127 146 q 113 65 116 80 q 109 36 109 50 q 107 15 109 30 q 85 0 104 0 q 51 5 64 -2 q 30 23 38 12 q 18 52 23 35 q 9 89 14 69 q -2 164 0 120 q -3 255 -3 208 q 3 345 -2 302 q 10 417 7 387 q 26 530 17 467 q 50 655 35 594 q 91 766 66 715 q 156 842 116 818 q 198 849 177 856 q 229 819 219 842 q 230 740 234 783 q 216 651 226 696 q 193 563 207 606 q 161 484 179 519 q 158 479 158 476 q 158 479 158 483 q 147 387 153 441 q 134 236 141 333 m 205 814 q 194 780 201 813 q 180 706 188 748 q 168 620 172 663 q 165 550 163 576 l 167 552 q 191 644 182 604 q 203 715 200 684 q 206 770 207 747 q 205 814 205 793 z "},"i":{"ha":304,"x_min":-7,"x_max":339,"o":"m 14 401 q 95 438 30 450 q 149 411 139 429 q 156 375 160 394 q 149 324 153 361 q 143 241 146 286 q 139 148 141 196 q 139 61 137 99 q 146 28 141 30 q 170 35 155 23 q 208 82 186 47 q 258 180 231 118 q 316 339 285 241 q 332 361 321 361 q 339 359 339 361 q 338 356 339 358 q 334 344 337 354 q 326 312 332 333 q 309 250 319 290 q 260 115 283 165 q 217 38 238 64 q 176 5 196 12 q 134 -2 156 -2 q 35 52 73 -2 q -5 210 -3 106 q -1 328 -7 281 q 14 401 5 375 m 66 497 q 56 550 50 505 q 68 588 59 578 q 95 599 76 597 l 113 599 q 153 579 141 599 q 155 524 165 559 q 149 509 153 512 q 139 500 146 505 q 102 490 125 491 q 66 497 78 490 z "},"j":{"ha":269,"x_min":-231,"x_max":314,"o":"m 61 524 q 47 563 45 533 q 56 590 50 583 q 80 599 61 597 l 94 599 q 133 584 120 599 q 139 545 146 569 q 135 533 137 536 q 127 526 134 530 q 95 519 115 519 q 61 524 75 519 m 10 373 q 14 424 7 410 q 33 443 21 438 q 59 447 42 446 q 95 444 76 448 q 127 431 113 439 q 144 411 141 424 q 148 372 148 398 q 149 312 149 345 q 148 240 149 278 q 146 165 148 201 l 146 163 l 177 198 q 271 306 238 267 q 313 345 304 345 q 314 342 314 345 q 300 327 313 342 q 271 290 288 313 q 233 240 253 267 q 191 186 212 212 l 148 128 l 141 69 q 95 -174 128 -69 q 15 -351 61 -280 q -85 -456 -31 -422 q -187 -484 -139 -490 q -221 -456 -212 -481 q -226 -403 -231 -431 q -211 -348 -222 -377 q -181 -285 -200 -319 q -134 -207 -161 -250 q -66 -108 -106 -163 q -37 -64 -49 -82 q -18 -36 -26 -47 q -7 -17 -10 -24 q -2 -3 -3 -10 q 0 46 -2 5 q 5 134 2 87 q 6 201 5 174 q 8 252 7 227 q 10 304 9 276 q 10 373 10 332 m -17 -82 q -24 -88 -17 -80 q -43 -109 -31 -95 q -67 -142 -54 -123 q -92 -182 -80 -161 q -177 -329 -142 -266 q -207 -444 -212 -392 q -194 -458 -203 -453 q -182 -464 -186 -464 q -143 -437 -167 -464 q -95 -359 -120 -410 q -49 -239 -71 -309 q -17 -82 -28 -168 z "},"k":{"ha":469,"x_min":-7,"x_max":521,"o":"m 174 696 q 160 603 168 665 q 143 471 151 542 q 128 334 135 401 q 120 227 122 267 q 118 168 118 191 q 118 132 118 146 l 139 182 q 155 241 158 233 q 158 260 155 250 q 170 269 161 269 q 188 286 179 269 q 231 354 196 302 q 266 406 250 382 q 290 436 281 431 q 330 439 302 458 q 357 393 351 424 q 347 344 363 363 q 311 314 335 332 q 252 280 286 297 q 233 263 231 266 q 245 253 234 260 q 273 222 257 245 q 304 170 290 200 q 329 107 318 141 q 345 40 340 73 q 349 18 347 28 q 354 7 351 9 q 359 1 356 -3 q 374 32 363 5 q 407 114 385 59 q 467 259 429 168 q 509 346 497 325 q 519 349 521 368 q 506 313 519 347 q 474 229 493 278 q 456 182 465 207 q 438 136 446 158 q 422 97 429 115 q 411 71 415 80 q 376 -11 392 7 q 332 -31 359 -30 q 311 -32 319 -35 q 293 -26 302 -30 q 226 47 259 -7 q 177 161 193 101 q 171 181 174 174 q 167 191 168 188 q 160 179 165 191 q 148 148 155 167 q 135 105 142 128 q 120 61 127 82 q 113 43 116 52 q 106 26 109 33 l 101 10 q 77 0 94 3 q 54 3 61 -3 q 5 128 17 42 q -4 319 -7 215 q 10 525 -2 422 q 33 701 23 628 q 49 801 43 766 q 62 855 56 837 q 76 878 68 873 q 95 884 83 884 q 115 884 102 885 q 140 878 127 882 q 164 871 153 875 q 181 863 175 866 q 186 853 184 859 q 191 842 188 847 q 190 819 191 837 q 187 780 189 802 q 181 734 184 757 q 174 696 177 712 m 264 370 q 253 359 260 368 q 240 339 247 349 q 229 319 234 328 q 224 307 224 309 q 231 311 224 304 q 245 330 238 318 q 257 351 252 339 q 264 370 262 363 z "},"l":{"ha":288,"x_min":-5,"x_max":347,"o":"m 2 384 q 13 499 5 432 q 37 632 21 566 q 82 754 54 698 q 155 842 111 811 q 197 850 177 858 q 227 819 217 842 q 228 740 233 783 q 214 651 224 696 q 191 563 205 606 q 160 484 177 519 q 156 479 156 476 q 156 479 156 483 q 141 336 148 417 q 133 184 135 255 q 130 62 130 113 q 134 9 130 10 q 165 27 142 2 q 210 90 188 52 q 232 135 217 106 q 263 198 247 163 q 293 268 280 233 q 316 333 307 304 q 325 358 321 351 q 331 366 328 365 q 336 365 333 368 q 342 361 339 363 q 332 314 347 356 q 295 220 318 273 q 249 119 273 168 q 214 49 226 69 q 176 0 193 17 q 146 -24 160 -17 q 119 -30 132 -31 q 94 -23 106 -28 q 48 13 68 -12 q 15 85 28 38 q -2 204 2 132 q 2 384 -5 276 m 203 814 q 193 780 200 813 q 178 705 186 748 q 166 618 170 661 q 163 549 161 575 q 161 545 163 545 q 165 552 160 545 q 189 644 181 604 q 201 715 198 684 q 204 770 205 747 q 203 814 203 793 z "},"m":{"ha":675,"x_min":-2,"x_max":727,"o":"m 354 257 q 390 306 366 278 q 438 358 413 335 q 459 372 450 368 q 484 375 469 375 q 529 367 503 375 q 563 345 554 359 q 571 306 573 330 q 566 248 569 283 q 557 177 563 219 q 549 95 552 135 q 545 27 545 56 q 552 -2 545 -2 q 570 17 559 -2 q 596 68 582 36 q 627 136 611 99 q 656 211 642 174 q 681 280 670 248 q 698 332 693 313 q 717 360 707 366 q 719 328 727 354 q 703 276 714 311 q 679 200 693 241 q 648 115 665 158 q 611 36 630 71 q 571 -17 592 2 q 530 -31 550 -36 q 418 69 434 -7 q 416 207 408 135 q 451 340 424 280 q 438 328 448 337 q 410 297 427 319 q 386 258 399 283 q 359 201 373 233 q 333 136 345 170 q 314 73 321 102 q 301 49 309 56 q 280 38 293 43 q 250 40 262 35 q 231 75 238 45 q 219 211 217 134 q 248 361 220 288 q 241 354 248 365 q 222 324 234 344 q 195 279 210 304 q 165 226 181 253 q 144 171 151 196 q 128 106 137 146 q 120 59 122 80 q 116 24 118 38 q 103 3 113 7 q 76 0 94 -2 q 45 10 57 2 q 27 33 33 19 q 17 63 21 47 q 10 95 14 80 q 2 164 5 120 q -2 256 -2 208 q 2 346 -2 304 q 14 408 5 389 q 41 435 21 427 q 85 443 61 443 q 133 437 109 443 q 153 417 156 431 q 146 336 149 384 q 146 240 142 288 q 156 260 151 248 q 172 289 161 271 q 199 332 182 307 q 240 392 215 358 q 272 427 259 420 q 300 434 285 434 q 359 406 340 434 q 365 391 363 398 q 365 361 366 384 q 361 305 365 335 q 354 257 358 274 z "},"n":{"ha":495,"x_min":-9,"x_max":523,"o":"m 144 413 q 133 316 139 372 q 132 224 127 260 l 134 226 q 159 284 144 253 q 189 341 174 314 q 219 389 205 368 q 240 418 233 410 q 264 437 253 432 q 290 441 274 441 q 333 432 311 441 q 365 405 356 424 q 374 357 377 385 q 368 285 372 328 q 359 201 365 250 q 352 107 354 151 q 350 30 349 63 q 358 -2 351 -2 q 385 26 368 -2 q 418 94 401 54 q 451 179 436 134 q 477 255 467 224 q 508 332 493 306 q 521 345 523 359 q 515 313 521 342 q 493 243 509 283 q 468 162 483 210 q 434 71 453 115 q 391 -3 415 28 q 342 -33 368 -35 q 261 10 292 -30 q 222 89 231 49 q 217 135 219 109 q 217 188 215 161 q 221 242 219 215 q 227 292 224 269 q 240 357 233 325 q 257 405 248 389 q 265 411 267 420 q 259 401 262 401 q 238 380 250 398 q 211 338 226 363 q 181 282 196 313 q 155 222 167 252 q 135 170 142 194 q 118 106 127 146 q 111 59 113 80 q 108 24 109 38 q 95 3 104 7 q 69 0 85 -2 q 22 34 35 3 q 2 95 9 64 q -6 164 -3 120 q -8 255 -9 208 q -3 345 -7 302 q 9 406 2 387 q 35 433 16 425 q 78 441 54 441 q 124 434 102 441 q 144 413 146 427 z "},"o":{"ha":406,"x_min":-21,"x_max":434,"o":"m -19 168 q -10 278 -21 226 q 23 369 2 330 q 72 431 43 408 q 134 455 101 455 q 150 451 139 455 q 174 441 161 448 q 195 425 186 434 q 205 405 205 417 q 200 394 205 403 q 194 384 194 385 q 205 397 198 392 q 220 401 212 401 q 275 352 253 401 q 292 236 297 302 q 336 254 314 241 q 376 285 358 267 q 408 322 394 302 q 432 358 422 342 q 434 352 434 359 q 418 308 434 332 q 381 265 403 285 q 334 232 359 245 q 290 217 309 219 q 289 219 286 217 q 292 219 292 220 q 283 153 292 194 q 256 70 274 111 q 207 -1 238 30 q 132 -31 177 -31 q 22 27 61 -31 q -19 168 -17 85 m 191 358 q 184 325 184 345 q 207 261 186 290 q 252 233 227 233 l 257 233 l 264 233 q 257 339 271 304 q 227 378 243 375 q 191 358 203 384 m 141 319 q 122 270 130 299 q 107 211 113 241 q 98 152 101 181 q 95 101 95 123 q 111 23 97 56 q 149 -10 125 -9 q 187 9 167 -12 q 224 62 207 30 q 253 135 241 94 q 264 214 264 175 q 251 214 264 215 q 220 220 238 214 q 181 244 201 227 q 149 297 161 260 l 148 319 l 141 319 z "},"p":{"ha":476,"x_min":-33,"x_max":512,"o":"m -7 -436 q -12 -430 -10 -432 q -16 -420 -14 -427 q -21 -399 -19 -413 q -24 -359 -23 -385 q -32 -145 -33 -248 q -26 45 -31 -42 q -16 197 -21 132 q -9 299 -10 262 q -3 371 -7 335 q 5 415 2 406 q 24 432 10 425 q 54 443 38 439 q 94 439 76 444 q 116 427 111 434 q 126 396 122 420 q 131 343 130 372 q 129 290 132 314 q 120 259 127 266 l 118 257 q 159 352 139 316 q 197 408 179 389 q 233 434 215 427 q 264 441 250 441 q 311 419 292 441 q 342 367 330 398 q 359 304 354 337 q 365 250 365 271 l 365 243 q 417 268 392 250 q 461 306 441 286 q 494 342 481 325 q 512 365 507 359 q 492 325 507 347 q 458 281 477 302 q 415 242 439 260 q 365 215 391 224 q 338 98 363 146 q 276 24 313 50 q 200 -6 240 -2 q 127 9 160 -10 l 111 17 q 104 -117 108 -40 q 97 -266 101 -194 q 89 -392 94 -339 q 76 -453 83 -446 q 32 -463 61 -470 q -7 -436 3 -455 m 149 89 q 133 67 141 78 q 123 46 125 56 q 128 31 122 36 q 153 31 134 26 q 207 69 179 38 q 245 155 236 99 q 233 151 245 158 q 205 133 220 144 q 173 109 189 122 q 149 89 156 95 m 115 82 q 178 141 148 122 q 243 182 208 161 q 253 222 250 188 q 255 298 257 257 q 249 372 253 339 q 238 406 245 406 q 207 387 222 408 q 178 339 191 366 q 155 284 165 313 q 139 241 144 255 q 130 221 134 229 q 125 203 127 214 q 122 179 123 193 q 120 142 122 165 l 115 82 z "},"q":{"ha":415,"x_min":-66,"x_max":451,"o":"m 146 -245 q 150 -89 148 -155 q 157 27 153 -23 q 165 113 161 76 q 172 184 168 149 q 167 167 168 170 q 165 160 165 161 q 127 76 142 108 q 100 29 111 45 q 77 6 89 12 q 52 0 66 0 q 1 14 23 0 q -36 52 -21 28 q -59 109 -52 76 q -66 177 -66 141 q -47 273 -66 226 q 3 358 -28 319 q 70 419 33 396 q 148 443 108 443 q 185 435 172 443 q 203 418 198 427 q 220 448 212 443 q 247 453 229 453 q 303 438 280 453 q 325 398 326 424 q 318 339 323 382 q 306 235 313 295 q 293 106 300 175 q 280 -30 286 36 q 271 -155 274 -97 q 269 -250 267 -214 q 299 -201 276 -240 q 347 -112 321 -161 q 398 -11 373 -62 q 434 75 422 40 l 450 75 q 443 50 451 73 q 422 -1 434 28 q 397 -56 410 -30 q 378 -95 384 -83 q 355 -142 368 -116 q 328 -193 342 -168 q 301 -237 314 -217 q 281 -267 288 -257 q 337 -325 323 -302 q 356 -366 351 -347 q 354 -405 359 -384 q 337 -444 349 -425 q 307 -474 325 -462 q 267 -484 290 -486 q 177 -411 210 -481 q 146 -245 144 -342 m 198 398 q 185 410 194 406 q 158 403 175 413 q 102 326 125 382 q 66 215 78 271 q 60 179 64 205 q 53 123 56 153 q 50 68 50 94 q 59 31 50 42 q 80 41 66 23 q 110 93 94 59 q 145 171 127 127 q 179 259 163 215 l 198 398 m 267 -290 q 269 -381 267 -347 q 273 -432 271 -415 q 280 -454 276 -450 q 286 -458 283 -458 q 320 -422 302 -450 q 333 -370 339 -394 q 317 -332 330 -351 q 267 -290 304 -314 z "},"r":{"ha":389,"x_min":-56,"x_max":439,"o":"m 85 352 q 69 348 76 349 q 52 347 63 347 q -28 378 0 347 q -54 457 -56 408 q -42 518 -52 493 q -16 558 -31 543 q 17 580 0 573 q 50 587 35 587 q 86 569 76 587 q 94 524 95 550 q 86 477 94 503 q 69 428 78 451 q 54 388 61 405 q 47 373 47 372 q 57 368 47 368 q 91 376 75 368 q 124 392 108 384 q 155 409 141 401 q 186 417 170 417 q 235 403 217 417 q 253 370 253 389 q 247 316 253 363 q 232 209 240 269 q 218 88 224 149 q 212 -10 212 26 q 217 -42 212 -42 q 243 -26 227 -42 q 282 32 259 -10 q 338 150 306 75 q 415 345 370 226 q 432 365 422 365 q 439 363 439 365 q 438 359 439 363 q 431 342 436 354 q 418 306 425 330 q 398 243 410 283 q 293 7 339 78 q 205 -64 248 -64 q 152 -43 175 -64 q 111 13 128 -21 q 85 88 94 47 q 76 168 76 128 q 85 266 76 212 q 106 358 94 319 l 99 358 q 92 356 95 358 q 85 352 89 354 m 63 542 q 52 518 59 540 q 40 471 45 497 q 33 425 35 446 q 36 406 31 405 q 45 419 38 406 q 57 451 52 432 q 66 493 63 470 q 66 536 69 516 q 64 542 64 542 q 63 542 64 542 z "},"s":{"ha":293,"x_min":-14,"x_max":330,"o":"m 205 28 q 164 -28 196 -2 q 99 -64 132 -54 q 52 -76 78 -73 q 12 -66 26 -78 q -3 -49 2 -59 q -7 -25 -9 -40 q 6 12 -5 -10 q 43 69 17 35 q 68 100 56 87 q 83 116 80 113 q 90 128 90 122 q 80 145 90 132 q 52 175 69 158 q 15 227 26 208 q -2 276 3 247 q 9 371 -14 319 q 71 451 31 422 q 108 464 89 464 q 119 459 113 460 q 128 455 125 458 q 167 430 146 446 q 181 387 188 413 l 158 365 q 136 330 142 349 q 129 293 130 311 q 130 259 128 274 q 134 234 132 243 q 141 203 135 219 q 153 189 148 188 q 195 214 172 196 q 242 255 219 233 q 286 301 266 278 q 316 342 306 325 q 326 352 323 351 q 323 332 330 354 q 271 260 314 307 q 165 170 227 214 l 184 148 q 211 82 208 111 q 205 28 214 54 m 12 -28 q 18 -47 12 -42 q 36 -43 24 -52 q 97 45 68 -21 q 101 57 99 49 q 103 75 102 66 q 104 91 104 83 q 101 99 104 99 q 85 89 97 97 q 59 61 73 80 q 26 9 40 33 q 12 -28 12 -16 z "},"t":{"ha":292,"x_min":-75,"x_max":467,"o":"m 0 380 q 14 540 3 455 q 38 686 24 625 q 3 688 23 686 q -30 689 -12 689 q -66 689 -49 689 q -74 701 -73 689 q -68 712 -75 712 q -39 712 -57 712 q -2 712 -21 712 q 32 712 17 712 q 47 714 47 712 l 49 717 q 54 738 50 722 q 76 809 68 788 q 94 842 85 830 q 118 854 108 854 q 149 847 128 854 q 180 833 170 842 q 192 810 189 825 q 193 772 194 795 q 191 714 191 748 q 243 715 214 715 q 303 715 273 715 q 359 715 333 715 q 396 715 384 715 q 431 715 424 715 q 448 712 439 715 q 465 701 464 708 q 453 693 467 693 q 399 693 434 693 q 326 692 365 693 q 249 689 286 691 q 188 686 212 688 q 186 674 188 684 q 180 637 184 663 q 169 565 175 611 q 155 450 163 519 q 140 309 148 385 q 125 166 132 233 q 115 53 118 99 q 116 5 113 7 q 148 23 125 -2 q 193 87 172 49 q 220 138 205 108 q 251 202 236 168 q 280 270 266 236 q 304 333 293 304 q 318 365 311 366 q 330 361 325 365 q 319 314 335 356 q 280 220 304 273 q 233 116 257 167 q 196 45 208 66 q 78 -23 134 -57 q 38 13 56 -7 q 10 76 21 33 q -3 190 0 118 q 0 380 -7 262 z "},"u":{"ha":516,"x_min":-17,"x_max":547,"o":"m 106 28 q 126 34 115 24 q 148 59 137 43 q 169 92 160 75 q 182 118 179 109 q 209 188 200 158 q 222 247 219 217 q 242 344 229 297 q 271 408 255 391 q 294 420 280 417 q 325 423 309 424 q 353 417 340 422 q 375 403 366 411 q 386 388 382 394 q 387 358 391 382 q 372 207 378 280 q 363 50 366 134 q 365 0 361 10 q 375 -4 368 -10 q 391 19 382 2 q 410 54 401 36 q 427 86 417 64 q 446 130 438 108 q 470 183 457 151 q 498 246 484 215 q 522 299 512 276 q 531 323 531 321 q 536 332 531 330 q 543 332 540 335 q 546 329 545 330 q 545 323 547 328 q 539 306 543 318 q 528 273 535 295 q 507 220 521 253 q 479 152 493 186 q 452 89 465 118 q 434 47 439 59 q 405 0 422 23 q 377 -28 389 -23 q 314 -31 347 -43 q 253 27 278 -17 q 222 135 227 71 l 220 167 l 226 165 q 187 78 201 108 q 158 33 172 49 q 109 1 135 9 q 54 2 82 -7 q 17 26 38 7 q -9 69 -3 45 q -15 100 -12 85 q -17 155 -17 115 q -15 214 -17 184 q -9 273 -12 243 q -3 328 -5 297 q 3 380 0 359 q 16 436 12 434 q 59 434 26 443 q 115 392 92 424 q 132 292 139 361 q 119 209 128 253 q 102 127 109 165 q 94 61 95 89 q 106 28 92 33 z "},"v":{"ha":432,"x_min":-2,"x_max":467,"o":"m 50 54 q 28 93 36 71 q 10 165 19 115 q 1 243 3 205 q 2 332 -2 281 q 6 367 3 347 q 16 404 9 387 q 39 431 24 420 q 80 441 54 443 q 128 427 106 441 q 149 398 151 413 q 136 197 135 288 q 156 50 137 106 q 178 70 160 47 q 210 123 196 94 q 224 154 215 134 q 240 193 233 174 q 252 229 247 212 q 257 252 257 247 q 247 273 257 253 q 234 305 240 285 q 226 345 227 325 q 227 386 224 366 q 241 420 231 406 q 271 441 255 438 q 277 440 274 441 q 283 439 280 439 q 293 321 309 434 l 286 269 l 293 259 q 338 234 316 234 q 379 245 359 233 q 415 279 399 257 q 441 321 431 300 q 454 331 446 332 q 465 330 462 330 q 463 319 467 330 q 449 294 458 309 q 425 264 439 280 q 396 236 411 248 q 339 218 366 214 q 276 236 311 222 q 271 220 276 233 q 260 189 266 208 q 207 49 238 101 q 148 2 177 -2 q 135 1 144 2 q 116 3 125 0 q 50 54 78 14 m 273 417 q 267 393 269 410 q 266 360 266 377 q 269 332 267 344 q 274 319 271 319 q 278 333 276 326 q 280 349 280 340 q 281 368 280 358 q 278 422 285 429 q 273 417 274 422 z "},"w":{"ha":561,"x_min":-19,"x_max":604,"o":"m 123 276 q 113 187 118 234 q 109 94 108 139 l 111 43 q 141 96 127 61 q 181 188 156 132 q 191 216 188 205 q 196 236 194 227 q 199 255 198 245 q 201 280 200 266 q 214 360 205 337 q 241 387 222 384 q 275 385 255 391 q 306 370 295 378 q 316 356 313 363 q 321 328 319 349 q 323 268 321 316 q 326 165 325 220 q 330 79 328 120 q 340 -5 332 38 q 350 3 342 -9 q 366 34 358 16 q 384 74 375 52 q 398 113 392 95 q 412 178 405 139 q 424 252 420 217 q 427 280 427 276 q 418 292 427 285 q 399 324 410 302 q 382 366 389 345 q 380 420 373 399 q 406 441 387 441 q 450 339 443 441 q 451 306 450 314 q 457 292 451 297 q 512 281 477 271 q 575 337 547 292 q 582 345 576 340 q 592 353 587 351 q 601 355 597 356 q 601 344 604 354 q 590 328 597 339 q 575 307 583 318 q 556 288 566 297 q 542 278 547 280 q 498 263 523 267 q 444 273 474 259 q 439 253 446 273 q 435 201 439 233 q 424 137 431 170 q 410 73 418 104 q 392 21 401 42 q 368 -22 378 -10 q 339 -33 358 -33 q 307 -26 325 -33 q 279 -4 293 -21 q 251 34 264 12 q 228 81 238 56 q 214 128 219 106 q 207 156 210 142 q 203 179 203 170 q 197 178 201 188 q 174 113 193 168 q 151 50 161 78 q 137 17 141 23 q 120 1 130 3 q 90 2 109 -2 q 42 30 63 5 q 7 92 21 56 q -13 169 -7 128 q -16 247 -19 210 q 3 340 -12 299 q 36 396 17 382 q 60 405 43 403 q 94 404 76 406 q 126 394 111 401 q 148 377 141 387 q 144 354 153 368 q 134 320 137 335 q 123 276 130 306 m 418 408 q 421 385 418 399 q 427 354 424 370 q 434 327 431 339 q 439 316 438 316 l 439 330 q 438 345 439 337 q 434 365 436 354 q 420 415 424 422 q 418 408 418 415 z "},"x":{"ha":429,"x_min":-82,"x_max":460,"o":"m -17 392 q -11 411 -23 399 q 16 433 0 424 q 49 448 33 443 q 73 448 66 453 q 102 417 89 436 q 125 378 115 398 q 141 345 135 359 q 148 330 148 332 l 144 319 q 192 382 163 345 q 240 450 220 418 q 280 453 252 472 q 321 411 302 438 q 326 365 340 384 q 286 313 318 349 q 212 238 255 276 q 241 168 217 214 q 300 66 266 122 q 325 30 319 33 q 345 63 330 28 q 372 130 358 87 q 411 236 387 174 q 449 324 438 302 q 460 326 460 345 q 448 290 460 325 q 420 207 436 255 q 390 124 403 161 q 372 68 377 87 q 349 15 359 28 q 311 0 339 2 q 291 -1 300 -3 q 273 5 281 2 q 137 156 210 43 q 95 109 118 134 q 63 73 71 83 q 15 22 33 38 q -17 -1 -3 5 q -43 -4 -31 -7 q -68 3 -54 -2 q -79 10 -82 9 q -71 17 -76 12 q -5 103 -42 47 q 82 236 31 160 q 26 326 50 288 q -17 392 2 363 z "},"y":{"ha":505,"x_min":-2,"x_max":556,"o":"m 248 377 q 252 427 245 413 q 273 446 259 441 q 300 451 283 450 q 335 447 318 451 q 366 435 352 443 q 384 415 380 427 q 389 375 387 401 q 391 315 391 349 q 390 243 391 281 q 389 168 389 205 l 389 167 l 418 201 q 512 310 479 271 q 554 349 545 349 q 556 345 556 349 q 542 331 554 345 q 512 293 530 316 q 474 243 495 271 q 432 189 453 215 l 389 132 l 384 73 q 339 -171 373 -66 q 257 -347 304 -276 q 157 -452 210 -418 q 56 -481 104 -486 q 22 -452 31 -477 q 17 -399 12 -427 q 31 -345 21 -373 q 60 -281 42 -316 q 106 -203 78 -247 q 174 -104 134 -160 q 202 -61 191 -78 q 221 -32 214 -43 q 233 -14 229 -21 q 238 0 236 -7 q 239 49 236 9 q 243 137 241 90 q 244 173 243 156 q 245 203 245 189 q 217 128 233 165 q 182 63 201 92 q 143 17 163 35 q 102 0 123 0 q 28 43 57 0 q -2 198 -2 85 q -2 215 -2 210 q -2 226 -2 220 q -1 240 -2 231 q 2 269 0 248 l 10 434 q 26 440 23 441 q 35 441 30 439 q 73 440 54 443 q 107 423 92 438 q 130 380 122 408 q 137 306 139 352 q 132 254 137 286 q 122 186 127 222 q 111 115 116 149 q 104 61 106 82 q 112 23 101 26 q 142 43 123 21 q 166 74 153 56 q 192 120 179 92 q 219 188 205 148 q 248 286 233 229 l 248 377 m 222 -78 q 215 -84 222 -76 q 197 -106 208 -92 q 173 -139 186 -120 q 148 -179 160 -158 q 65 -326 99 -262 q 36 -441 31 -389 q 48 -455 40 -450 q 59 -460 56 -460 q 98 -433 75 -460 q 146 -356 122 -406 q 191 -235 170 -306 q 222 -78 212 -165 z "},"z":{"ha":366,"x_min":-116,"x_max":411,"o":"m -108 -443 q -90 -346 -116 -415 q -21 -199 -64 -278 q 72 -43 23 -120 q 160 76 122 33 q 129 95 167 85 q 43 101 92 106 q -10 95 7 95 q -35 99 -28 95 q -12 122 -45 109 q 31 147 5 128 q 84 188 57 165 q 135 237 111 210 q 172 290 158 264 q 193 332 186 311 q 196 356 200 354 q 174 352 193 359 q 102 319 156 344 q 59 301 76 307 q 30 293 42 295 q 9 295 17 292 q -10 306 0 299 q -34 339 -26 316 q -43 368 -42 361 q -41 379 -43 375 q -30 387 -38 384 q 4 404 -23 394 q 63 421 31 413 q 125 435 95 429 q 170 441 155 441 q 217 427 194 441 q 252 392 240 413 q 254 340 266 370 q 203 266 243 311 q 144 207 184 241 q 68 149 104 174 q 69 143 64 144 q 106 142 75 142 q 148 137 130 142 q 189 123 167 132 q 208 142 193 127 q 241 181 224 158 q 336 280 302 245 q 385 332 370 316 q 405 350 401 349 q 410 349 408 351 q 403 336 411 347 q 380 311 394 325 q 279 198 319 248 q 215 122 238 148 l 208 108 q 238 58 229 90 q 246 -14 247 26 q 235 -98 245 -54 q 210 -186 226 -142 q 119 -370 174 -288 q -2 -474 64 -451 q -43 -483 -26 -483 q -78 -476 -59 -483 q -98 -461 -92 -472 q -108 -443 -104 -450 m 174 68 q 152 40 174 69 q 100 -36 130 10 q 37 -135 69 -82 q -16 -234 5 -189 q -32 -270 -23 -250 q -50 -310 -42 -290 q -66 -347 -59 -330 q -76 -375 -73 -365 q -86 -411 -83 -392 q -85 -431 -89 -431 q -85 -433 -82 -431 q -83 -432 -89 -436 q -12 -359 -57 -417 q 76 -227 33 -302 q 149 -73 120 -153 q 174 68 179 7 z "},"$":{"ha":387,"x_min":31,"x_max":342,"o":"m 233 877 q 313 795 290 828 q 340 722 337 762 q 341 701 342 708 q 337 679 340 693 q 274 582 323 620 q 242 562 260 571 q 210 549 224 552 q 201 544 201 545 q 201 535 200 543 q 201 504 201 512 q 196 495 200 497 q 189 498 191 493 q 187 508 188 502 q 184 521 186 514 l 184 538 l 156 538 q 115 541 130 538 q 87 550 101 543 q 42 600 52 568 q 50 668 31 632 q 60 682 54 674 q 72 699 66 691 q 84 713 78 707 q 92 719 90 719 q 93 715 95 719 q 82 700 90 712 q 63 667 66 677 q 59 637 59 656 q 63 609 59 618 q 78 585 66 599 q 172 561 116 545 l 182 564 l 179 620 q 178 682 179 644 q 177 752 177 720 l 177 826 l 148 856 q 102 911 115 889 q 90 965 90 934 q 91 984 90 979 q 97 1000 92 988 q 107 1013 101 1005 q 118 1026 113 1021 q 147 1045 127 1035 q 181 1059 167 1056 l 196 1061 l 198 1075 q 210 1097 203 1097 q 212 1080 212 1097 l 210 1061 l 220 1059 q 256 1043 238 1056 q 274 1021 274 1031 q 271 1016 274 1016 q 264 1026 267 1017 q 224 1049 252 1047 l 208 1049 q 207 1028 208 1047 q 203 981 207 1009 q 199 933 200 953 q 198 910 198 913 q 233 877 198 906 m 186 950 q 188 987 186 960 q 193 1031 189 1014 l 194 1042 l 186 1036 q 173 1020 179 1031 q 163 995 167 1009 q 175 939 160 969 q 184 931 182 924 q 186 938 186 932 q 186 950 186 944 m 233 597 q 260 717 281 646 q 241 755 253 736 q 201 804 229 774 l 193 813 l 194 722 q 196 651 196 686 q 198 602 196 616 l 200 573 l 208 578 q 219 587 212 582 q 233 597 226 592 z "},"":{"ha":340,"x_min":45,"x_max":283,"o":"m 201 1042 q 206 1036 205 1040 q 205 1012 207 1031 l 203 984 l 212 981 q 245 945 231 974 q 257 889 259 917 q 252 873 255 873 q 247 894 248 873 q 232 944 243 922 q 207 967 220 967 q 202 964 203 967 q 200 950 201 962 q 193 830 196 899 q 186 667 189 760 q 186 631 184 635 q 196 632 188 627 q 236 680 215 646 q 266 748 257 714 q 272 766 271 762 q 276 771 273 771 q 277 745 283 771 q 259 694 271 719 q 226 635 240 653 q 196 613 212 618 q 186 608 188 609 q 184 597 184 606 q 183 584 184 594 q 182 566 182 575 q 180 547 181 550 q 175 543 179 543 q 168 556 170 543 q 168 569 168 561 q 167 582 167 576 q 164 602 167 599 q 151 608 161 606 q 89 641 116 611 q 49 719 61 672 q 45 767 45 738 q 49 818 45 797 q 75 888 57 854 q 116 946 92 922 q 148 973 135 965 q 177 984 160 981 l 191 986 l 191 1012 q 194 1037 193 1031 q 200 1042 196 1043 l 201 1042 m 182 910 q 185 933 184 922 q 186 948 186 944 l 186 957 l 181 946 q 150 865 161 917 q 139 753 139 813 q 144 688 139 714 q 158 646 149 661 q 165 644 163 641 q 166 655 165 648 q 167 672 167 663 q 168 724 167 693 q 173 789 170 755 q 177 855 175 823 q 182 910 179 887 z "},"":{"ha":378,"x_min":-3,"x_max":332,"o":"m 288 604 q 262 567 274 580 q 231 545 250 554 q 194 536 214 538 q 178 537 186 536 q 167 538 170 538 q 155 543 163 540 q 139 552 148 547 q 80 612 104 571 q 47 708 56 653 l 43 734 l 36 733 q 12 729 30 733 q -2 729 0 729 q -3 733 -3 729 q 6 740 -2 736 q 36 747 14 743 l 45 748 l 47 766 q 47 782 47 773 q 49 800 47 792 l 52 819 l 26 818 q 3 819 3 818 q 5 825 2 823 q 23 830 9 826 q 52 834 49 833 q 57 844 56 835 q 70 878 61 854 q 89 918 80 903 q 151 1000 113 965 q 229 1043 189 1035 q 261 1045 241 1047 q 292 1040 281 1043 q 313 1024 304 1033 q 326 1007 323 1016 q 332 990 332 997 q 328 984 332 983 q 325 991 328 984 q 305 1016 321 1002 q 278 1030 288 1030 q 257 1022 269 1030 q 231 1002 245 1014 q 203 964 217 988 q 179 910 189 939 q 163 867 170 885 q 160 847 156 849 l 167 847 q 174 847 170 847 q 184 849 179 847 q 241 847 241 854 q 234 842 238 844 q 202 837 226 840 q 168 832 179 833 q 153 828 153 832 q 150 819 151 826 q 148 800 149 811 q 143 780 144 790 q 142 767 142 771 l 141 760 l 163 760 q 212 764 193 764 q 229 760 231 764 q 168 748 226 753 q 139 743 141 745 q 135 719 135 740 q 135 674 134 698 q 194 559 144 575 q 214 559 203 556 q 240 571 226 563 q 262 590 255 580 q 277 610 269 597 q 293 638 285 623 q 306 667 300 653 q 313 686 313 681 q 316 689 313 689 q 320 688 319 689 q 319 679 321 688 q 308 646 316 665 q 288 604 300 627 z "},"":{"ha":368,"x_min":50,"x_max":342,"o":"m 106 568 q 115 588 109 571 q 125 620 122 604 q 130 733 130 648 l 130 766 l 120 766 q 101 764 111 762 q 90 769 90 766 q 109 774 90 774 l 128 778 l 130 816 q 143 939 134 898 q 174 1010 153 981 q 201 1037 188 1030 q 234 1045 214 1045 q 279 1029 262 1045 q 295 983 295 1012 q 294 965 297 969 q 290 976 292 962 q 278 1010 286 995 q 260 1028 269 1026 q 227 986 238 1035 q 225 952 226 977 q 223 898 224 927 q 222 841 222 868 q 222 804 222 814 l 226 788 l 234 790 q 260 792 248 792 q 274 788 271 792 q 241 780 278 785 l 226 778 l 226 740 q 218 655 226 689 q 191 594 210 622 l 184 582 l 231 580 q 300 573 278 580 q 342 557 339 568 q 339 554 342 554 q 318 559 337 554 q 267 567 304 564 q 203 566 231 569 q 173 563 179 564 q 160 557 167 563 q 139 543 153 550 q 99 531 123 535 q 63 533 75 528 q 52 540 57 535 q 60 551 50 545 q 83 561 69 557 q 97 566 92 564 q 106 568 102 568 m 89 550 q 92 554 95 554 q 83 550 90 554 q 80 547 76 547 q 89 550 82 547 z "},"":{"ha":389,"x_min":61,"x_max":361,"o":"m 328 719 q 319 701 325 717 q 314 677 314 684 l 333 677 q 347 678 344 679 q 352 675 351 677 q 352 668 354 670 q 339 667 349 667 q 314 664 319 667 q 306 648 309 661 q 276 588 295 618 q 243 543 257 557 q 217 528 234 535 q 200 521 207 523 q 172 519 193 519 q 148 518 158 517 q 134 521 139 519 q 108 533 118 526 q 97 543 97 540 q 103 547 97 547 q 116 542 109 547 q 139 535 123 538 q 163 533 155 531 q 200 566 182 538 q 213 591 207 576 q 224 620 219 606 q 231 644 229 634 q 231 656 233 655 l 224 656 q 215 655 220 656 q 207 655 210 655 q 188 653 193 653 q 181 655 184 653 q 179 661 177 660 q 188 663 182 663 q 208 665 200 663 l 236 668 l 238 688 q 240 701 240 696 q 241 708 241 707 q 232 708 240 708 q 210 707 224 708 q 181 705 189 703 q 174 712 174 707 q 180 717 174 715 q 215 722 186 719 q 226 723 220 722 q 234 724 231 724 q 243 726 240 724 q 247 749 243 727 q 253 799 250 771 q 259 851 257 826 q 260 882 260 875 q 250 858 260 894 q 217 780 229 804 q 189 741 205 757 q 165 723 175 727 q 139 722 155 719 q 94 750 116 726 q 61 858 61 788 q 66 903 61 878 q 77 951 71 927 q 89 998 83 974 q 92 1043 94 1023 q 92 1049 92 1054 q 95 1042 92 1043 q 128 1010 118 1030 q 141 971 139 991 q 142 932 144 951 q 141 903 141 913 q 139 848 139 878 q 139 800 139 818 q 139 762 139 771 q 142 748 139 753 q 147 740 146 741 q 156 743 148 740 q 186 767 172 750 q 219 826 200 785 q 253 911 241 872 q 269 981 266 951 q 274 1016 273 1000 q 278 1036 276 1031 q 299 1038 283 1047 q 316 1014 311 1030 q 325 957 321 998 q 330 905 328 927 q 332 864 332 882 q 333 829 333 845 q 332 795 333 813 q 329 760 330 776 q 328 741 328 745 l 326 733 l 344 733 q 357 734 354 734 q 361 729 359 733 q 345 722 361 727 q 328 719 328 719 z "},"":{"ha":498,"x_min":61,"x_max":451,"o":"m 170 750 q 151 726 160 736 q 136 707 142 717 q 128 694 130 698 q 104 691 120 681 q 99 698 99 693 q 107 709 99 700 q 127 733 115 719 l 155 764 l 148 773 q 118 852 122 804 q 120 897 116 877 q 134 936 123 917 q 141 952 141 950 q 137 958 141 955 q 128 964 134 960 q 116 970 123 967 q 86 990 101 979 q 68 1005 71 1002 q 71 1017 61 1012 q 87 1022 80 1024 q 108 1007 94 1019 q 125 994 116 1002 q 141 983 134 986 l 155 972 l 174 984 q 250 1014 205 1009 q 308 1013 285 1017 q 352 995 332 1009 q 370 990 365 986 q 399 1026 375 993 q 418 1049 410 1040 q 427 1057 425 1057 q 438 1053 431 1057 q 444 1045 444 1049 q 435 1033 444 1043 q 411 1007 425 1023 l 378 974 l 385 965 q 401 939 394 957 q 411 905 408 922 q 391 799 422 851 l 385 788 l 405 773 q 423 757 413 766 q 438 745 432 748 q 451 731 451 736 q 450 727 450 729 q 442 720 450 724 q 431 717 434 717 q 420 726 429 717 q 399 745 411 734 l 372 773 l 365 766 q 286 729 328 736 q 188 741 231 717 q 176 747 181 745 q 170 750 172 750 m 196 891 q 197 828 191 858 q 217 780 203 799 q 252 753 231 760 q 293 755 273 745 q 329 789 313 764 q 352 844 345 814 q 359 886 359 861 q 356 927 359 911 q 283 998 337 993 l 276 998 q 257 990 267 998 q 220 945 238 976 q 196 891 201 915 z "},"@":{"ha":813,"x_min":24,"x_max":771,"o":"m 561 797 q 720 650 668 750 q 771 403 771 550 q 759 287 771 339 q 727 201 747 236 q 683 146 708 165 q 632 127 658 127 q 561 148 595 127 q 499 199 526 168 q 456 264 472 229 q 439 326 439 299 q 441 328 439 328 q 435 321 439 328 q 425 306 431 314 q 372 216 396 245 q 323 188 347 188 q 253 224 281 188 q 226 313 226 260 q 240 384 226 347 q 277 451 253 420 q 333 500 300 481 q 403 519 366 519 q 432 514 417 519 q 451 509 448 509 q 465 525 453 509 q 498 542 477 542 q 526 531 512 538 q 549 516 540 524 l 557 505 l 556 438 q 554 411 554 424 q 554 385 554 399 q 559 310 554 345 q 572 247 564 274 q 589 201 580 219 q 604 177 597 182 q 679 181 648 149 q 725 279 710 214 q 735 428 740 344 q 702 586 731 512 q 619 711 674 660 q 479 762 564 762 q 330 707 392 762 q 227 575 267 653 q 168 413 188 497 q 148 273 148 330 q 154 172 148 215 q 181 80 160 128 q 271 -31 212 9 q 396 -80 330 -71 q 524 -63 462 -89 q 627 21 587 -38 q 637 35 632 35 q 652 38 642 35 q 661 35 661 42 q 642 -4 661 19 q 592 -49 623 -28 q 520 -87 561 -71 q 436 -104 479 -102 q 266 -72 342 -108 q 137 24 191 -36 q 54 164 83 85 q 24 326 24 243 q 63 536 24 444 q 164 692 102 628 q 299 788 226 755 q 439 821 372 821 q 561 797 498 821 m 448 481 q 446 487 448 486 q 434 488 444 488 q 384 466 411 488 q 332 412 356 444 q 293 341 309 380 q 276 267 276 302 q 284 226 276 238 q 311 205 292 214 l 311 203 q 352 235 316 203 q 424 349 387 267 q 441 417 443 382 q 448 481 439 451 z "},"#":{"ha":557,"x_min":54,"x_max":486,"o":"m 318 708 q 239 709 262 708 q 212 705 215 710 q 209 688 208 700 q 208 656 210 675 q 202 600 205 618 q 195 576 200 582 q 188 570 191 569 q 179 571 184 571 q 155 585 161 571 q 144 658 148 599 l 141 703 l 99 703 q 64 704 69 703 q 57 708 59 705 q 82 720 57 717 q 130 722 108 722 l 142 722 l 142 755 q 144 792 142 769 q 146 833 146 814 l 146 878 l 125 877 q 103 876 116 877 q 80 875 90 875 q 59 876 63 875 q 54 880 56 877 q 66 891 54 889 q 128 898 78 894 l 148 899 q 152 971 149 944 q 157 1013 155 998 q 163 1033 160 1028 q 174 1038 167 1038 q 209 1032 196 1038 q 222 998 222 1026 q 221 981 222 990 q 220 960 220 972 l 220 903 l 250 903 q 277 904 264 903 q 299 905 290 905 l 318 906 l 319 941 q 325 1010 323 991 q 330 1031 326 1028 q 347 1035 333 1035 q 381 1025 365 1035 q 398 997 398 1016 l 396 906 l 425 905 q 475 900 464 901 q 486 896 486 899 q 473 891 486 892 q 444 887 460 889 q 414 885 429 885 q 394 885 399 884 q 393 871 394 885 q 391 836 392 856 q 391 795 391 816 q 391 759 391 774 l 391 741 l 391 727 l 429 727 q 467 727 458 727 q 476 722 476 726 q 455 714 476 714 q 406 712 434 715 l 389 710 l 389 663 q 382 596 389 613 q 356 580 375 580 q 328 604 337 580 q 319 700 319 628 l 318 708 m 210 726 q 273 727 250 727 q 318 727 295 727 l 318 887 q 240 883 259 884 q 219 880 220 882 q 218 862 219 882 q 215 816 217 842 q 212 764 214 790 q 210 726 210 738 z "},"%":{"ha":998,"x_min":130,"x_max":875,"o":"m 740 837 q 721 776 738 830 q 679 642 705 722 q 622 467 653 563 q 559 278 590 372 q 501 104 528 184 q 458 -23 474 24 q 395 -187 417 -128 q 361 -274 373 -247 q 343 -307 349 -302 q 325 -312 337 -312 q 305 -305 311 -312 q 299 -293 299 -297 q 301 -269 299 -286 q 313 -215 304 -252 q 331 -144 316 -198 q 368 -16 345 -90 q 418 148 391 59 q 470 329 444 238 q 520 504 497 420 q 561 655 543 589 q 582 732 571 693 q 603 802 594 771 q 620 856 613 833 q 628 884 627 878 q 636 893 634 891 q 643 898 639 896 q 655 900 648 899 q 674 905 661 901 q 740 849 740 889 l 740 837 m 285 811 q 416 791 370 835 q 458 637 462 747 q 446 555 457 595 q 414 482 436 514 q 359 431 392 450 q 278 411 325 411 q 229 423 255 411 q 181 455 203 434 q 145 507 160 476 q 130 578 130 538 q 140 648 130 613 q 165 714 149 684 q 183 739 170 724 q 213 767 196 753 q 248 793 229 781 q 285 811 267 806 m 396 516 q 423 599 413 552 q 430 688 432 646 q 411 758 427 729 q 365 786 396 786 q 324 760 344 786 q 290 697 304 734 q 267 620 276 660 q 259 552 259 580 q 273 486 259 512 q 306 453 286 460 q 351 461 326 446 q 396 516 375 476 m 698 200 q 829 180 783 224 q 872 26 875 135 q 859 -56 870 -16 q 827 -129 849 -97 q 772 -181 806 -161 q 691 -200 738 -200 q 642 -188 668 -200 q 595 -156 616 -177 q 558 -104 573 -135 q 543 -33 543 -73 q 553 37 543 2 q 578 102 563 73 q 596 128 583 113 q 626 156 609 142 q 661 182 642 170 q 698 200 681 194 m 809 -95 q 836 -12 826 -59 q 843 76 845 35 q 825 147 840 118 q 778 175 809 175 q 737 149 757 175 q 703 86 717 123 q 681 9 689 49 q 672 -59 672 -31 q 686 -125 672 -99 q 720 -158 700 -151 q 764 -150 740 -165 q 809 -95 788 -135 z "},"":{"ha":1354,"x_min":130,"x_max":1247,"o":"m 740 837 q 721 776 738 830 q 679 642 705 722 q 622 467 653 563 q 559 278 590 372 q 501 104 528 184 q 458 -23 474 24 q 395 -187 417 -128 q 361 -274 373 -247 q 343 -307 349 -302 q 325 -312 337 -312 q 305 -305 311 -312 q 299 -293 299 -297 q 301 -269 299 -286 q 313 -215 304 -252 q 331 -144 316 -198 q 368 -16 345 -90 q 418 148 391 59 q 470 329 444 238 q 520 504 497 420 q 561 655 543 589 q 582 732 571 693 q 603 802 594 771 q 620 856 613 833 q 628 884 627 878 q 636 893 634 891 q 643 898 639 896 q 655 900 648 899 q 674 905 661 901 q 740 849 740 889 l 740 837 m 285 811 q 416 791 370 835 q 458 637 462 747 q 446 555 457 595 q 414 482 436 514 q 359 431 392 450 q 278 411 325 411 q 229 423 255 411 q 181 455 203 434 q 145 507 160 476 q 130 578 130 538 q 140 648 130 613 q 165 714 149 684 q 183 739 170 724 q 213 767 196 753 q 248 793 229 781 q 285 811 267 806 m 396 516 q 423 599 413 552 q 430 688 432 646 q 411 758 427 729 q 365 786 396 786 q 324 760 344 786 q 290 697 304 734 q 267 620 276 660 q 259 552 259 580 q 273 486 259 512 q 306 453 286 460 q 351 461 326 446 q 396 516 375 476 m 698 200 q 829 180 783 224 q 872 26 875 135 q 859 -56 870 -16 q 827 -129 849 -97 q 772 -181 806 -161 q 691 -200 738 -200 q 642 -188 668 -200 q 595 -156 616 -177 q 558 -104 573 -135 q 543 -33 543 -73 q 553 37 543 2 q 578 102 563 73 q 596 128 583 113 q 626 156 609 142 q 661 182 642 170 q 698 200 681 194 m 809 -95 q 836 -12 826 -59 q 843 76 845 35 q 825 147 840 118 q 778 175 809 175 q 737 149 757 175 q 703 86 717 123 q 681 9 689 49 q 672 -59 672 -31 q 686 -125 672 -99 q 720 -158 700 -151 q 764 -150 740 -165 q 809 -95 788 -135 m 1069 200 q 1201 180 1155 224 q 1243 26 1247 135 q 1231 -56 1241 -16 q 1199 -129 1220 -97 q 1143 -181 1177 -161 q 1063 -200 1109 -200 q 1014 -188 1040 -200 q 966 -156 988 -177 q 930 -104 944 -135 q 915 -33 915 -73 q 924 37 915 2 q 950 102 934 73 q 968 128 955 113 q 997 156 981 142 q 1033 182 1014 170 q 1069 200 1052 194 m 1181 -95 q 1207 -12 1198 -59 q 1214 76 1217 35 q 1196 147 1212 118 q 1149 175 1181 175 q 1109 149 1128 175 q 1075 86 1089 123 q 1052 9 1061 49 q 1043 -59 1043 -31 q 1057 -125 1043 -99 q 1091 -158 1071 -151 q 1135 -150 1111 -165 q 1181 -95 1160 -135 z "},"/":{"ha":292,"x_min":-47,"x_max":394,"o":"m 394 837 q 376 776 392 830 q 333 642 359 722 q 276 467 307 563 q 214 278 245 372 q 155 104 182 184 q 113 -23 128 24 q 49 -187 71 -128 q 16 -274 28 -247 q -3 -307 3 -302 q -21 -312 -9 -312 q -41 -305 -35 -312 q -47 -293 -47 -297 q -44 -269 -47 -286 q -33 -215 -42 -252 q -15 -144 -30 -198 q 23 -16 0 -90 q 72 148 45 59 q 125 329 99 238 q 174 504 151 420 q 215 655 198 589 q 237 732 226 693 q 258 802 248 771 q 274 856 267 833 q 283 884 281 878 q 291 893 288 891 q 298 898 293 896 q 309 900 302 899 q 328 905 316 901 q 394 849 394 889 l 394 837 l 394 837 z "},"+":{"ha":351,"x_min":68,"x_max":311,"o":"m 163 16 q 153 42 156 23 q 148 99 149 61 l 148 118 l 111 118 q 82 118 89 118 q 71 122 75 118 q 69 130 68 125 q 83 138 73 135 q 118 142 94 141 q 138 143 130 142 q 148 144 146 144 q 148 152 148 146 q 149 167 149 158 q 152 211 149 188 q 158 243 155 234 q 189 257 163 257 q 218 245 212 257 q 226 189 224 233 l 227 146 l 247 144 l 283 144 q 306 139 302 144 q 306 127 311 132 q 250 120 295 116 l 227 122 l 227 113 q 226 94 227 106 q 222 69 224 82 q 218 44 220 56 q 214 30 215 33 q 192 11 208 16 q 163 16 175 7 z "},"-":{"ha":444,"x_min":141,"x_max":299,"o":"m 295 177 q 280 166 292 168 q 217 163 267 163 q 182 163 194 163 q 163 164 170 163 q 154 166 156 165 q 149 168 151 167 q 142 186 144 175 q 146 205 141 196 q 151 213 148 210 q 162 217 155 215 q 186 218 170 219 q 229 217 201 217 q 282 215 273 215 q 295 212 292 215 q 299 195 299 207 q 295 177 299 184 z "},"*":{"ha":403,"x_min":45,"x_max":370,"o":"m 276 899 q 326 937 311 931 q 344 931 340 943 q 352 922 351 927 q 352 915 352 917 q 332 898 345 913 q 297 863 319 884 q 245 816 245 816 q 260 800 245 813 q 299 769 274 788 q 341 734 326 747 q 363 715 356 722 q 370 705 370 708 q 368 698 370 701 q 347 696 359 686 q 330 706 344 696 q 298 728 316 715 q 261 753 280 741 q 234 767 243 764 l 234 689 l 236 627 l 231 613 q 204 605 219 604 q 179 618 189 606 q 169 639 172 628 q 165 688 167 649 q 161 727 161 707 q 161 750 161 747 q 151 736 158 743 q 140 722 146 729 q 127 710 134 715 q 87 673 94 681 q 71 672 80 665 q 57 705 52 689 q 73 727 59 712 q 104 759 87 741 q 139 791 122 776 q 165 813 156 806 q 153 826 168 813 q 97 875 137 840 q 67 901 78 892 q 50 913 56 910 q 45 918 45 917 q 50 924 45 920 q 68 927 56 931 q 113 905 80 924 q 130 891 122 898 q 148 877 139 884 q 165 861 156 870 q 163 877 163 870 q 161 891 161 884 q 161 906 161 899 q 177 991 161 972 q 199 998 182 1000 q 226 988 215 997 q 232 965 231 976 q 233 917 233 955 l 234 865 l 276 899 z "},"":{"ha":467,"x_min":172,"x_max":313,"o":"m 182 738 q 178 740 179 740 q 177 747 177 741 q 177 764 177 752 q 179 800 177 776 q 180 832 181 823 q 175 849 179 840 q 172 862 172 859 q 175 868 172 865 q 186 872 179 872 q 212 865 198 872 q 233 831 229 856 q 224 774 236 806 q 200 738 212 743 q 182 738 191 733 m 288 863 q 309 827 306 852 q 300 773 313 802 q 276 736 290 741 q 259 736 267 731 q 254 739 255 738 q 253 745 253 740 q 253 761 253 750 q 255 797 253 773 q 255 829 255 821 q 252 847 255 837 q 247 860 248 858 q 250 866 247 863 q 262 868 252 868 q 275 867 267 868 q 288 863 283 866 z "},"":{"ha":347,"x_min":144,"x_max":208,"o":"m 184 865 q 205 831 201 856 q 196 774 208 806 q 172 738 184 743 q 155 738 163 733 q 150 740 151 740 q 149 747 149 741 q 149 764 149 752 q 151 800 149 776 q 152 832 153 823 q 148 849 151 840 q 144 862 144 859 q 148 868 144 865 q 163 871 151 872 q 184 865 175 870 z "},"":{"ha":313,"x_min":59,"x_max":236,"o":"m 141 236 q 127 246 134 240 q 116 259 120 252 q 113 278 113 266 q 124 304 113 295 q 149 313 135 313 q 179 295 168 309 q 184 261 189 278 q 163 238 179 245 q 152 234 155 234 q 141 236 149 234 m 233 149 q 227 147 233 148 q 217 146 222 146 q 192 145 210 146 q 155 143 174 144 q 118 142 135 142 q 95 142 101 142 q 66 149 73 146 q 59 167 59 153 q 66 181 59 179 q 89 185 69 184 q 137 186 108 186 q 156 185 146 186 q 179 184 167 184 q 220 181 212 182 q 231 177 229 181 q 235 163 234 174 q 233 149 236 153 m 181 28 q 157 10 172 14 q 128 16 142 7 q 109 49 109 26 q 122 71 109 63 q 148 80 134 80 q 182 57 172 80 q 181 28 189 42 z "},"":{"ha":688,"x_min":269,"x_max":427,"o":"m 424 266 q 408 254 420 257 q 345 252 396 252 q 311 252 323 252 q 292 253 299 252 q 282 254 285 253 q 278 257 280 255 q 271 274 273 264 q 274 293 269 285 q 280 301 276 299 q 291 306 283 304 q 314 306 299 307 q 358 306 330 306 q 411 304 401 304 q 424 300 420 304 q 427 284 427 295 q 424 266 427 273 z "},"&":{"ha":599,"x_min":10,"x_max":623,"o":"m 184 -123 q 56 -58 102 -109 q 10 64 10 -7 q 49 202 10 130 q 158 352 87 274 l 172 366 l 161 420 q 156 467 158 444 q 155 510 155 490 q 171 636 155 571 q 218 757 188 701 q 293 850 248 813 q 392 891 337 887 q 488 848 457 894 q 519 700 519 802 q 507 622 519 663 q 469 534 495 582 q 401 429 443 486 q 300 302 359 372 l 276 274 q 325 207 297 240 q 377 148 352 174 q 418 108 401 123 q 439 92 436 92 q 463 120 450 92 q 490 182 476 148 q 519 274 503 222 q 535 252 535 274 q 525 187 535 220 q 504 126 516 153 q 484 81 493 99 q 474 61 474 63 q 497 35 474 54 q 549 -5 521 16 q 600 -43 576 -26 q 623 -61 623 -59 q 606 -77 623 -66 q 568 -89 589 -89 q 539 -71 559 -89 q 498 -34 519 -54 q 459 3 477 -14 q 436 21 441 21 q 319 -89 380 -52 q 214 -125 257 -125 q 203 -124 210 -125 q 184 -123 196 -123 m 424 818 q 410 852 424 845 q 376 852 396 858 q 336 835 356 847 q 304 811 316 823 q 254 748 276 785 q 217 671 233 712 q 193 590 201 630 q 184 519 184 550 q 187 433 184 465 q 196 401 189 401 q 222 424 205 401 q 292 526 255 469 q 357 640 328 583 q 405 744 385 696 q 424 818 424 792 m 153 75 q 136 -10 139 30 q 149 -72 134 -50 q 201 -94 165 -94 q 300 -59 238 -94 q 341 -33 321 -49 q 377 -2 361 -17 q 402 29 392 14 q 411 54 411 43 q 292 188 333 137 q 253 238 250 238 q 235 223 247 238 q 209 185 224 208 q 180 132 194 161 q 153 75 165 102 z "},"_":{"ha":736,"x_min":78,"x_max":661,"o":"m 658 -10 q 651 -18 655 -16 q 637 -22 648 -21 q 608 -23 627 -23 q 556 -24 589 -24 q 495 -24 536 -24 q 403 -25 453 -24 q 298 -26 352 -26 q 198 -26 243 -26 q 122 -26 153 -26 q 90 -24 92 -26 q 81 -4 83 -17 q 85 17 78 9 q 117 23 87 21 q 194 27 148 26 q 296 29 240 28 q 405 30 352 30 q 503 30 458 31 q 573 30 549 30 q 641 28 628 28 q 658 24 655 28 q 661 8 661 19 q 658 -10 661 -3 z "},"(":{"ha":469,"x_min":132,"x_max":582,"o":"m 283 -444 q 191 -254 226 -368 q 144 -8 156 -141 q 142 267 132 125 q 189 543 153 410 q 259 729 217 641 q 359 898 300 818 q 484 1031 427 984 q 573 1069 542 1078 q 581 1057 582 1063 q 563 1042 580 1052 q 537 1015 554 1035 q 503 970 521 995 q 467 920 484 944 q 441 878 450 896 q 408 805 425 849 q 374 710 391 760 q 343 609 358 660 q 319 517 328 559 q 267 71 273 288 q 286 -187 269 -78 q 339 -373 302 -295 q 359 -417 347 -394 q 385 -459 372 -439 q 412 -495 399 -479 q 436 -517 425 -510 q 446 -552 467 -540 q 392 -540 431 -559 q 328 -492 354 -516 q 283 -444 302 -469 z "},")":{"ha":514,"x_min":-54,"x_max":396,"o":"m 245 955 q 337 765 302 878 q 384 518 372 651 q 385 243 396 385 q 339 -33 375 101 q 269 -219 311 -130 q 168 -387 227 -307 q 43 -521 101 -474 q -45 -559 -14 -568 q -53 -547 -54 -552 q -35 -531 -52 -542 q -10 -504 -28 -524 q 25 -459 7 -484 q 61 -410 43 -434 q 87 -368 78 -385 q 120 -294 102 -339 q 154 -200 137 -250 q 185 -99 170 -149 q 208 -7 200 -49 q 260 439 255 222 q 242 697 259 589 q 189 884 226 806 q 168 927 181 905 q 142 970 156 950 q 115 1005 128 990 q 92 1028 102 1021 q 82 1063 61 1050 q 135 1050 97 1069 q 200 1003 174 1026 q 245 955 226 979 z "},",":{"ha":316,"x_min":111,"x_max":212,"o":"m 135 -14 q 147 -3 142 -9 q 155 7 151 3 q 155 19 158 16 q 127 78 111 42 q 155 101 137 97 q 191 90 174 104 q 212 50 212 78 q 163 -26 212 -2 q 140 -36 146 -35 q 128 -33 134 -36 l 123 -28 l 135 -14 l 135 -14 z "},".":{"ha":281,"x_min":87,"x_max":186,"o":"m 101 36 q 115 90 87 68 q 124 97 122 95 q 141 97 127 99 q 155 95 149 97 q 165 89 160 92 q 181 64 177 80 q 181 33 186 49 q 160 12 175 19 q 123 12 141 3 q 110 22 115 17 q 101 36 106 26 z "},";":{"ha":316,"x_min":99,"x_max":201,"o":"m 139 259 q 125 268 130 264 q 116 283 120 273 q 130 337 102 313 q 146 344 137 344 l 155 344 q 181 335 172 342 q 197 311 193 326 q 196 280 201 295 q 175 259 191 266 q 139 259 156 248 m 123 -14 q 135 -3 130 -9 q 142 7 139 3 q 142 19 146 16 q 115 78 99 42 q 153 101 127 101 q 179 90 168 101 q 200 50 200 78 q 151 -26 200 -2 q 128 -36 134 -35 q 116 -33 122 -36 l 111 -28 l 123 -14 z "},":":{"ha":253,"x_min":49,"x_max":155,"o":"m 134 335 q 151 311 148 326 q 149 280 155 295 q 130 259 144 266 q 94 259 111 248 q 80 268 85 264 q 69 283 75 273 q 83 337 56 313 q 99 344 92 344 l 109 344 q 134 335 125 342 m 127 89 q 143 64 139 80 q 142 33 148 49 q 122 12 137 19 q 85 12 102 3 q 72 22 76 17 q 63 36 68 26 q 76 90 49 68 q 92 97 85 97 l 102 97 q 116 95 111 97 q 127 89 122 92 z "},"?":{"ha":865,"x_min":69,"x_max":788,"o":"m 665 500 q 584 404 615 443 q 535 337 554 365 q 504 288 516 309 q 481 247 493 267 q 449 168 462 208 q 427 88 436 127 q 413 15 418 49 q 406 -42 408 -19 q 395 -89 401 -75 q 372 -104 389 -104 q 327 -59 330 -104 q 325 82 325 -14 q 332 193 325 142 q 360 295 340 243 q 414 406 380 347 q 498 543 448 465 q 580 694 545 615 q 621 842 615 774 q 597 957 627 910 q 486 1009 568 1003 q 352 988 415 1012 q 241 921 290 964 q 161 823 193 878 q 121 712 130 767 q 126 605 111 656 q 186 519 141 554 q 205 497 201 505 q 208 484 208 490 q 196 479 208 479 q 151 494 174 479 q 110 535 128 509 q 81 594 92 561 q 69 663 69 627 q 102 796 69 727 q 193 920 135 865 q 327 1011 250 976 q 493 1047 405 1047 l 533 1047 q 690 993 630 1047 q 769 859 750 939 q 763 681 788 778 q 665 500 738 585 m 394 -160 q 411 -184 408 -168 q 410 -215 415 -200 q 391 -236 405 -229 q 354 -236 372 -247 q 340 -227 345 -231 q 330 -212 335 -222 q 344 -158 316 -182 q 359 -151 352 -151 l 370 -151 q 394 -160 385 -153 z "},"!":{"ha":457,"x_min":174,"x_max":361,"o":"m 262 1045 q 330 1016 313 1042 q 356 951 347 991 q 359 919 358 941 q 361 870 361 898 q 359 810 361 842 q 356 748 358 778 q 347 662 352 715 q 339 569 342 609 q 332 518 335 549 q 325 454 328 488 q 318 385 321 420 q 311 321 314 351 q 302 257 306 292 q 295 188 299 222 q 288 120 292 153 q 281 63 285 87 q 270 -24 274 14 q 266 -69 266 -62 q 257 -90 259 -83 q 234 -97 255 -97 q 210 -87 219 -97 q 198 -64 201 -76 q 196 -39 198 -62 q 194 19 194 -16 q 191 95 193 54 q 188 172 189 135 q 185 235 186 208 q 184 271 184 262 q 183 332 184 292 q 181 424 182 372 q 177 533 179 476 q 174 644 175 590 q 174 745 174 698 q 177 821 175 792 q 185 924 181 884 q 196 988 189 964 q 212 1023 203 1012 q 234 1040 220 1035 q 239 1043 240 1042 q 236 1044 238 1043 q 235 1045 234 1045 q 241 1045 236 1045 l 262 1045 m 255 -160 q 273 -184 269 -168 q 271 -215 276 -200 q 252 -236 266 -229 q 215 -236 233 -247 q 201 -227 207 -231 q 191 -212 196 -222 q 205 -158 177 -182 q 220 -151 214 -151 l 231 -151 q 255 -160 247 -153 z "},"{":{"ha":391,"x_min":35,"x_max":446,"o":"m 200 -424 q 180 -378 188 -401 q 168 -318 172 -354 q 165 -225 165 -281 q 168 -76 165 -168 q 171 59 170 2 q 170 125 172 116 q 165 139 168 137 q 146 144 161 141 q 94 151 123 144 q 50 165 64 158 q 41 190 35 179 q 76 207 47 201 q 113 223 99 212 q 146 260 127 234 q 174 303 163 281 q 190 362 184 325 q 199 460 196 399 q 205 618 201 521 q 208 744 207 696 q 214 823 210 792 q 223 876 217 854 q 240 924 229 898 q 260 974 245 944 q 296 1028 274 1003 q 345 1063 318 1052 q 403 1056 372 1073 q 431 1037 415 1052 q 446 1009 446 1023 q 435 1003 446 995 q 413 1030 424 1012 q 384 1041 398 1054 q 354 983 370 1028 q 331 883 339 936 q 325 767 323 830 q 326 734 325 753 q 331 693 328 714 q 335 653 333 672 q 337 618 337 634 q 347 422 349 491 q 332 304 345 352 q 299 249 319 281 q 257 193 280 217 q 247 183 252 188 q 240 175 243 179 q 231 168 234 170 q 236 162 231 165 q 245 151 241 160 q 287 86 269 132 q 314 -9 306 40 q 318 -56 316 -24 q 319 -123 319 -87 q 316 -196 318 -160 q 311 -259 314 -233 q 299 -375 300 -330 q 311 -444 297 -420 q 365 -451 330 -474 q 394 -428 380 -439 q 411 -424 408 -417 q 403 -450 415 -434 q 373 -474 391 -465 q 348 -480 365 -477 q 315 -483 332 -483 q 283 -480 299 -483 q 259 -474 267 -477 q 224 -454 236 -465 q 200 -424 212 -443 z "},"}":{"ha":587,"x_min":104,"x_max":516,"o":"m 351 1010 q 371 964 363 986 q 382 905 378 941 q 385 812 385 868 q 382 663 384 755 q 379 528 380 585 q 380 462 378 470 q 385 448 382 450 q 405 443 389 446 q 457 436 427 443 q 500 422 486 429 q 510 397 516 408 q 474 380 503 385 q 438 364 451 375 q 405 326 424 352 q 377 284 387 306 q 360 225 366 262 q 351 127 354 188 q 345 -31 347 66 q 342 -157 344 -109 q 337 -236 340 -205 q 327 -289 333 -267 q 311 -337 321 -311 q 291 -387 306 -358 q 254 -441 276 -417 q 206 -477 233 -465 q 148 -469 179 -488 q 120 -451 135 -465 q 104 -422 104 -436 q 115 -417 104 -408 q 137 -443 127 -425 q 167 -454 153 -467 q 196 -396 181 -441 q 220 -296 212 -349 q 226 -181 227 -243 q 224 -147 226 -167 q 220 -106 222 -127 q 215 -66 217 -85 q 214 -31 214 -47 q 203 165 201 95 q 219 283 205 234 q 251 338 231 306 q 293 394 271 370 q 302 404 297 399 q 311 411 307 408 q 319 418 316 415 q 314 424 319 422 q 306 436 309 427 q 263 501 281 455 q 236 595 245 547 q 232 642 233 611 q 232 710 231 674 q 234 783 233 747 q 240 845 236 819 q 252 962 250 917 q 240 1031 253 1007 q 186 1038 220 1061 q 156 1015 170 1026 q 139 1010 142 1003 q 148 1036 135 1021 q 177 1061 160 1052 q 202 1066 186 1064 q 235 1068 219 1068 q 267 1066 252 1068 q 292 1061 283 1064 q 326 1041 314 1052 q 351 1010 339 1030 z "},"=":{"ha":448,"x_min":83,"x_max":323,"o":"m 109 75 q 85 101 85 80 q 94 122 85 116 q 127 130 102 128 q 162 129 137 130 q 216 128 188 128 q 268 126 245 127 q 297 125 292 125 q 313 90 323 122 q 308 82 311 85 q 295 76 306 78 q 265 75 285 75 q 208 75 245 75 q 144 74 174 73 q 109 75 115 75 m 262 234 q 305 232 297 233 q 316 227 313 231 q 321 210 321 219 q 306 184 321 191 q 298 181 302 182 q 284 181 293 181 q 257 181 274 181 q 210 181 240 181 l 122 181 q 102 187 108 184 q 92 196 95 189 q 97 229 83 215 l 104 234 l 160 234 l 262 234 z "},"":{"ha":465,"x_min":17,"x_max":406,"o":"m 302 856 q 308 861 302 859 q 313 854 314 863 q 303 822 311 839 q 282 792 295 806 q 253 768 269 778 q 219 759 236 759 q 163 787 186 757 q 141 863 141 818 q 173 952 141 924 q 238 981 205 981 q 281 966 269 981 q 293 931 293 951 q 292 913 293 922 q 286 905 290 905 q 284 912 285 905 q 280 931 283 920 q 274 950 278 941 q 266 958 271 958 q 235 949 250 960 q 210 917 220 938 q 194 869 200 896 q 193 813 189 842 q 217 773 196 776 q 268 795 241 769 q 302 856 295 821 m 161 663 q 45 760 83 689 q 20 872 17 816 q 57 972 23 927 q 118 1026 82 1007 q 194 1047 155 1045 q 255 1040 226 1047 q 304 1019 281 1035 q 345 984 326 1003 q 398 872 391 939 q 373 747 406 806 q 281 667 340 689 q 161 663 222 644 m 193 1007 q 136 958 160 990 q 102 890 113 927 q 93 813 90 852 q 115 741 95 774 q 148 701 127 717 q 193 677 168 684 q 216 675 208 675 q 238 677 224 675 q 321 726 286 686 q 366 821 356 766 q 370 861 370 847 q 366 899 370 875 q 283 1009 344 979 q 241 1021 259 1021 q 193 1007 222 1019 z "},"":{"ha":510,"x_min":56,"x_max":444,"o":"m 200 663 q 83 760 122 689 q 58 872 56 816 q 95 972 61 927 q 156 1026 120 1007 q 233 1047 193 1045 q 293 1040 264 1047 q 342 1019 319 1035 q 384 984 365 1003 q 437 872 429 939 q 411 747 444 806 q 319 667 378 689 q 200 663 260 644 m 231 1007 q 174 958 198 990 q 140 890 151 927 q 131 813 128 852 q 153 741 134 774 q 186 701 165 717 q 231 677 207 684 q 254 675 247 675 q 276 677 262 675 q 359 726 325 686 q 405 821 394 766 q 408 861 408 847 q 405 899 408 875 q 321 1009 382 979 q 280 1021 297 1021 q 231 1007 260 1019 m 229 773 q 218 734 222 738 q 200 741 214 729 q 192 755 193 747 q 191 802 191 764 q 201 907 191 861 q 224 960 210 953 q 231 964 226 964 q 248 950 240 960 q 257 925 257 939 l 257 906 l 262 913 q 282 939 269 927 q 300 957 295 951 q 318 954 307 960 q 333 936 328 948 q 342 905 342 924 q 335 872 342 885 q 319 847 330 858 q 295 833 309 837 l 280 828 l 313 797 q 352 741 361 748 q 300 778 340 738 q 276 798 286 786 q 257 813 266 809 q 240 820 243 825 q 229 773 238 816 m 245 856 q 246 843 243 844 q 262 849 248 842 q 281 866 271 852 q 302 900 292 878 q 313 931 313 922 q 307 939 313 939 q 293 931 302 939 q 275 910 285 922 q 257 883 266 898 q 245 856 248 868 z "},"`":{"ha":264,"x_min":56,"x_max":160,"o":"m 82 1092 q 112 1083 101 1092 q 146 1043 123 1075 q 158 1023 156 1030 q 155 1014 160 1017 q 125 1010 141 1007 q 110 1022 122 1012 q 87 1043 99 1031 q 65 1066 75 1056 q 56 1080 56 1076 q 82 1092 56 1092 z "},"":{"ha":309,"x_min":104,"x_max":198,"o":"m 144 1094 q 153 1100 149 1099 q 165 1101 156 1101 q 188 1095 179 1101 q 194 1082 198 1089 q 174 1060 191 1076 q 141 1030 156 1043 q 109 1026 125 1016 q 104 1033 104 1028 q 109 1043 104 1035 q 121 1061 115 1050 q 134 1081 127 1071 q 144 1094 141 1090 z "},"":{"ha":352,"x_min":90,"x_max":208,"o":"m 94 1045 q 91 1049 90 1049 q 95 1059 92 1050 q 120 1090 106 1075 q 139 1109 134 1106 q 175 1101 158 1118 q 183 1089 177 1097 q 194 1070 189 1080 q 204 1053 200 1061 q 208 1043 208 1045 q 200 1036 208 1040 q 186 1033 191 1033 q 181 1034 184 1033 q 175 1035 179 1035 q 162 1043 167 1036 q 151 1066 158 1049 q 141 1089 144 1089 q 137 1083 139 1087 q 133 1078 135 1080 q 128 1073 130 1076 q 101 1043 108 1043 l 99 1043 q 94 1045 95 1043 z "},"":{"ha":234,"x_min":36,"x_max":170,"o":"m 156 1092 q 167 1081 163 1092 q 167 1056 170 1069 q 162 1046 165 1052 q 156 1036 160 1040 q 147 1029 151 1030 q 134 1026 142 1028 q 115 1030 122 1026 q 94 1043 104 1033 q 78 1063 83 1052 q 71 1075 75 1075 q 57 1043 61 1075 q 43 1042 54 1031 q 41 1065 36 1049 q 54 1090 45 1082 q 87 1095 66 1101 q 107 1088 101 1092 q 120 1075 113 1083 q 141 1050 137 1050 q 147 1059 144 1050 q 151 1078 149 1068 q 156 1092 153 1092 z "},"":{"ha":245,"x_min":56,"x_max":194,"o":"m 161 1085 q 179 1075 168 1085 q 179 1033 194 1056 q 161 1025 174 1026 q 141 1033 149 1024 q 135 1043 135 1038 q 134 1054 134 1047 q 161 1085 134 1085 m 85 1083 q 113 1070 104 1083 q 113 1040 122 1057 q 75 1030 101 1009 q 60 1063 56 1043 q 85 1083 64 1083 z "},"":{"ha":432,"x_min":168,"x_max":280,"o":"m 238 -14 q 269 -43 259 -19 q 269 -87 280 -68 q 245 -109 262 -102 q 226 -113 238 -113 q 207 -109 214 -113 q 175 -87 184 -99 q 168 -75 168 -76 q 188 -80 168 -68 q 208 -87 201 -89 q 227 -75 217 -85 q 240 -52 236 -64 q 240 -34 243 -38 q 222 -33 238 -30 q 205 2 186 -35 q 225 31 214 16 q 240 47 236 47 q 247 43 241 47 q 252 35 252 38 q 247 26 252 33 q 240 10 243 19 l 227 -10 l 238 -14 l 238 -14 z "},"":{"ha":547,"x_min":38,"x_max":517,"o":"m 500 1028 q 508 1015 505 1023 q 512 989 510 1007 q 515 938 514 970 q 516 851 516 906 q 517 776 517 804 q 516 734 517 748 q 509 713 514 719 q 497 701 503 707 q 475 696 484 693 q 457 708 465 700 l 450 719 l 451 844 l 451 965 l 444 941 q 432 905 438 931 q 420 856 427 878 q 411 808 417 830 q 403 781 405 786 q 370 759 394 759 q 355 765 361 759 q 343 788 349 771 q 330 838 337 806 q 316 922 323 870 q 302 970 304 965 q 299 960 300 974 q 298 925 299 953 q 296 861 297 898 q 294 785 295 825 q 293 717 293 745 q 286 712 293 708 l 274 712 l 274 839 q 280 980 274 934 q 292 1035 285 1026 q 321 1040 297 1040 q 349 1026 344 1040 q 365 988 358 1014 q 382 925 373 962 q 390 871 387 885 q 396 856 392 856 q 399 861 398 858 q 405 875 401 865 q 418 925 410 896 q 435 981 427 955 q 450 1025 443 1007 q 460 1045 457 1043 l 469 1045 q 500 1028 490 1045 m 250 1045 q 271 1036 267 1045 q 270 1029 274 1028 q 257 1030 266 1030 q 241 1028 253 1028 q 217 1028 229 1028 l 186 1028 l 189 856 l 189 701 l 177 689 q 160 681 172 681 q 137 688 148 681 q 131 694 134 689 q 127 703 128 700 q 124 740 125 708 q 122 812 123 771 q 122 892 122 852 q 123 955 122 932 q 125 995 125 974 q 123 1016 125 1016 q 111 1014 118 1014 q 100 1012 106 1012 q 87 1010 94 1012 q 54 1006 63 1007 q 42 1007 45 1005 q 39 1014 38 1014 q 45 1021 40 1014 q 75 1026 52 1023 q 125 1034 97 1030 q 181 1041 153 1038 q 231 1045 210 1043 l 250 1045 z "},"":{"ha":351,"x_min":99,"x_max":215,"o":"m 115 1024 q 108 1033 109 1030 q 104 1040 106 1036 q 111 1083 99 1061 q 123 1097 115 1092 q 135 1104 127 1101 q 153 1109 142 1109 q 179 1109 175 1109 q 189 1106 182 1109 q 204 1089 198 1102 q 214 1063 210 1076 q 214 1046 215 1056 q 208 1030 212 1036 q 181 1007 200 1012 q 132 1009 155 998 q 123 1014 125 1012 q 115 1024 122 1016 m 153 1069 q 148 1049 148 1061 q 151 1030 148 1036 q 163 1019 158 1019 q 174 1022 167 1017 q 186 1031 182 1026 q 194 1050 194 1040 q 192 1076 196 1064 q 179 1092 188 1089 l 175 1092 q 153 1069 165 1094 z "},"D":{"ha":1299,"x_min":-3,"x_max":1429,"o":"m 517 934 q 532 890 524 917 q 547 834 540 863 q 558 780 554 806 q 564 738 563 753 q 612 843 580 786 q 687 948 644 899 q 780 1030 729 997 q 887 1068 832 1064 q 1034 1038 972 1073 q 1136 940 1095 1003 q 1197 791 1177 877 q 1220 610 1217 705 q 1212 416 1224 516 q 1174 226 1200 316 q 1241 253 1203 233 q 1317 300 1280 274 q 1384 351 1354 326 q 1424 387 1413 375 q 1427 380 1429 382 q 1305 263 1372 313 q 1172 198 1238 214 q 1157 180 1163 194 q 1137 130 1151 165 q 1036 -63 1090 19 q 915 -215 981 -146 q 840 -284 877 -255 q 764 -331 804 -312 q 679 -358 724 -349 q 576 -366 634 -366 q 462 -331 503 -366 q 420 -240 420 -295 q 424 -212 420 -227 q 431 -182 427 -196 q 440 -159 436 -168 q 446 -146 444 -149 q 424 -140 441 -148 q 390 -119 406 -132 q 360 -90 373 -106 q 349 -59 347 -75 q 367 100 358 12 q 386 281 377 188 q 405 467 396 375 q 419 638 413 559 q 429 775 425 717 q 431 861 432 833 q 427 922 429 892 q 418 974 425 951 q 398 1010 411 997 q 361 1024 385 1024 q 301 1010 328 1024 q 238 964 274 995 q 142 845 182 911 q 77 710 102 778 q 42 579 52 642 q 36 467 31 516 q 55 418 40 436 q 85 393 69 401 q 114 383 101 385 q 127 380 127 380 q 117 371 127 373 q 97 368 108 368 q 31 397 57 368 q 2 469 5 425 q 9 582 -3 519 q 44 711 21 646 q 102 838 68 776 q 177 947 135 899 q 266 1024 219 995 q 361 1054 313 1054 q 451 1023 408 1054 q 517 934 493 991 m 592 740 q 574 692 580 710 q 563 641 568 674 q 556 546 559 608 q 549 368 554 484 q 543 253 545 309 q 538 150 540 196 q 535 71 536 104 q 533 28 533 38 l 526 -33 q 646 54 580 17 q 778 115 712 90 q 901 154 844 139 q 995 177 958 168 q 1033 316 1017 243 q 1059 461 1049 389 q 1074 601 1069 533 q 1078 726 1078 668 q 1064 853 1078 795 q 1027 952 1050 911 q 970 1016 1003 993 q 899 1038 938 1038 q 852 1030 885 1038 q 777 990 819 1021 q 687 901 734 960 q 592 740 639 842 m 910 -10 q 934 37 922 12 q 956 85 946 63 q 971 123 965 108 q 977 141 977 139 q 957 138 974 141 q 918 130 941 135 q 872 118 896 125 q 830 106 849 111 q 688 43 757 82 q 568 -41 620 5 q 484 -135 516 -87 q 453 -231 453 -184 q 479 -305 453 -285 q 547 -318 505 -325 q 641 -281 589 -311 q 743 -209 693 -252 q 838 -115 793 -167 q 910 -10 882 -62 z "},"":{"ha":514,"x_min":66,"x_max":359,"o":"m 356 177 q 340 166 352 168 q 278 163 328 163 q 222 163 255 163 q 157 164 189 163 q 101 166 125 165 q 75 168 76 167 q 68 186 69 175 q 71 205 66 196 q 97 213 73 210 q 155 217 122 215 q 226 218 189 219 q 290 217 262 217 q 343 215 333 215 q 356 212 352 215 q 359 195 359 207 q 356 177 359 184 z "},"":{"ha":651,"x_min":76,"x_max":524,"o":"m 521 177 q 505 166 517 168 q 443 163 493 163 q 397 163 429 163 q 326 162 365 163 q 245 161 286 161 q 168 161 203 161 q 110 161 134 161 q 85 163 87 161 q 78 183 80 170 q 82 205 76 196 q 132 213 83 210 q 243 217 181 215 q 366 218 306 219 q 455 217 427 217 q 508 215 498 215 q 521 212 517 215 q 524 195 524 207 q 521 177 524 184 z "},"":{"ha":505,"x_min":-2,"x_max":556,"o":"m 248 377 q 252 427 245 413 q 273 446 259 441 q 300 451 283 450 q 335 447 318 451 q 366 435 352 443 q 384 415 380 427 q 389 375 387 401 q 391 315 391 349 q 390 243 391 281 q 389 168 389 205 l 389 167 l 418 201 q 512 310 479 271 q 554 349 545 349 q 556 345 556 349 q 542 331 554 345 q 512 293 530 316 q 474 243 495 271 q 432 189 453 215 l 389 132 l 384 73 q 339 -171 373 -66 q 257 -347 304 -276 q 157 -452 210 -418 q 56 -481 104 -486 q 22 -452 31 -477 q 17 -399 12 -427 q 31 -345 21 -373 q 60 -281 42 -316 q 106 -203 78 -247 q 174 -104 134 -160 q 202 -61 191 -78 q 221 -32 214 -43 q 233 -14 229 -21 q 238 0 236 -7 q 239 49 236 9 q 243 137 241 90 q 244 173 243 156 q 245 203 245 189 q 217 128 233 165 q 182 63 201 92 q 143 17 163 35 q 102 0 123 0 q 28 43 57 0 q -2 198 -2 85 q -2 215 -2 210 q -2 226 -2 220 q -1 240 -2 231 q 2 269 0 248 l 10 434 q 26 440 23 441 q 35 441 30 439 q 73 440 54 443 q 107 423 92 438 q 130 380 122 408 q 137 306 139 352 q 132 254 137 286 q 122 186 127 222 q 111 115 116 149 q 104 61 106 82 q 112 23 101 26 q 142 43 123 21 q 166 74 153 56 q 192 120 179 92 q 219 188 205 148 q 248 286 233 229 l 248 377 m 222 -78 q 215 -84 222 -76 q 197 -106 208 -92 q 173 -139 186 -120 q 148 -179 160 -158 q 65 -326 99 -262 q 36 -441 31 -389 q 48 -455 40 -450 q 59 -460 56 -460 q 98 -433 75 -460 q 146 -356 122 -406 q 191 -235 170 -306 q 222 -78 212 -165 m 217 533 q 234 523 224 533 q 234 481 250 503 q 217 473 229 474 q 196 481 205 472 q 190 490 191 486 q 189 502 189 495 q 217 533 189 533 m 141 531 q 168 518 160 531 q 168 488 177 505 q 130 477 156 457 q 115 511 111 491 q 141 531 120 531 z "},"":{"ha":608,"x_min":106,"x_max":483,"o":"m 120 36 q 134 90 106 68 q 143 97 141 95 q 160 97 146 99 q 174 95 168 97 q 184 89 179 92 q 201 64 196 80 q 200 33 205 49 q 179 12 194 19 q 142 12 160 3 q 129 22 134 17 q 120 36 125 26 m 260 36 q 274 90 247 68 q 284 97 281 95 q 300 97 286 99 q 314 95 309 97 q 325 89 319 92 q 341 64 337 80 q 340 33 345 49 q 319 12 335 19 q 283 12 300 3 q 270 22 274 17 q 260 36 266 26 m 398 36 q 411 90 384 68 q 421 97 418 95 q 438 97 424 99 q 451 95 446 97 q 462 89 457 92 q 478 64 474 80 q 477 33 483 49 q 457 12 472 19 q 420 12 438 3 q 407 22 411 17 q 398 36 403 26 z "},"":{"ha":1128,"x_min":-9,"x_max":1137,"o":"m 1137 194 q 1109 172 1128 184 q 1068 148 1090 160 q 1023 126 1045 135 q 988 115 1002 116 q 983 58 984 94 q 981 -21 981 23 q 984 -109 981 -64 q 990 -191 986 -153 q 1002 -255 995 -229 q 1017 -285 1009 -281 q 1034 -283 1024 -288 q 1053 -268 1043 -278 q 1071 -247 1063 -259 q 1083 -227 1080 -236 q 1095 -220 1089 -215 q 1099 -238 1102 -224 q 1049 -299 1080 -278 q 985 -323 1019 -321 q 920 -302 951 -325 q 868 -231 889 -280 q 845 -149 852 -194 q 834 -57 837 -104 q 832 34 832 -10 q 833 115 833 78 l 802 115 q 733 124 776 115 q 623 156 689 134 l 611 132 q 569 43 594 97 q 514 -69 545 -10 q 444 -184 483 -127 q 363 -285 406 -241 q 270 -350 319 -328 q 167 -358 220 -372 q 67 -299 106 -344 q 10 -191 28 -253 q -5 -57 -9 -128 q 21 79 -2 14 q 85 194 43 144 q 188 264 127 243 q 286 282 238 281 q 383 273 333 283 q 486 243 432 262 q 604 198 540 224 q 628 253 606 207 q 691 384 651 300 q 716 433 701 405 q 746 494 731 462 q 776 559 760 526 q 806 622 792 592 q 866 766 844 696 q 903 894 889 837 q 924 990 917 951 q 943 1038 932 1028 q 977 1060 955 1050 q 1024 1073 1000 1069 q 1069 1070 1049 1076 q 1099 1045 1090 1064 q 1102 1013 1102 1042 q 1087 924 1101 984 q 1068 831 1078 892 q 1046 692 1057 769 q 1023 530 1035 615 q 1004 368 1012 444 q 991 233 997 292 q 986 148 986 174 q 984 147 986 144 q 984 149 983 149 q 1018 153 997 146 q 1063 171 1040 160 q 1107 197 1087 182 q 1135 224 1127 212 l 1137 194 m 672 260 q 650 214 660 236 q 641 191 641 193 q 653 179 639 186 q 688 165 667 172 q 734 153 710 158 q 773 146 757 148 q 797 142 781 144 q 842 144 813 141 l 828 137 q 839 284 833 207 q 852 439 844 361 q 872 594 859 517 q 903 738 884 670 q 908 737 906 741 q 906 733 910 733 q 903 727 906 733 q 888 699 899 722 q 852 625 877 675 q 785 486 828 575 q 750 420 767 453 q 717 357 733 387 q 689 301 701 326 q 672 260 677 276 m 587 167 q 480 198 533 188 q 378 207 427 208 q 289 197 330 207 q 220 170 248 188 q 155 108 184 148 q 106 19 125 68 q 80 -82 87 -30 q 78 -182 73 -135 q 102 -266 83 -229 q 158 -321 122 -304 q 254 -326 207 -347 q 347 -257 302 -306 q 431 -142 392 -208 q 503 -13 470 -76 q 556 100 535 50 q 587 167 578 149 m 1017 1194 q 1048 1186 1036 1194 q 1082 1146 1059 1177 q 1094 1126 1092 1132 q 1090 1116 1095 1120 q 1061 1113 1076 1109 q 1046 1124 1057 1115 q 1023 1146 1035 1134 q 1001 1168 1010 1158 q 991 1182 991 1179 q 1017 1194 991 1194 z "},"":{"ha":1128,"x_min":-9,"x_max":1160,"o":"m 1137 194 q 1109 172 1128 184 q 1068 148 1090 160 q 1023 126 1045 135 q 988 115 1002 116 q 983 58 984 94 q 981 -21 981 23 q 984 -109 981 -64 q 990 -191 986 -153 q 1002 -255 995 -229 q 1017 -285 1009 -281 q 1034 -283 1024 -288 q 1053 -268 1043 -278 q 1071 -247 1063 -259 q 1083 -227 1080 -236 q 1095 -220 1089 -215 q 1099 -238 1102 -224 q 1049 -299 1080 -278 q 985 -323 1019 -321 q 920 -302 951 -325 q 868 -231 889 -280 q 845 -149 852 -194 q 834 -57 837 -104 q 832 34 832 -10 q 833 115 833 78 l 802 115 q 733 124 776 115 q 623 156 689 134 l 611 132 q 569 43 594 97 q 514 -69 545 -10 q 444 -184 483 -127 q 363 -285 406 -241 q 270 -350 319 -328 q 167 -358 220 -372 q 67 -299 106 -344 q 10 -191 28 -253 q -5 -57 -9 -128 q 21 79 -2 14 q 85 194 43 144 q 188 264 127 243 q 286 282 238 281 q 383 273 333 283 q 486 243 432 262 q 604 198 540 224 q 628 253 606 207 q 691 384 651 300 q 716 433 701 405 q 746 494 731 462 q 776 559 760 526 q 806 622 792 592 q 866 766 844 696 q 903 894 889 837 q 924 990 917 951 q 943 1038 932 1028 q 977 1060 955 1050 q 1024 1073 1000 1069 q 1069 1070 1049 1076 q 1099 1045 1090 1064 q 1102 1013 1102 1042 q 1087 924 1101 984 q 1068 831 1078 892 q 1046 692 1057 769 q 1023 530 1035 615 q 1004 368 1012 444 q 991 233 997 292 q 986 148 986 174 q 984 147 986 144 q 984 149 983 149 q 1018 153 997 146 q 1063 171 1040 160 q 1107 197 1087 182 q 1135 224 1127 212 l 1137 194 m 672 260 q 650 214 660 236 q 641 191 641 193 q 653 179 639 186 q 688 165 667 172 q 734 153 710 158 q 773 146 757 148 q 797 142 781 144 q 842 144 813 141 l 828 137 q 839 284 833 207 q 852 439 844 361 q 872 594 859 517 q 903 738 884 670 q 908 737 906 741 q 906 733 910 733 q 903 727 906 733 q 888 699 899 722 q 852 625 877 675 q 785 486 828 575 q 750 420 767 453 q 717 357 733 387 q 689 301 701 326 q 672 260 677 276 m 587 167 q 480 198 533 188 q 378 207 427 208 q 289 197 330 207 q 220 170 248 188 q 155 108 184 148 q 106 19 125 68 q 80 -82 87 -30 q 78 -182 73 -135 q 102 -266 83 -229 q 158 -321 122 -304 q 254 -326 207 -347 q 347 -257 302 -306 q 431 -142 392 -208 q 503 -13 470 -76 q 556 100 535 50 q 587 167 578 149 m 1106 1186 q 1115 1192 1111 1191 q 1127 1193 1118 1193 q 1150 1187 1141 1193 q 1156 1174 1160 1181 q 1135 1152 1153 1168 q 1102 1122 1118 1135 q 1071 1118 1087 1108 q 1066 1125 1066 1120 q 1071 1135 1066 1127 q 1082 1153 1076 1142 q 1095 1173 1089 1163 q 1106 1186 1102 1182 z "},"":{"ha":1128,"x_min":-9,"x_max":1137,"o":"m 1137 194 q 1109 172 1128 184 q 1068 148 1090 160 q 1023 126 1045 135 q 988 115 1002 116 q 983 58 984 94 q 981 -21 981 23 q 984 -109 981 -64 q 990 -191 986 -153 q 1002 -255 995 -229 q 1017 -285 1009 -281 q 1034 -283 1024 -288 q 1053 -268 1043 -278 q 1071 -247 1063 -259 q 1083 -227 1080 -236 q 1095 -220 1089 -215 q 1099 -238 1102 -224 q 1049 -299 1080 -278 q 985 -323 1019 -321 q 920 -302 951 -325 q 868 -231 889 -280 q 845 -149 852 -194 q 834 -57 837 -104 q 832 34 832 -10 q 833 115 833 78 l 802 115 q 733 124 776 115 q 623 156 689 134 l 611 132 q 569 43 594 97 q 514 -69 545 -10 q 444 -184 483 -127 q 363 -285 406 -241 q 270 -350 319 -328 q 167 -358 220 -372 q 67 -299 106 -344 q 10 -191 28 -253 q -5 -57 -9 -128 q 21 79 -2 14 q 85 194 43 144 q 188 264 127 243 q 286 282 238 281 q 383 273 333 283 q 486 243 432 262 q 604 198 540 224 q 628 253 606 207 q 691 384 651 300 q 716 433 701 405 q 746 494 731 462 q 776 559 760 526 q 806 622 792 592 q 866 766 844 696 q 903 894 889 837 q 924 990 917 951 q 943 1038 932 1028 q 977 1060 955 1050 q 1024 1073 1000 1069 q 1069 1070 1049 1076 q 1099 1045 1090 1064 q 1102 1013 1102 1042 q 1087 924 1101 984 q 1068 831 1078 892 q 1046 692 1057 769 q 1023 530 1035 615 q 1004 368 1012 444 q 991 233 997 292 q 986 148 986 174 q 984 147 986 144 q 984 149 983 149 q 1018 153 997 146 q 1063 171 1040 160 q 1107 197 1087 182 q 1135 224 1127 212 l 1137 194 m 672 260 q 650 214 660 236 q 641 191 641 193 q 653 179 639 186 q 688 165 667 172 q 734 153 710 158 q 773 146 757 148 q 797 142 781 144 q 842 144 813 141 l 828 137 q 839 284 833 207 q 852 439 844 361 q 872 594 859 517 q 903 738 884 670 q 908 737 906 741 q 906 733 910 733 q 903 727 906 733 q 888 699 899 722 q 852 625 877 675 q 785 486 828 575 q 750 420 767 453 q 717 357 733 387 q 689 301 701 326 q 672 260 677 276 m 587 167 q 480 198 533 188 q 378 207 427 208 q 289 197 330 207 q 220 170 248 188 q 155 108 184 148 q 106 19 125 68 q 80 -82 87 -30 q 78 -182 73 -135 q 102 -266 83 -229 q 158 -321 122 -304 q 254 -326 207 -347 q 347 -257 302 -306 q 431 -142 392 -208 q 503 -13 470 -76 q 556 100 535 50 q 587 167 578 149 m 1019 1115 q 1016 1119 1016 1118 q 1021 1128 1017 1120 q 1045 1160 1031 1144 q 1064 1179 1059 1175 q 1101 1170 1083 1188 q 1109 1158 1102 1167 q 1120 1140 1115 1149 q 1129 1122 1125 1130 q 1134 1113 1134 1115 q 1125 1106 1134 1109 q 1111 1102 1116 1102 q 1107 1103 1109 1102 q 1101 1104 1104 1104 q 1088 1112 1092 1106 q 1076 1135 1083 1118 q 1066 1158 1069 1158 q 1063 1153 1064 1156 q 1058 1148 1061 1149 q 1054 1142 1056 1146 q 1026 1113 1033 1113 l 1024 1113 q 1019 1115 1021 1113 z "},"":{"ha":1128,"x_min":-9,"x_max":1137,"o":"m 1137 194 q 1109 172 1128 184 q 1068 148 1090 160 q 1023 126 1045 135 q 988 115 1002 116 q 983 58 984 94 q 981 -21 981 23 q 984 -109 981 -64 q 990 -191 986 -153 q 1002 -255 995 -229 q 1017 -285 1009 -281 q 1034 -283 1024 -288 q 1053 -268 1043 -278 q 1071 -247 1063 -259 q 1083 -227 1080 -236 q 1095 -220 1089 -215 q 1099 -238 1102 -224 q 1049 -299 1080 -278 q 985 -323 1019 -321 q 920 -302 951 -325 q 868 -231 889 -280 q 845 -149 852 -194 q 834 -57 837 -104 q 832 34 832 -10 q 833 115 833 78 l 802 115 q 733 124 776 115 q 623 156 689 134 l 611 132 q 569 43 594 97 q 514 -69 545 -10 q 444 -184 483 -127 q 363 -285 406 -241 q 270 -350 319 -328 q 167 -358 220 -372 q 67 -299 106 -344 q 10 -191 28 -253 q -5 -57 -9 -128 q 21 79 -2 14 q 85 194 43 144 q 188 264 127 243 q 286 282 238 281 q 383 273 333 283 q 486 243 432 262 q 604 198 540 224 q 628 253 606 207 q 691 384 651 300 q 716 433 701 405 q 746 494 731 462 q 776 559 760 526 q 806 622 792 592 q 866 766 844 696 q 903 894 889 837 q 924 990 917 951 q 943 1038 932 1028 q 977 1060 955 1050 q 1024 1073 1000 1069 q 1069 1070 1049 1076 q 1099 1045 1090 1064 q 1102 1013 1102 1042 q 1087 924 1101 984 q 1068 831 1078 892 q 1046 692 1057 769 q 1023 530 1035 615 q 1004 368 1012 444 q 991 233 997 292 q 986 148 986 174 q 984 147 986 144 q 984 149 983 149 q 1018 153 997 146 q 1063 171 1040 160 q 1107 197 1087 182 q 1135 224 1127 212 l 1137 194 m 672 260 q 650 214 660 236 q 641 191 641 193 q 653 179 639 186 q 688 165 667 172 q 734 153 710 158 q 773 146 757 148 q 797 142 781 144 q 842 144 813 141 l 828 137 q 839 284 833 207 q 852 439 844 361 q 872 594 859 517 q 903 738 884 670 q 908 737 906 741 q 906 733 910 733 q 903 727 906 733 q 888 699 899 722 q 852 625 877 675 q 785 486 828 575 q 750 420 767 453 q 717 357 733 387 q 689 301 701 326 q 672 260 677 276 m 587 167 q 480 198 533 188 q 378 207 427 208 q 289 197 330 207 q 220 170 248 188 q 155 108 184 148 q 106 19 125 68 q 80 -82 87 -30 q 78 -182 73 -135 q 102 -266 83 -229 q 158 -321 122 -304 q 254 -326 207 -347 q 347 -257 302 -306 q 431 -142 392 -208 q 503 -13 470 -76 q 556 100 535 50 q 587 167 578 149 m 1123 1174 q 1134 1162 1130 1174 q 1134 1137 1137 1151 q 1129 1128 1132 1134 q 1123 1118 1127 1122 q 1114 1110 1118 1111 q 1101 1108 1109 1109 q 1082 1111 1089 1108 q 1061 1124 1071 1115 q 1045 1144 1050 1134 q 1038 1156 1042 1156 q 1024 1125 1028 1156 q 1010 1123 1021 1113 q 1008 1147 1003 1130 q 1021 1172 1012 1163 q 1054 1177 1033 1182 q 1074 1169 1068 1174 q 1087 1156 1080 1165 q 1108 1132 1104 1132 q 1114 1141 1111 1132 q 1118 1160 1116 1149 q 1123 1174 1120 1174 z "},"":{"ha":1128,"x_min":-9,"x_max":1137,"o":"m 1137 194 q 1109 172 1128 184 q 1068 148 1090 160 q 1023 126 1045 135 q 988 115 1002 116 q 983 58 984 94 q 981 -21 981 23 q 984 -109 981 -64 q 990 -191 986 -153 q 1002 -255 995 -229 q 1017 -285 1009 -281 q 1034 -283 1024 -288 q 1053 -268 1043 -278 q 1071 -247 1063 -259 q 1083 -227 1080 -236 q 1095 -220 1089 -215 q 1099 -238 1102 -224 q 1049 -299 1080 -278 q 985 -323 1019 -321 q 920 -302 951 -325 q 868 -231 889 -280 q 845 -149 852 -194 q 834 -57 837 -104 q 832 34 832 -10 q 833 115 833 78 l 802 115 q 733 124 776 115 q 623 156 689 134 l 611 132 q 569 43 594 97 q 514 -69 545 -10 q 444 -184 483 -127 q 363 -285 406 -241 q 270 -350 319 -328 q 167 -358 220 -372 q 67 -299 106 -344 q 10 -191 28 -253 q -5 -57 -9 -128 q 21 79 -2 14 q 85 194 43 144 q 188 264 127 243 q 286 282 238 281 q 383 273 333 283 q 486 243 432 262 q 604 198 540 224 q 628 253 606 207 q 691 384 651 300 q 716 433 701 405 q 746 494 731 462 q 776 559 760 526 q 806 622 792 592 q 866 766 844 696 q 903 894 889 837 q 924 990 917 951 q 943 1038 932 1028 q 977 1060 955 1050 q 1024 1073 1000 1069 q 1069 1070 1049 1076 q 1099 1045 1090 1064 q 1102 1013 1102 1042 q 1087 924 1101 984 q 1068 831 1078 892 q 1046 692 1057 769 q 1023 530 1035 615 q 1004 368 1012 444 q 991 233 997 292 q 986 148 986 174 q 984 147 986 144 q 984 149 983 149 q 1018 153 997 146 q 1063 171 1040 160 q 1107 197 1087 182 q 1135 224 1127 212 l 1137 194 m 672 260 q 650 214 660 236 q 641 191 641 193 q 653 179 639 186 q 688 165 667 172 q 734 153 710 158 q 773 146 757 148 q 797 142 781 144 q 842 144 813 141 l 828 137 q 839 284 833 207 q 852 439 844 361 q 872 594 859 517 q 903 738 884 670 q 908 737 906 741 q 906 733 910 733 q 903 727 906 733 q 888 699 899 722 q 852 625 877 675 q 785 486 828 575 q 750 420 767 453 q 717 357 733 387 q 689 301 701 326 q 672 260 677 276 m 587 167 q 480 198 533 188 q 378 207 427 208 q 289 197 330 207 q 220 170 248 188 q 155 108 184 148 q 106 19 125 68 q 80 -82 87 -30 q 78 -182 73 -135 q 102 -266 83 -229 q 158 -321 122 -304 q 254 -326 207 -347 q 347 -257 302 -306 q 431 -142 392 -208 q 503 -13 470 -76 q 556 100 535 50 q 587 167 578 149 m 1104 1174 q 1122 1163 1111 1174 q 1122 1122 1137 1144 q 1104 1114 1116 1115 q 1083 1122 1092 1113 q 1077 1131 1078 1127 q 1076 1142 1076 1135 q 1104 1174 1076 1174 m 1028 1172 q 1056 1159 1047 1172 q 1056 1128 1064 1146 q 1017 1118 1043 1097 q 1003 1152 998 1132 q 1028 1172 1007 1172 z "},"":{"ha":1128,"x_min":-9,"x_max":1137,"o":"m 1137 194 q 1109 172 1128 184 q 1068 148 1090 160 q 1023 126 1045 135 q 988 115 1002 116 q 983 58 984 94 q 981 -21 981 23 q 984 -109 981 -64 q 990 -191 986 -153 q 1002 -255 995 -229 q 1017 -285 1009 -281 q 1034 -283 1024 -288 q 1053 -268 1043 -278 q 1071 -247 1063 -259 q 1083 -227 1080 -236 q 1095 -220 1089 -215 q 1099 -238 1102 -224 q 1049 -299 1080 -278 q 985 -323 1019 -321 q 920 -302 951 -325 q 868 -231 889 -280 q 845 -149 852 -194 q 834 -57 837 -104 q 832 34 832 -10 q 833 115 833 78 l 802 115 q 733 124 776 115 q 623 156 689 134 l 611 132 q 569 43 594 97 q 514 -69 545 -10 q 444 -184 483 -127 q 363 -285 406 -241 q 270 -350 319 -328 q 167 -358 220 -372 q 67 -299 106 -344 q 10 -191 28 -253 q -5 -57 -9 -128 q 21 79 -2 14 q 85 194 43 144 q 188 264 127 243 q 286 282 238 281 q 383 273 333 283 q 486 243 432 262 q 604 198 540 224 q 628 253 606 207 q 691 384 651 300 q 716 433 701 405 q 746 494 731 462 q 776 559 760 526 q 806 622 792 592 q 866 766 844 696 q 903 894 889 837 q 924 990 917 951 q 943 1038 932 1028 q 977 1060 955 1050 q 1024 1073 1000 1069 q 1069 1070 1049 1076 q 1099 1045 1090 1064 q 1102 1013 1102 1042 q 1087 924 1101 984 q 1068 831 1078 892 q 1046 692 1057 769 q 1023 530 1035 615 q 1004 368 1012 444 q 991 233 997 292 q 986 148 986 174 q 984 147 986 144 q 984 149 983 149 q 1018 153 997 146 q 1063 171 1040 160 q 1107 197 1087 182 q 1135 224 1127 212 l 1137 194 m 672 260 q 650 214 660 236 q 641 191 641 193 q 653 179 639 186 q 688 165 667 172 q 734 153 710 158 q 773 146 757 148 q 797 142 781 144 q 842 144 813 141 l 828 137 q 839 284 833 207 q 852 439 844 361 q 872 594 859 517 q 903 738 884 670 q 908 737 906 741 q 906 733 910 733 q 903 727 906 733 q 888 699 899 722 q 852 625 877 675 q 785 486 828 575 q 750 420 767 453 q 717 357 733 387 q 689 301 701 326 q 672 260 677 276 m 587 167 q 480 198 533 188 q 378 207 427 208 q 289 197 330 207 q 220 170 248 188 q 155 108 184 148 q 106 19 125 68 q 80 -82 87 -30 q 78 -182 73 -135 q 102 -266 83 -229 q 158 -321 122 -304 q 254 -326 207 -347 q 347 -257 302 -306 q 431 -142 392 -208 q 503 -13 470 -76 q 556 100 535 50 q 587 167 578 149 m 1028 1128 q 1021 1137 1023 1134 q 1017 1144 1019 1141 q 1024 1188 1012 1165 q 1036 1201 1028 1196 q 1049 1208 1040 1205 q 1066 1214 1056 1214 q 1092 1214 1089 1214 q 1102 1210 1095 1214 q 1117 1194 1111 1207 q 1127 1167 1123 1181 q 1127 1150 1128 1160 q 1122 1134 1125 1141 q 1094 1111 1113 1116 q 1045 1113 1068 1102 q 1036 1118 1038 1116 q 1028 1128 1035 1120 m 1066 1174 q 1061 1153 1061 1165 q 1064 1134 1061 1141 q 1076 1123 1071 1123 q 1088 1126 1080 1122 q 1099 1135 1095 1130 q 1108 1155 1108 1144 q 1105 1181 1109 1168 q 1092 1196 1101 1193 l 1089 1196 q 1066 1174 1078 1198 z "},"":{"ha":1769,"x_min":-12,"x_max":1826,"o":"m 1656 972 q 1635 1004 1642 993 q 1616 1026 1627 1016 q 1576 1051 1597 1047 q 1532 1049 1554 1056 q 1490 1030 1510 1043 q 1451 1000 1469 1016 q 1389 927 1417 969 q 1339 840 1361 885 q 1305 747 1318 795 q 1288 656 1292 700 q 1290 628 1286 648 q 1301 589 1293 608 q 1320 556 1309 569 q 1345 549 1332 543 q 1387 556 1359 554 q 1436 557 1415 559 q 1490 548 1465 557 q 1519 526 1514 538 q 1513 515 1526 519 q 1479 507 1500 510 q 1357 433 1408 491 q 1272 299 1306 375 q 1221 140 1238 222 q 1207 -7 1205 57 q 1246 -191 1210 -116 q 1332 -290 1281 -266 q 1441 -301 1389 -319 q 1540 -234 1493 -283 q 1628 -115 1587 -186 q 1701 33 1668 -43 q 1760 184 1734 109 q 1800 314 1785 259 q 1821 363 1811 363 q 1826 348 1825 363 q 1819 314 1826 333 q 1786 190 1806 262 q 1737 42 1766 118 q 1670 -108 1708 -35 q 1582 -237 1632 -181 q 1470 -325 1533 -293 q 1332 -347 1408 -356 q 1194 -297 1253 -339 q 1095 -194 1135 -255 l 1095 -198 q 1046 -258 1076 -236 q 982 -280 1016 -280 q 916 -260 948 -281 q 865 -191 884 -238 q 842 -113 849 -156 q 833 -23 835 -69 q 832 66 832 23 q 835 144 833 109 l 804 144 q 734 153 778 144 q 625 184 691 161 l 615 160 q 570 75 595 127 q 513 -34 545 23 q 442 -146 481 -90 q 359 -243 403 -201 q 265 -306 314 -285 q 161 -314 215 -326 q 62 -258 101 -302 q 5 -153 23 -214 q -8 -23 -12 -92 q 20 109 -3 47 q 87 220 43 172 q 191 288 130 269 q 290 306 243 304 q 386 297 337 307 q 490 267 436 286 q 606 224 543 248 q 633 278 609 233 q 696 405 656 323 q 723 452 708 425 q 753 510 738 479 q 786 574 769 542 q 816 635 802 606 q 877 756 854 708 q 912 836 899 804 q 932 886 925 868 q 946 918 939 905 q 965 990 955 953 q 984 1045 976 1028 q 1013 1070 993 1064 q 1047 1073 1033 1076 q 1093 1064 1075 1069 q 1115 1047 1111 1059 q 1117 1015 1118 1043 q 1101 929 1116 986 q 1080 839 1092 899 q 1056 704 1068 780 q 1031 546 1043 628 q 1010 390 1019 464 q 994 259 1000 316 q 988 175 988 201 q 1016 179 998 174 q 1054 193 1035 184 q 1089 288 1068 241 q 1139 380 1111 335 q 1193 449 1156 411 q 1260 507 1229 486 l 1293 528 q 1276 536 1290 528 q 1243 563 1262 545 q 1205 608 1224 582 q 1175 667 1186 634 q 1178 799 1156 729 q 1245 930 1200 870 q 1352 1032 1290 990 q 1476 1085 1413 1075 q 1591 1069 1543 1095 q 1674 984 1639 1042 l 1691 991 q 1724 1003 1715 1005 q 1738 1001 1731 1003 q 1745 997 1745 998 q 1731 990 1738 993 q 1716 983 1724 986 q 1700 976 1708 979 l 1684 962 l 1689 938 q 1695 904 1694 924 q 1694 863 1696 884 q 1687 808 1693 837 q 1670 755 1681 780 q 1647 715 1660 731 q 1620 701 1634 700 q 1570 734 1587 707 q 1552 785 1554 760 q 1571 867 1552 816 q 1656 972 1590 918 m 590 194 q 484 225 536 215 q 382 234 431 234 q 293 225 333 234 q 224 198 252 215 q 129 95 167 165 q 79 -49 92 26 q 83 -188 66 -123 q 153 -280 101 -253 q 250 -285 201 -306 q 344 -216 299 -264 q 430 -105 389 -168 q 503 20 470 -42 q 557 130 535 82 q 590 194 580 179 m 675 285 q 653 240 663 260 q 642 217 642 219 q 655 205 641 212 q 691 192 670 198 q 735 181 712 186 q 774 174 759 175 q 796 170 783 172 q 832 170 809 168 q 843 306 837 234 q 858 451 849 378 q 878 594 866 523 q 908 729 891 665 q 897 707 905 722 q 875 667 889 693 q 841 601 861 641 q 792 503 821 561 q 756 440 774 472 q 722 378 738 408 q 694 325 707 349 q 675 285 682 300 m 1080 -187 q 1089 -181 1082 -181 q 1053 -101 1066 -142 q 1035 -14 1040 -59 q 1047 163 1024 73 q 990 144 1012 148 q 984 89 986 125 q 982 12 983 54 q 983 -73 981 -30 q 988 -153 984 -116 q 997 -214 991 -189 q 1012 -243 1003 -240 q 1030 -241 1019 -247 q 1049 -227 1040 -236 q 1068 -207 1059 -217 q 1080 -187 1076 -196 m 1668 925 q 1665 936 1665 938 q 1656 927 1665 934 q 1638 897 1648 917 q 1622 854 1628 877 q 1609 809 1615 832 q 1604 773 1604 786 q 1606 735 1602 753 q 1613 717 1609 717 q 1642 744 1630 719 q 1662 803 1655 769 q 1672 872 1670 837 q 1668 925 1674 906 z "},"":{"ha":927,"x_min":2,"x_max":965,"o":"m 398 -333 q 429 -363 418 -339 q 429 -406 439 -387 q 405 -429 422 -422 q 385 -432 398 -432 q 366 -429 373 -432 q 335 -406 344 -418 q 328 -394 328 -396 q 347 -399 328 -387 q 368 -406 361 -408 q 386 -394 377 -405 q 399 -372 396 -384 q 400 -353 403 -358 q 382 -352 398 -349 q 365 -318 345 -354 l 370 -309 q 222 -248 292 -295 q 102 -126 153 -201 q 27 50 52 -50 q 12 273 2 151 q 25 378 17 330 q 47 474 33 425 q 82 576 61 523 q 137 701 102 630 q 205 818 165 760 q 290 924 245 875 q 383 1014 335 974 q 477 1080 431 1054 q 563 1109 521 1097 q 644 1120 606 1120 q 739 1102 696 1120 q 819 1047 781 1083 l 828 1040 l 856 1012 l 877 1023 q 907 1036 896 1031 q 929 1040 918 1042 q 948 1036 938 1040 q 957 1030 958 1031 q 936 1019 946 1024 q 916 1010 927 1016 q 891 998 905 1003 l 865 981 l 875 946 q 879 896 878 924 q 877 839 880 868 q 860 760 873 802 q 831 684 847 719 q 794 627 814 649 q 755 608 774 604 q 715 623 733 611 q 687 653 698 635 q 670 689 675 670 q 665 726 665 708 q 674 779 667 748 q 698 845 681 809 q 746 918 715 880 q 826 993 776 957 l 818 1007 l 816 1005 l 814 1012 q 811 1018 813 1016 q 807 1024 809 1021 l 797 1035 q 737 1074 774 1057 q 660 1090 700 1090 q 537 1048 601 1090 q 416 930 474 1005 q 309 751 358 854 q 231 526 260 648 q 200 370 215 464 q 181 178 184 276 q 193 -12 177 80 q 253 -165 208 -104 q 347 -250 297 -222 q 449 -280 398 -278 q 550 -260 500 -281 q 644 -196 601 -238 q 739 -93 698 -146 q 815 23 780 -40 q 883 165 851 87 q 953 345 915 243 q 965 351 957 358 q 932 237 955 306 q 876 92 910 168 q 795 -61 842 16 q 689 -196 748 -137 q 557 -288 630 -255 q 398 -312 484 -321 l 387 -330 l 398 -333 m 844 929 q 839 943 840 944 q 826 931 839 941 q 796 888 811 917 q 769 826 781 859 q 747 761 757 793 q 736 708 738 729 q 739 655 734 681 q 748 630 743 630 q 792 668 771 632 q 826 753 813 705 q 844 852 839 802 q 844 929 849 901 z "},"":{"ha":748,"x_min":-2,"x_max":800,"o":"m 630 957 q 609 989 616 977 q 590 1010 601 1000 q 549 1036 571 1031 q 506 1034 528 1040 q 464 1014 484 1028 q 425 984 443 1000 q 313 832 358 920 q 262 656 269 745 q 264 628 260 648 q 275 589 267 608 q 294 556 283 569 q 319 549 306 543 q 361 556 333 554 q 410 557 389 559 q 464 548 439 557 q 493 526 488 538 q 487 515 500 519 q 453 507 474 510 q 328 432 382 491 q 238 296 274 373 q 182 135 201 219 q 165 -12 163 52 q 179 -113 167 -68 q 211 -194 191 -158 q 255 -253 231 -229 q 306 -290 280 -278 q 415 -301 363 -319 q 514 -234 467 -283 q 602 -115 561 -186 q 675 33 642 -43 q 734 184 708 109 q 774 314 759 259 q 795 363 785 363 q 799 348 799 363 q 793 314 800 333 q 760 190 780 262 q 711 42 740 118 q 644 -108 682 -35 q 556 -237 606 -181 q 444 -325 507 -293 q 306 -347 382 -356 q 191 -312 243 -340 q 101 -238 139 -283 q 39 -135 63 -193 q 9 -14 16 -76 q 28 189 -2 92 q 113 380 57 286 q 167 449 130 411 q 234 507 203 486 l 267 528 q 250 536 264 528 q 217 563 236 545 q 179 608 198 582 q 149 667 160 634 q 152 797 130 729 q 219 922 174 865 q 326 1019 264 979 q 450 1069 387 1059 q 565 1053 517 1080 q 648 969 613 1026 l 665 977 q 691 989 674 981 q 719 997 708 997 q 703 984 710 991 q 688 973 696 979 q 674 960 681 967 l 658 946 l 663 922 q 669 888 668 908 q 668 847 670 868 q 661 793 667 821 q 644 740 655 764 q 621 700 634 715 q 594 686 608 684 q 544 718 561 691 q 526 769 528 745 q 545 852 526 800 q 630 957 564 903 m 642 910 q 639 920 639 922 q 630 911 639 918 q 612 881 622 901 q 595 839 602 861 q 583 793 589 816 q 578 757 578 771 q 580 720 576 738 q 587 701 583 701 q 616 728 604 703 q 636 787 628 753 q 646 856 644 821 q 642 910 648 891 m 443 1196 q 473 1188 462 1196 q 507 1148 484 1179 q 519 1128 517 1134 q 516 1118 521 1122 q 486 1115 502 1111 q 471 1126 483 1116 q 448 1148 460 1135 q 426 1170 436 1160 q 417 1184 417 1181 q 443 1196 417 1196 z "},"":{"ha":748,"x_min":-2,"x_max":800,"o":"m 630 957 q 609 989 616 977 q 590 1010 601 1000 q 549 1036 571 1031 q 506 1034 528 1040 q 464 1014 484 1028 q 425 984 443 1000 q 313 832 358 920 q 262 656 269 745 q 264 628 260 648 q 275 589 267 608 q 294 556 283 569 q 319 549 306 543 q 361 556 333 554 q 410 557 389 559 q 464 548 439 557 q 493 526 488 538 q 487 515 500 519 q 453 507 474 510 q 328 432 382 491 q 238 296 274 373 q 182 135 201 219 q 165 -12 163 52 q 179 -113 167 -68 q 211 -194 191 -158 q 255 -253 231 -229 q 306 -290 280 -278 q 415 -301 363 -319 q 514 -234 467 -283 q 602 -115 561 -186 q 675 33 642 -43 q 734 184 708 109 q 774 314 759 259 q 795 363 785 363 q 799 348 799 363 q 793 314 800 333 q 760 190 780 262 q 711 42 740 118 q 644 -108 682 -35 q 556 -237 606 -181 q 444 -325 507 -293 q 306 -347 382 -356 q 191 -312 243 -340 q 101 -238 139 -283 q 39 -135 63 -193 q 9 -14 16 -76 q 28 189 -2 92 q 113 380 57 286 q 167 449 130 411 q 234 507 203 486 l 267 528 q 250 536 264 528 q 217 563 236 545 q 179 608 198 582 q 149 667 160 634 q 152 797 130 729 q 219 922 174 865 q 326 1019 264 979 q 450 1069 387 1059 q 565 1053 517 1080 q 648 969 613 1026 l 665 977 q 691 989 674 981 q 719 997 708 997 q 703 984 710 991 q 688 973 696 979 q 674 960 681 967 l 658 946 l 663 922 q 669 888 668 908 q 668 847 670 868 q 661 793 667 821 q 644 740 655 764 q 621 700 634 715 q 594 686 608 684 q 544 718 561 691 q 526 769 528 745 q 545 852 526 800 q 630 957 564 903 m 642 910 q 639 920 639 922 q 630 911 639 918 q 612 881 622 901 q 595 839 602 861 q 583 793 589 816 q 578 757 578 771 q 580 720 576 738 q 587 701 583 701 q 616 728 604 703 q 636 787 628 753 q 646 856 644 821 q 642 910 648 891 m 519 1188 q 528 1194 524 1193 q 540 1194 531 1194 q 563 1188 554 1194 q 569 1175 573 1182 q 549 1154 566 1170 q 516 1123 531 1137 q 484 1120 500 1109 q 479 1127 479 1122 q 484 1136 479 1128 q 496 1155 490 1144 q 509 1174 502 1165 q 519 1188 516 1184 z "},"":{"ha":748,"x_min":-2,"x_max":800,"o":"m 630 957 q 609 989 616 977 q 590 1010 601 1000 q 549 1036 571 1031 q 506 1034 528 1040 q 464 1014 484 1028 q 425 984 443 1000 q 313 832 358 920 q 262 656 269 745 q 264 628 260 648 q 275 589 267 608 q 294 556 283 569 q 319 549 306 543 q 361 556 333 554 q 410 557 389 559 q 464 548 439 557 q 493 526 488 538 q 487 515 500 519 q 453 507 474 510 q 328 432 382 491 q 238 296 274 373 q 182 135 201 219 q 165 -12 163 52 q 179 -113 167 -68 q 211 -194 191 -158 q 255 -253 231 -229 q 306 -290 280 -278 q 415 -301 363 -319 q 514 -234 467 -283 q 602 -115 561 -186 q 675 33 642 -43 q 734 184 708 109 q 774 314 759 259 q 795 363 785 363 q 799 348 799 363 q 793 314 800 333 q 760 190 780 262 q 711 42 740 118 q 644 -108 682 -35 q 556 -237 606 -181 q 444 -325 507 -293 q 306 -347 382 -356 q 191 -312 243 -340 q 101 -238 139 -283 q 39 -135 63 -193 q 9 -14 16 -76 q 28 189 -2 92 q 113 380 57 286 q 167 449 130 411 q 234 507 203 486 l 267 528 q 250 536 264 528 q 217 563 236 545 q 179 608 198 582 q 149 667 160 634 q 152 797 130 729 q 219 922 174 865 q 326 1019 264 979 q 450 1069 387 1059 q 565 1053 517 1080 q 648 969 613 1026 l 665 977 q 691 989 674 981 q 719 997 708 997 q 703 984 710 991 q 688 973 696 979 q 674 960 681 967 l 658 946 l 663 922 q 669 888 668 908 q 668 847 670 868 q 661 793 667 821 q 644 740 655 764 q 621 700 634 715 q 594 686 608 684 q 544 718 561 691 q 526 769 528 745 q 545 852 526 800 q 630 957 564 903 m 642 910 q 639 920 639 922 q 630 911 639 918 q 612 881 622 901 q 595 839 602 861 q 583 793 589 816 q 578 757 578 771 q 580 720 576 738 q 587 701 583 701 q 616 728 604 703 q 636 787 628 753 q 646 856 644 821 q 642 910 648 891 m 453 1116 q 451 1121 450 1120 q 455 1130 451 1122 q 479 1161 465 1146 q 498 1181 493 1177 q 535 1172 517 1189 q 543 1160 536 1168 q 554 1141 549 1151 q 563 1124 559 1132 q 568 1115 568 1116 q 559 1108 568 1111 q 545 1104 550 1104 q 541 1105 543 1104 q 535 1106 538 1106 q 522 1114 526 1108 q 510 1137 517 1120 q 500 1160 503 1160 q 497 1155 498 1158 q 492 1149 495 1151 q 488 1144 490 1148 q 460 1115 467 1115 l 458 1115 q 453 1116 455 1115 z "},"":{"ha":748,"x_min":-2,"x_max":800,"o":"m 630 957 q 609 989 616 977 q 590 1010 601 1000 q 549 1036 571 1031 q 506 1034 528 1040 q 464 1014 484 1028 q 425 984 443 1000 q 313 832 358 920 q 262 656 269 745 q 264 628 260 648 q 275 589 267 608 q 294 556 283 569 q 319 549 306 543 q 361 556 333 554 q 410 557 389 559 q 464 548 439 557 q 493 526 488 538 q 487 515 500 519 q 453 507 474 510 q 328 432 382 491 q 238 296 274 373 q 182 135 201 219 q 165 -12 163 52 q 179 -113 167 -68 q 211 -194 191 -158 q 255 -253 231 -229 q 306 -290 280 -278 q 415 -301 363 -319 q 514 -234 467 -283 q 602 -115 561 -186 q 675 33 642 -43 q 734 184 708 109 q 774 314 759 259 q 795 363 785 363 q 799 348 799 363 q 793 314 800 333 q 760 190 780 262 q 711 42 740 118 q 644 -108 682 -35 q 556 -237 606 -181 q 444 -325 507 -293 q 306 -347 382 -356 q 191 -312 243 -340 q 101 -238 139 -283 q 39 -135 63 -193 q 9 -14 16 -76 q 28 189 -2 92 q 113 380 57 286 q 167 449 130 411 q 234 507 203 486 l 267 528 q 250 536 264 528 q 217 563 236 545 q 179 608 198 582 q 149 667 160 634 q 152 797 130 729 q 219 922 174 865 q 326 1019 264 979 q 450 1069 387 1059 q 565 1053 517 1080 q 648 969 613 1026 l 665 977 q 691 989 674 981 q 719 997 708 997 q 703 984 710 991 q 688 973 696 979 q 674 960 681 967 l 658 946 l 663 922 q 669 888 668 908 q 668 847 670 868 q 661 793 667 821 q 644 740 655 764 q 621 700 634 715 q 594 686 608 684 q 544 718 561 691 q 526 769 528 745 q 545 852 526 800 q 630 957 564 903 m 642 910 q 639 920 639 922 q 630 911 639 918 q 612 881 622 901 q 595 839 602 861 q 583 793 589 816 q 578 757 578 771 q 580 720 576 738 q 587 701 583 701 q 616 728 604 703 q 636 787 628 753 q 646 856 644 821 q 642 910 648 891 m 509 1172 q 526 1161 516 1172 q 526 1120 542 1142 q 509 1112 521 1113 q 488 1120 497 1111 q 482 1129 483 1125 q 481 1141 481 1134 q 509 1172 481 1172 m 432 1170 q 460 1157 451 1170 q 460 1127 469 1144 q 422 1116 448 1095 q 407 1150 403 1130 q 432 1170 411 1170 z "},"":{"ha":644,"x_min":-17,"x_max":559,"o":"m 542 345 q 541 300 542 337 q 539 212 540 264 q 537 98 538 160 q 536 -21 536 36 q 533 -127 535 -78 q 531 -200 531 -175 l 531 -222 l 530 -297 q 521 -329 530 -318 q 499 -345 512 -340 q 470 -348 486 -349 q 439 -345 455 -347 q 396 -327 415 -342 q 370 -290 377 -312 q 365 -236 366 -280 q 366 -132 365 -193 q 370 0 368 -71 q 375 140 372 71 q 382 265 378 208 q 389 354 385 321 q 403 499 394 417 q 421 666 411 582 q 438 826 431 750 q 446 951 444 903 q 433 1019 448 1000 q 393 1036 418 1038 q 337 1016 368 1035 q 276 976 306 998 q 170 861 219 929 q 87 720 122 793 q 34 578 52 648 q 16 460 16 509 q 25 401 16 425 q 33 370 35 377 q 31 366 33 368 q 15 377 23 366 q 1 403 7 387 q -9 437 -5 418 q -14 472 -12 455 q 1 601 -17 533 q 52 734 19 668 q 129 860 85 800 q 221 966 174 920 q 317 1040 269 1012 q 406 1068 365 1068 q 482 1043 451 1068 q 530 961 512 1017 q 553 813 547 905 q 554 589 559 720 q 552 559 554 575 q 549 517 550 543 q 546 451 549 491 q 542 345 543 410 m 392 1194 q 423 1186 411 1194 q 457 1146 434 1177 q 469 1126 467 1132 q 465 1116 470 1120 q 436 1113 451 1109 q 421 1124 432 1115 q 398 1146 410 1134 q 376 1168 385 1158 q 366 1182 366 1179 q 392 1194 366 1194 z "},"":{"ha":644,"x_min":-17,"x_max":559,"o":"m 542 345 q 541 300 542 337 q 539 212 540 264 q 537 98 538 160 q 536 -21 536 36 q 533 -127 535 -78 q 531 -200 531 -175 l 531 -222 l 530 -297 q 521 -329 530 -318 q 499 -345 512 -340 q 470 -348 486 -349 q 439 -345 455 -347 q 396 -327 415 -342 q 370 -290 377 -312 q 365 -236 366 -280 q 366 -132 365 -193 q 370 0 368 -71 q 375 140 372 71 q 382 265 378 208 q 389 354 385 321 q 403 499 394 417 q 421 666 411 582 q 438 826 431 750 q 446 951 444 903 q 433 1019 448 1000 q 393 1036 418 1038 q 337 1016 368 1035 q 276 976 306 998 q 170 861 219 929 q 87 720 122 793 q 34 578 52 648 q 16 460 16 509 q 25 401 16 425 q 33 370 35 377 q 31 366 33 368 q 15 377 23 366 q 1 403 7 387 q -9 437 -5 418 q -14 472 -12 455 q 1 601 -17 533 q 52 734 19 668 q 129 860 85 800 q 221 966 174 920 q 317 1040 269 1012 q 406 1068 365 1068 q 482 1043 451 1068 q 530 961 512 1017 q 553 813 547 905 q 554 589 559 720 q 552 559 554 575 q 549 517 550 543 q 546 451 549 491 q 542 345 543 410 m 448 1184 q 457 1190 453 1189 q 469 1191 460 1191 q 492 1185 483 1191 q 498 1172 502 1179 q 477 1150 495 1167 q 444 1120 460 1134 q 413 1116 429 1106 q 408 1123 408 1118 q 413 1133 408 1125 q 424 1151 418 1141 q 438 1171 431 1161 q 448 1184 444 1181 z "},"":{"ha":644,"x_min":-17,"x_max":559,"o":"m 542 345 q 541 300 542 337 q 539 212 540 264 q 537 98 538 160 q 536 -21 536 36 q 533 -127 535 -78 q 531 -200 531 -175 l 531 -222 l 530 -297 q 521 -329 530 -318 q 499 -345 512 -340 q 470 -348 486 -349 q 439 -345 455 -347 q 396 -327 415 -342 q 370 -290 377 -312 q 365 -236 366 -280 q 366 -132 365 -193 q 370 0 368 -71 q 375 140 372 71 q 382 265 378 208 q 389 354 385 321 q 403 499 394 417 q 421 666 411 582 q 438 826 431 750 q 446 951 444 903 q 433 1019 448 1000 q 393 1036 418 1038 q 337 1016 368 1035 q 276 976 306 998 q 170 861 219 929 q 87 720 122 793 q 34 578 52 648 q 16 460 16 509 q 25 401 16 425 q 33 370 35 377 q 31 366 33 368 q 15 377 23 366 q 1 403 7 387 q -9 437 -5 418 q -14 472 -12 455 q 1 601 -17 533 q 52 734 19 668 q 129 860 85 800 q 221 966 174 920 q 317 1040 269 1012 q 406 1068 365 1068 q 482 1043 451 1068 q 530 961 512 1017 q 553 813 547 905 q 554 589 559 720 q 552 559 554 575 q 549 517 550 543 q 546 451 549 491 q 542 345 543 410 m 365 1111 q 362 1115 361 1115 q 366 1125 363 1116 q 391 1156 377 1141 q 410 1175 405 1172 q 446 1167 429 1184 q 454 1155 448 1163 q 465 1136 460 1146 q 475 1119 470 1127 q 479 1109 479 1111 q 470 1102 479 1106 q 457 1099 462 1099 q 452 1100 455 1099 q 446 1101 450 1101 q 433 1109 438 1102 q 422 1132 429 1115 q 411 1155 415 1155 q 408 1149 410 1153 q 404 1144 406 1146 q 399 1139 401 1142 q 372 1109 378 1109 l 370 1109 q 365 1111 366 1109 z "},"":{"ha":644,"x_min":-17,"x_max":559,"o":"m 542 345 q 541 300 542 337 q 539 212 540 264 q 537 98 538 160 q 536 -21 536 36 q 533 -127 535 -78 q 531 -200 531 -175 l 531 -222 l 530 -297 q 521 -329 530 -318 q 499 -345 512 -340 q 470 -348 486 -349 q 439 -345 455 -347 q 396 -327 415 -342 q 370 -290 377 -312 q 365 -236 366 -280 q 366 -132 365 -193 q 370 0 368 -71 q 375 140 372 71 q 382 265 378 208 q 389 354 385 321 q 403 499 394 417 q 421 666 411 582 q 438 826 431 750 q 446 951 444 903 q 433 1019 448 1000 q 393 1036 418 1038 q 337 1016 368 1035 q 276 976 306 998 q 170 861 219 929 q 87 720 122 793 q 34 578 52 648 q 16 460 16 509 q 25 401 16 425 q 33 370 35 377 q 31 366 33 368 q 15 377 23 366 q 1 403 7 387 q -9 437 -5 418 q -14 472 -12 455 q 1 601 -17 533 q 52 734 19 668 q 129 860 85 800 q 221 966 174 920 q 317 1040 269 1012 q 406 1068 365 1068 q 482 1043 451 1068 q 530 961 512 1017 q 553 813 547 905 q 554 589 559 720 q 552 559 554 575 q 549 517 550 543 q 546 451 549 491 q 542 345 543 410 m 457 1168 q 474 1158 464 1168 q 474 1116 490 1139 q 457 1109 469 1109 q 436 1116 444 1108 q 430 1126 431 1122 q 429 1137 429 1130 q 457 1168 429 1168 m 380 1167 q 408 1154 399 1167 q 408 1123 417 1141 q 370 1113 396 1092 q 355 1147 351 1127 q 380 1167 359 1167 z "},"":{"ha":1299,"x_min":-127,"x_max":1306,"o":"m 394 986 q 409 942 401 969 q 424 886 417 915 q 435 832 431 858 q 441 790 439 806 q 489 895 457 839 q 563 1000 521 951 q 657 1082 606 1049 q 764 1120 708 1116 q 905 1088 842 1125 q 1014 983 969 1050 q 1083 823 1059 915 q 1108 627 1108 731 q 1095 466 1108 547 q 1064 316 1082 385 q 1050 278 1050 288 q 1118 306 1080 285 q 1194 352 1156 326 q 1260 403 1231 378 q 1300 439 1290 427 q 1304 432 1306 434 q 1181 315 1248 365 q 1049 250 1115 266 q 1034 232 1040 247 q 1014 182 1028 217 q 912 -11 967 71 q 792 -163 858 -94 q 717 -232 753 -203 q 641 -279 681 -260 q 556 -306 601 -297 q 453 -314 510 -314 q 339 -279 380 -314 q 297 -187 297 -243 q 300 -160 297 -175 q 308 -130 304 -144 q 317 -107 313 -116 q 323 -94 321 -97 q 300 -88 318 -95 q 266 -67 283 -80 q 237 -38 250 -54 q 226 -7 224 -23 q 248 194 236 82 q 273 424 260 307 q 235 424 247 424 q 219 429 224 425 q 207 446 210 436 q 212 465 203 457 q 230 475 217 472 q 278 477 243 477 q 290 622 285 552 q 299 748 295 691 q 306 849 304 806 q 307 913 307 892 q 304 974 306 944 q 295 1026 302 1003 q 275 1063 288 1049 q 238 1076 262 1076 q 178 1062 205 1076 q 115 1016 151 1047 q 19 897 59 964 q -46 762 -21 830 q -82 631 -71 694 q -87 519 -92 568 q -69 470 -83 488 q -38 445 -54 453 q -10 435 -23 438 q 3 432 3 432 q -6 423 3 425 q -26 420 -16 420 q -92 449 -66 420 q -122 521 -118 477 q -115 635 -127 571 q -79 763 -102 698 q -22 890 -56 828 q 54 999 12 951 q 142 1076 95 1047 q 238 1106 189 1106 q 327 1075 285 1106 q 394 986 370 1043 m 477 438 q 464 428 472 431 q 425 424 455 425 l 425 420 q 419 305 422 361 q 415 202 417 248 q 411 123 413 156 q 410 80 410 90 l 403 19 q 521 106 457 69 q 649 167 585 142 q 769 206 714 191 q 861 229 825 220 q 899 368 884 295 q 925 513 915 441 q 940 653 936 585 q 944 778 944 720 q 899 1004 944 918 q 776 1090 854 1090 q 729 1082 762 1090 q 654 1043 696 1073 q 563 953 611 1012 q 469 792 516 894 q 451 747 458 764 q 441 701 444 729 q 434 621 438 672 q 427 476 431 569 q 465 475 457 476 q 477 472 474 474 q 483 456 483 467 q 477 438 483 444 m 776 42 q 800 89 788 64 q 822 137 813 115 q 838 175 832 160 q 844 193 844 191 q 826 190 840 193 q 791 182 811 188 q 748 170 771 177 q 707 158 726 163 q 565 95 634 134 q 444 11 497 57 q 361 -83 392 -35 q 330 -179 330 -132 q 355 -253 330 -234 q 421 -266 380 -273 q 512 -229 462 -259 q 612 -157 563 -200 q 705 -62 661 -115 q 776 42 748 -10 z "},"":{"ha":866,"x_min":30,"x_max":1184,"o":"m 42 -304 q 61 -310 50 -309 q 80 -311 71 -311 q 198 -174 155 -311 q 253 255 241 -38 q 254 312 253 283 q 255 374 255 340 q 253 451 255 408 q 250 556 252 495 q 245 700 247 634 q 229 847 243 766 q 210 938 219 908 q 196 983 201 969 q 189 1001 191 997 q 188 1014 188 1005 q 185 1026 189 1023 q 194 1030 181 1030 q 244 1029 220 1030 q 288 1020 267 1028 q 328 994 309 1012 q 363 943 347 976 q 385 872 373 922 q 419 742 398 823 q 477 545 441 661 q 569 276 512 429 q 585 240 575 264 q 609 184 595 215 q 637 115 622 153 q 667 42 653 78 q 769 689 710 446 q 931 1010 828 932 q 1037 1063 988 1054 q 1122 1064 1087 1071 q 1170 1045 1156 1057 q 1172 1033 1184 1033 q 1121 1034 1144 1035 q 1073 1028 1097 1033 q 1023 1010 1049 1023 q 969 976 998 998 q 880 877 922 941 q 806 712 839 813 q 752 470 774 611 q 720 139 729 328 q 714 -74 714 -2 q 716 -175 714 -146 q 720 -207 719 -205 q 719 -215 722 -210 q 688 -227 707 -227 q 658 -220 670 -227 q 547 -101 597 -182 q 451 101 497 -19 q 363 377 406 220 q 273 719 319 533 q 272 721 273 720 q 271 724 271 722 l 271 726 l 273 684 q 277 627 274 660 q 281 556 280 594 q 283 143 292 313 q 247 -133 274 -26 q 177 -287 220 -240 q 78 -335 134 -335 q 39 -325 47 -335 q 31 -312 31 -314 q 34 -304 30 -307 q 42 -304 38 -300 m 646 1174 q 656 1162 653 1174 q 656 1137 660 1151 q 652 1128 655 1134 q 646 1118 649 1122 q 636 1110 641 1111 q 623 1108 632 1109 q 604 1111 611 1108 q 583 1124 594 1115 q 568 1144 573 1134 q 561 1156 564 1156 q 547 1125 550 1156 q 533 1123 543 1113 q 530 1147 526 1130 q 543 1172 535 1163 q 576 1177 556 1182 q 596 1169 590 1174 q 609 1156 602 1165 q 630 1132 627 1132 q 636 1141 634 1132 q 641 1160 639 1149 q 646 1174 642 1174 z "},"":{"ha":958,"x_min":-127,"x_max":964,"o":"m 484 1068 q 726 1003 627 1068 q 880 828 825 938 q 950 576 936 719 q 939 280 964 432 q 880 52 920 163 q 781 -145 840 -59 q 645 -282 722 -231 q 476 -333 568 -333 q 321 -292 389 -333 q 206 -182 253 -250 q 133 -26 158 -115 q 108 160 108 63 q 106 158 106 160 q -33 240 19 188 q -106 359 -85 292 q -118 508 -127 427 q -75 675 -109 589 q 10 819 -45 748 q 140 944 66 889 q 302 1033 214 998 q 484 1068 391 1068 m 733 898 q 632 1004 694 972 q 498 1035 569 1036 q 353 1000 427 1033 q 219 911 280 967 q 112 786 160 856 q 31 637 64 715 q -7 495 3 569 q -10 355 -17 420 q 27 246 -2 290 q 108 194 56 201 q 123 355 108 271 q 165 514 139 439 q 223 644 191 589 q 288 719 255 700 q 316 723 302 727 q 339 708 330 719 q 325 666 333 708 q 305 551 316 623 q 282 384 293 479 q 262 184 271 288 q 360 193 319 184 q 429 213 401 201 q 472 234 457 224 q 497 248 488 245 q 507 244 510 257 q 490 220 503 231 q 389 172 443 189 q 262 156 335 155 l 260 139 q 267 2 259 76 q 299 -138 276 -73 q 364 -250 323 -203 q 470 -302 405 -297 q 608 -247 547 -309 q 713 -79 668 -184 q 781 160 757 26 q 810 429 806 293 q 795 688 814 564 q 733 898 776 813 m 483 1193 q 513 1184 502 1193 q 547 1144 524 1175 q 559 1124 557 1130 q 556 1115 561 1118 q 526 1111 542 1108 q 511 1122 523 1113 q 488 1144 500 1132 q 466 1167 476 1156 q 457 1181 457 1177 q 483 1193 457 1193 z "},"":{"ha":958,"x_min":-127,"x_max":964,"o":"m 484 1068 q 726 1003 627 1068 q 880 828 825 938 q 950 576 936 719 q 939 280 964 432 q 880 52 920 163 q 781 -145 840 -59 q 645 -282 722 -231 q 476 -333 568 -333 q 321 -292 389 -333 q 206 -182 253 -250 q 133 -26 158 -115 q 108 160 108 63 q 106 158 106 160 q -33 240 19 188 q -106 359 -85 292 q -118 508 -127 427 q -75 675 -109 589 q 10 819 -45 748 q 140 944 66 889 q 302 1033 214 998 q 484 1068 391 1068 m 733 898 q 632 1004 694 972 q 498 1035 569 1036 q 353 1000 427 1033 q 219 911 280 967 q 112 786 160 856 q 31 637 64 715 q -7 495 3 569 q -10 355 -17 420 q 27 246 -2 290 q 108 194 56 201 q 123 355 108 271 q 165 514 139 439 q 223 644 191 589 q 288 719 255 700 q 316 723 302 727 q 339 708 330 719 q 325 666 333 708 q 305 551 316 623 q 282 384 293 479 q 262 184 271 288 q 360 193 319 184 q 429 213 401 201 q 472 234 457 224 q 497 248 488 245 q 507 244 510 257 q 490 220 503 231 q 389 172 443 189 q 262 156 335 155 l 260 139 q 267 2 259 76 q 299 -138 276 -73 q 364 -250 323 -203 q 470 -302 405 -297 q 608 -247 547 -309 q 713 -79 668 -184 q 781 160 757 26 q 810 429 806 293 q 795 688 814 564 q 733 898 776 813 m 566 1186 q 575 1192 571 1191 q 587 1193 578 1193 q 610 1187 601 1193 q 616 1174 620 1181 q 595 1152 613 1168 q 563 1122 578 1135 q 531 1118 547 1108 q 526 1125 526 1120 q 531 1135 526 1127 q 543 1153 536 1142 q 556 1173 549 1163 q 566 1186 563 1182 z "},"":{"ha":958,"x_min":-127,"x_max":964,"o":"m 484 1068 q 726 1003 627 1068 q 880 828 825 938 q 950 576 936 719 q 939 280 964 432 q 880 52 920 163 q 781 -145 840 -59 q 645 -282 722 -231 q 476 -333 568 -333 q 321 -292 389 -333 q 206 -182 253 -250 q 133 -26 158 -115 q 108 160 108 63 q 106 158 106 160 q -33 240 19 188 q -106 359 -85 292 q -118 508 -127 427 q -75 675 -109 589 q 10 819 -45 748 q 140 944 66 889 q 302 1033 214 998 q 484 1068 391 1068 m 733 898 q 632 1004 694 972 q 498 1035 569 1036 q 353 1000 427 1033 q 219 911 280 967 q 112 786 160 856 q 31 637 64 715 q -7 495 3 569 q -10 355 -17 420 q 27 246 -2 290 q 108 194 56 201 q 123 355 108 271 q 165 514 139 439 q 223 644 191 589 q 288 719 255 700 q 316 723 302 727 q 339 708 330 719 q 325 666 333 708 q 305 551 316 623 q 282 384 293 479 q 262 184 271 288 q 360 193 319 184 q 429 213 401 201 q 472 234 457 224 q 497 248 488 245 q 507 244 510 257 q 490 220 503 231 q 389 172 443 189 q 262 156 335 155 l 260 139 q 267 2 259 76 q 299 -138 276 -73 q 364 -250 323 -203 q 470 -302 405 -297 q 608 -247 547 -309 q 713 -79 668 -184 q 781 160 757 26 q 810 429 806 293 q 795 688 814 564 q 733 898 776 813 m 510 1113 q 508 1117 507 1116 q 512 1127 509 1118 q 536 1158 523 1142 q 556 1177 550 1174 q 592 1168 575 1186 q 600 1156 594 1165 q 611 1138 606 1148 q 621 1121 616 1128 q 625 1111 625 1113 q 616 1104 625 1108 q 602 1101 608 1101 q 598 1102 601 1101 q 592 1102 595 1102 q 579 1110 583 1104 q 568 1134 575 1116 q 557 1156 561 1156 q 554 1151 556 1155 q 549 1146 552 1148 q 545 1141 547 1144 q 517 1111 524 1111 l 516 1111 q 510 1113 512 1111 z "},"":{"ha":958,"x_min":-127,"x_max":964,"o":"m 484 1068 q 726 1003 627 1068 q 880 828 825 938 q 950 576 936 719 q 939 280 964 432 q 880 52 920 163 q 781 -145 840 -59 q 645 -282 722 -231 q 476 -333 568 -333 q 321 -292 389 -333 q 206 -182 253 -250 q 133 -26 158 -115 q 108 160 108 63 q 106 158 106 160 q -33 240 19 188 q -106 359 -85 292 q -118 508 -127 427 q -75 675 -109 589 q 10 819 -45 748 q 140 944 66 889 q 302 1033 214 998 q 484 1068 391 1068 m 733 898 q 632 1004 694 972 q 498 1035 569 1036 q 353 1000 427 1033 q 219 911 280 967 q 112 786 160 856 q 31 637 64 715 q -7 495 3 569 q -10 355 -17 420 q 27 246 -2 290 q 108 194 56 201 q 123 355 108 271 q 165 514 139 439 q 223 644 191 589 q 288 719 255 700 q 316 723 302 727 q 339 708 330 719 q 325 666 333 708 q 305 551 316 623 q 282 384 293 479 q 262 184 271 288 q 360 193 319 184 q 429 213 401 201 q 472 234 457 224 q 497 248 488 245 q 507 244 510 257 q 490 220 503 231 q 389 172 443 189 q 262 156 335 155 l 260 139 q 267 2 259 76 q 299 -138 276 -73 q 364 -250 323 -203 q 470 -302 405 -297 q 608 -247 547 -309 q 713 -79 668 -184 q 781 160 757 26 q 810 429 806 293 q 795 688 814 564 q 733 898 776 813 m 628 1174 q 639 1162 635 1174 q 639 1137 642 1151 q 635 1128 637 1134 q 628 1118 632 1122 q 619 1110 623 1111 q 606 1108 615 1109 q 587 1111 594 1108 q 566 1124 576 1115 q 550 1144 556 1134 q 543 1156 547 1156 q 530 1125 533 1156 q 516 1123 526 1113 q 513 1147 509 1130 q 526 1172 517 1163 q 559 1177 538 1182 q 579 1169 573 1174 q 592 1156 585 1165 q 613 1132 609 1132 q 619 1141 616 1132 q 623 1160 622 1149 q 628 1174 625 1174 z "},"":{"ha":958,"x_min":-127,"x_max":964,"o":"m 484 1068 q 726 1003 627 1068 q 880 828 825 938 q 950 576 936 719 q 939 280 964 432 q 880 52 920 163 q 781 -145 840 -59 q 645 -282 722 -231 q 476 -333 568 -333 q 321 -292 389 -333 q 206 -182 253 -250 q 133 -26 158 -115 q 108 160 108 63 q 106 158 106 160 q -33 240 19 188 q -106 359 -85 292 q -118 508 -127 427 q -75 675 -109 589 q 10 819 -45 748 q 140 944 66 889 q 302 1033 214 998 q 484 1068 391 1068 m 733 898 q 632 1004 694 972 q 498 1035 569 1036 q 353 1000 427 1033 q 219 911 280 967 q 112 786 160 856 q 31 637 64 715 q -7 495 3 569 q -10 355 -17 420 q 27 246 -2 290 q 108 194 56 201 q 123 355 108 271 q 165 514 139 439 q 223 644 191 589 q 288 719 255 700 q 316 723 302 727 q 339 708 330 719 q 325 666 333 708 q 305 551 316 623 q 282 384 293 479 q 262 184 271 288 q 360 193 319 184 q 429 213 401 201 q 472 234 457 224 q 497 248 488 245 q 507 244 510 257 q 490 220 503 231 q 389 172 443 189 q 262 156 335 155 l 260 139 q 267 2 259 76 q 299 -138 276 -73 q 364 -250 323 -203 q 470 -302 405 -297 q 608 -247 547 -309 q 713 -79 668 -184 q 781 160 757 26 q 810 429 806 293 q 795 688 814 564 q 733 898 776 813 m 552 1174 q 569 1163 559 1174 q 569 1122 585 1144 q 552 1114 564 1115 q 531 1122 540 1113 q 525 1131 526 1127 q 524 1142 524 1135 q 552 1174 524 1174 m 476 1172 q 503 1159 495 1172 q 503 1128 512 1146 q 465 1118 491 1097 q 451 1152 446 1132 q 476 1172 455 1172 z "},"":{"ha":1224,"x_min":9,"x_max":1207,"o":"m 495 762 q 514 874 509 835 q 519 939 519 913 q 506 1023 519 997 q 450 1045 493 1050 q 300 993 373 1036 q 170 886 227 950 q 78 746 113 823 q 43 592 43 668 q 53 506 43 543 q 89 443 63 469 q 104 422 104 427 q 102 420 104 420 q 70 435 87 420 q 40 475 54 450 q 17 531 26 500 q 9 597 9 563 q 56 793 9 705 q 173 943 104 880 q 317 1039 241 1005 q 448 1073 392 1073 q 573 997 533 1073 q 613 755 613 922 q 601 537 613 661 q 578 281 589 413 q 566 23 568 149 q 583 -203 564 -104 q 622 -306 599 -280 q 673 -320 646 -332 q 730 -266 700 -309 q 788 -158 760 -222 q 855 22 821 -80 q 913 243 889 123 q 929 324 924 292 q 938 380 934 356 q 946 427 943 405 q 957 481 950 450 q 997 707 981 602 q 1025 891 1012 813 q 1052 1017 1038 970 q 1089 1069 1066 1064 q 1133 1066 1111 1069 q 1171 1052 1155 1063 q 1197 1024 1188 1042 q 1203 981 1207 1007 q 1172 789 1193 891 q 1130 565 1151 688 q 1093 296 1109 443 q 1075 -33 1076 149 q 1076 -89 1075 -54 q 1078 -157 1076 -123 q 1083 -215 1080 -191 q 1092 -241 1087 -240 q 1082 -251 1089 -243 q 1036 -259 1075 -259 q 984 -239 1005 -259 q 951 -188 964 -219 q 931 -119 938 -158 q 920 -43 924 -80 q 916 29 917 -5 q 915 83 915 63 q 869 -75 894 5 q 811 -218 844 -155 q 737 -320 778 -281 q 646 -356 696 -359 q 556 -335 601 -354 q 476 -268 510 -316 q 420 -140 441 -220 q 401 69 399 -59 q 408 211 403 144 q 424 354 413 278 q 451 528 434 431 q 495 762 469 625 m 832 1191 q 840 1197 837 1196 q 852 1198 844 1198 q 876 1192 866 1198 q 882 1179 885 1186 q 861 1157 878 1174 q 828 1127 844 1141 q 797 1123 813 1113 q 792 1130 792 1125 q 797 1140 792 1132 q 808 1158 802 1148 q 821 1178 814 1168 q 832 1191 828 1188 z "},"":{"ha":1224,"x_min":9,"x_max":1207,"o":"m 495 762 q 514 874 509 835 q 519 939 519 913 q 506 1023 519 997 q 450 1045 493 1050 q 300 993 373 1036 q 170 886 227 950 q 78 746 113 823 q 43 592 43 668 q 53 506 43 543 q 89 443 63 469 q 104 422 104 427 q 102 420 104 420 q 70 435 87 420 q 40 475 54 450 q 17 531 26 500 q 9 597 9 563 q 56 793 9 705 q 173 943 104 880 q 317 1039 241 1005 q 448 1073 392 1073 q 573 997 533 1073 q 613 755 613 922 q 601 537 613 661 q 578 281 589 413 q 566 23 568 149 q 583 -203 564 -104 q 622 -306 599 -280 q 673 -320 646 -332 q 730 -266 700 -309 q 788 -158 760 -222 q 855 22 821 -80 q 913 243 889 123 q 929 324 924 292 q 938 380 934 356 q 946 427 943 405 q 957 481 950 450 q 997 707 981 602 q 1025 891 1012 813 q 1052 1017 1038 970 q 1089 1069 1066 1064 q 1133 1066 1111 1069 q 1171 1052 1155 1063 q 1197 1024 1188 1042 q 1203 981 1207 1007 q 1172 789 1193 891 q 1130 565 1151 688 q 1093 296 1109 443 q 1075 -33 1076 149 q 1076 -89 1075 -54 q 1078 -157 1076 -123 q 1083 -215 1080 -191 q 1092 -241 1087 -240 q 1082 -251 1089 -243 q 1036 -259 1075 -259 q 984 -239 1005 -259 q 951 -188 964 -219 q 931 -119 938 -158 q 920 -43 924 -80 q 916 29 917 -5 q 915 83 915 63 q 869 -75 894 5 q 811 -218 844 -155 q 737 -320 778 -281 q 646 -356 696 -359 q 556 -335 601 -354 q 476 -268 510 -316 q 420 -140 441 -220 q 401 69 399 -59 q 408 211 403 144 q 424 354 413 278 q 451 528 434 431 q 495 762 469 625 m 750 1116 q 747 1121 747 1120 q 752 1130 748 1122 q 776 1161 762 1146 q 795 1181 790 1177 q 832 1172 814 1189 q 839 1160 833 1168 q 851 1141 845 1151 q 860 1124 856 1132 q 865 1115 865 1116 q 856 1108 865 1111 q 842 1104 847 1104 q 838 1105 840 1104 q 832 1106 835 1106 q 819 1114 823 1108 q 807 1137 814 1120 q 797 1160 800 1160 q 793 1155 795 1158 q 789 1149 792 1151 q 785 1144 786 1148 q 757 1115 764 1115 l 755 1115 q 750 1116 752 1115 z "},"":{"ha":1224,"x_min":9,"x_max":1207,"o":"m 495 762 q 514 874 509 835 q 519 939 519 913 q 506 1023 519 997 q 450 1045 493 1050 q 300 993 373 1036 q 170 886 227 950 q 78 746 113 823 q 43 592 43 668 q 53 506 43 543 q 89 443 63 469 q 104 422 104 427 q 102 420 104 420 q 70 435 87 420 q 40 475 54 450 q 17 531 26 500 q 9 597 9 563 q 56 793 9 705 q 173 943 104 880 q 317 1039 241 1005 q 448 1073 392 1073 q 573 997 533 1073 q 613 755 613 922 q 601 537 613 661 q 578 281 589 413 q 566 23 568 149 q 583 -203 564 -104 q 622 -306 599 -280 q 673 -320 646 -332 q 730 -266 700 -309 q 788 -158 760 -222 q 855 22 821 -80 q 913 243 889 123 q 929 324 924 292 q 938 380 934 356 q 946 427 943 405 q 957 481 950 450 q 997 707 981 602 q 1025 891 1012 813 q 1052 1017 1038 970 q 1089 1069 1066 1064 q 1133 1066 1111 1069 q 1171 1052 1155 1063 q 1197 1024 1188 1042 q 1203 981 1207 1007 q 1172 789 1193 891 q 1130 565 1151 688 q 1093 296 1109 443 q 1075 -33 1076 149 q 1076 -89 1075 -54 q 1078 -157 1076 -123 q 1083 -215 1080 -191 q 1092 -241 1087 -240 q 1082 -251 1089 -243 q 1036 -259 1075 -259 q 984 -239 1005 -259 q 951 -188 964 -219 q 931 -119 938 -158 q 920 -43 924 -80 q 916 29 917 -5 q 915 83 915 63 q 869 -75 894 5 q 811 -218 844 -155 q 737 -320 778 -281 q 646 -356 696 -359 q 556 -335 601 -354 q 476 -268 510 -316 q 420 -140 441 -220 q 401 69 399 -59 q 408 211 403 144 q 424 354 413 278 q 451 528 434 431 q 495 762 469 625 m 825 1177 q 842 1167 832 1177 q 842 1125 858 1148 q 825 1117 837 1118 q 804 1125 813 1116 q 798 1135 799 1130 q 797 1146 797 1139 q 825 1177 797 1177 m 748 1175 q 776 1162 767 1175 q 776 1132 785 1149 q 738 1122 764 1101 q 723 1155 719 1135 q 748 1175 727 1175 z "},"":{"ha":1106,"x_min":12,"x_max":1205,"o":"m 1203 385 q 1205 384 1203 385 q 1176 341 1205 370 q 1113 284 1148 313 q 1050 234 1078 255 q 1023 212 1023 212 l 991 184 l 986 87 q 979 -10 983 30 q 971 -79 976 -50 q 961 -129 967 -108 q 944 -174 955 -151 q 879 -272 917 -236 q 806 -325 842 -307 q 738 -346 769 -342 q 694 -351 707 -351 q 592 -271 592 -351 q 611 -193 592 -233 q 660 -114 630 -153 q 726 -37 689 -75 q 797 33 762 0 l 819 52 q 823 231 821 158 q 826 355 825 304 q 830 444 828 406 q 832 519 832 483 l 814 465 q 786 398 802 434 q 753 330 769 363 q 720 267 736 297 q 693 217 703 238 q 616 107 653 144 q 540 69 580 69 q 393 146 441 69 q 345 342 345 222 q 350 424 345 375 q 364 534 354 474 q 386 660 373 594 q 418 792 399 726 q 445 897 438 861 q 453 957 453 932 q 434 1027 453 1005 q 385 1049 415 1049 q 317 1032 354 1049 q 244 989 280 1016 q 176 930 208 962 q 127 866 144 898 q 71 757 92 809 q 50 641 50 705 q 60 543 50 582 q 102 469 69 503 q 122 443 122 446 q 120 441 122 441 q 92 460 111 441 q 33 536 54 491 q 16 644 12 580 q 49 794 19 717 q 128 934 78 872 q 242 1036 177 997 q 382 1076 307 1076 q 503 991 470 1076 q 536 747 536 906 q 518 498 536 623 q 500 241 500 373 q 516 134 500 161 q 555 114 531 106 q 608 158 578 122 q 663 247 637 194 q 724 374 693 304 q 783 516 755 444 q 829 655 811 589 q 851 769 847 720 q 862 906 858 847 q 872 1005 866 965 q 885 1065 877 1045 q 911 1085 894 1085 q 988 1063 951 1085 q 1024 990 1024 1040 q 1023 973 1024 981 q 1023 955 1023 965 q 1008 776 1014 861 q 998 605 1002 691 q 993 424 995 519 q 991 217 991 330 q 1024 244 991 219 q 1118 321 1057 269 q 1179 374 1165 361 q 1200 387 1193 387 q 1203 385 1201 387 m 819 19 l 792 -7 q 682 -140 729 -73 q 635 -259 635 -207 q 646 -299 635 -285 q 669 -318 656 -312 q 694 -323 682 -323 q 710 -323 707 -323 q 780 -255 753 -319 q 819 -40 807 -191 l 819 19 m 679 1193 q 688 1199 684 1198 q 700 1200 691 1200 q 723 1194 714 1200 q 729 1181 733 1188 q 708 1159 726 1175 q 675 1128 691 1142 q 644 1125 660 1115 q 639 1132 639 1127 q 644 1141 639 1134 q 655 1160 649 1149 q 668 1180 661 1170 q 679 1193 675 1189 z "},"":{"ha":790,"x_min":59,"x_max":778,"o":"m 182 304 q 263 400 233 361 q 313 467 293 439 q 343 516 332 495 q 366 557 354 536 q 398 636 384 595 q 420 716 411 677 q 434 788 429 755 q 441 845 439 821 q 452 893 446 878 q 476 908 458 908 q 520 863 517 908 q 523 722 523 818 q 515 611 523 661 q 487 509 507 561 q 433 398 467 457 q 349 260 399 339 q 267 109 302 189 q 227 -38 233 30 q 250 -153 220 -106 q 361 -205 280 -200 q 495 -185 432 -210 q 606 -117 557 -160 q 686 -20 655 -75 q 727 91 717 35 q 721 199 736 148 q 661 285 707 250 q 642 306 646 299 q 639 319 639 314 q 651 325 639 325 q 696 310 674 325 q 737 269 719 295 q 766 210 755 243 q 778 141 778 177 q 745 7 778 75 q 655 -116 712 -61 q 520 -207 597 -172 q 354 -243 443 -243 l 314 -243 q 157 -189 217 -243 q 78 -55 97 -135 q 84 122 59 26 q 182 304 109 219 m 453 964 q 436 988 439 972 q 438 1019 432 1003 q 457 1040 443 1033 q 493 1040 476 1050 q 507 1030 502 1035 q 517 1016 512 1026 q 503 962 531 986 q 488 955 495 955 l 477 955 q 453 964 462 957 z "},"":{"ha":1106,"x_min":12,"x_max":1205,"o":"m 1203 385 q 1205 384 1203 385 q 1176 341 1205 370 q 1113 284 1148 313 q 1050 234 1078 255 q 1023 212 1023 212 l 991 184 l 986 87 q 979 -10 983 30 q 971 -79 976 -50 q 961 -129 967 -108 q 944 -174 955 -151 q 879 -272 917 -236 q 806 -325 842 -307 q 738 -346 769 -342 q 694 -351 707 -351 q 592 -271 592 -351 q 611 -193 592 -233 q 660 -114 630 -153 q 726 -37 689 -75 q 797 33 762 0 l 819 52 q 823 231 821 158 q 826 355 825 304 q 830 444 828 406 q 832 519 832 483 l 814 465 q 786 398 802 434 q 753 330 769 363 q 720 267 736 297 q 693 217 703 238 q 616 107 653 144 q 540 69 580 69 q 393 146 441 69 q 345 342 345 222 q 350 424 345 375 q 364 534 354 474 q 386 660 373 594 q 418 792 399 726 q 445 897 438 861 q 453 957 453 932 q 434 1027 453 1005 q 385 1049 415 1049 q 317 1032 354 1049 q 244 989 280 1016 q 176 930 208 962 q 127 866 144 898 q 71 757 92 809 q 50 641 50 705 q 60 543 50 582 q 102 469 69 503 q 122 443 122 446 q 120 441 122 441 q 92 460 111 441 q 33 536 54 491 q 16 644 12 580 q 49 794 19 717 q 128 934 78 872 q 242 1036 177 997 q 382 1076 307 1076 q 503 991 470 1076 q 536 747 536 906 q 518 498 536 623 q 500 241 500 373 q 516 134 500 161 q 555 114 531 106 q 608 158 578 122 q 663 247 637 194 q 724 374 693 304 q 783 516 755 444 q 829 655 811 589 q 851 769 847 720 q 862 906 858 847 q 872 1005 866 965 q 885 1065 877 1045 q 911 1085 894 1085 q 988 1063 951 1085 q 1024 990 1024 1040 q 1023 973 1024 981 q 1023 955 1023 965 q 1008 776 1014 861 q 998 605 1002 691 q 993 424 995 519 q 991 217 991 330 q 1024 244 991 219 q 1118 321 1057 269 q 1179 374 1165 361 q 1200 387 1193 387 q 1203 385 1201 387 m 819 19 l 792 -7 q 682 -140 729 -73 q 635 -259 635 -207 q 646 -299 635 -285 q 669 -318 656 -312 q 694 -323 682 -323 q 710 -323 707 -323 q 780 -255 753 -319 q 819 -40 807 -191 l 819 19 m 823 1222 q 840 1212 830 1222 q 840 1170 856 1193 q 823 1162 835 1163 q 802 1170 811 1161 q 796 1180 797 1175 q 795 1191 795 1184 q 823 1222 795 1222 m 747 1220 q 774 1207 766 1220 q 774 1177 783 1194 q 736 1167 762 1146 q 721 1201 717 1181 q 747 1220 726 1220 z "},"":{"ha":505,"x_min":-2,"x_max":556,"o":"m 248 377 q 252 427 245 413 q 273 446 259 441 q 300 451 283 450 q 335 447 318 451 q 366 435 352 443 q 384 415 380 427 q 389 375 387 401 q 391 315 391 349 q 390 243 391 281 q 389 168 389 205 l 389 167 l 418 201 q 512 310 479 271 q 554 349 545 349 q 556 345 556 349 q 542 331 554 345 q 512 293 530 316 q 474 243 495 271 q 432 189 453 215 l 389 132 l 384 73 q 339 -171 373 -66 q 257 -347 304 -276 q 157 -452 210 -418 q 56 -481 104 -486 q 22 -452 31 -477 q 17 -399 12 -427 q 31 -345 21 -373 q 60 -281 42 -316 q 106 -203 78 -247 q 174 -104 134 -160 q 202 -61 191 -78 q 221 -32 214 -43 q 233 -14 229 -21 q 238 0 236 -7 q 239 49 236 9 q 243 137 241 90 q 244 173 243 156 q 245 203 245 189 q 217 128 233 165 q 182 63 201 92 q 143 17 163 35 q 102 0 123 0 q 28 43 57 0 q -2 198 -2 85 q -2 215 -2 210 q -2 226 -2 220 q -1 240 -2 231 q 2 269 0 248 l 10 434 q 26 440 23 441 q 35 441 30 439 q 73 440 54 443 q 107 423 92 438 q 130 380 122 408 q 137 306 139 352 q 132 254 137 286 q 122 186 127 222 q 111 115 116 149 q 104 61 106 82 q 112 23 101 26 q 142 43 123 21 q 166 74 153 56 q 192 120 179 92 q 219 188 205 148 q 248 286 233 229 l 248 377 m 222 -78 q 215 -84 222 -76 q 197 -106 208 -92 q 173 -139 186 -120 q 148 -179 160 -158 q 65 -326 99 -262 q 36 -441 31 -389 q 48 -455 40 -450 q 59 -460 56 -460 q 98 -433 75 -460 q 146 -356 122 -406 q 191 -235 170 -306 q 222 -78 212 -165 m 191 542 q 200 548 196 547 q 212 549 203 549 q 235 543 226 549 q 241 530 245 536 q 220 508 238 524 q 188 477 203 491 q 156 474 172 464 q 151 481 151 476 q 156 490 151 483 q 168 509 161 498 q 181 529 174 519 q 191 542 188 538 z "},"":{"ha":509,"x_min":-24,"x_max":540,"o":"m 99 28 q 119 34 108 24 q 141 59 130 43 q 162 92 153 75 q 175 118 172 109 q 202 188 193 158 q 215 247 212 217 q 235 344 222 297 q 264 408 248 391 q 287 420 273 417 q 318 423 302 424 q 346 417 333 422 q 368 403 359 411 q 379 388 375 394 q 380 358 384 382 q 365 207 372 280 q 356 50 359 134 q 358 0 354 10 q 368 -4 361 -10 q 385 19 375 2 q 403 54 394 36 q 420 86 410 64 q 439 130 431 108 q 464 183 450 151 q 491 246 477 215 q 515 299 505 276 q 524 323 524 321 q 529 332 524 330 q 536 332 533 335 q 539 329 538 330 q 538 323 540 328 q 532 306 536 318 q 521 273 528 295 q 500 220 514 253 q 472 152 486 186 q 445 89 458 118 q 427 47 432 59 q 398 0 415 23 q 370 -28 382 -23 q 307 -31 340 -43 q 246 27 271 -17 q 215 135 220 71 l 214 167 l 219 165 q 180 78 194 108 q 151 33 165 49 q 102 1 128 9 q 47 2 75 -7 q 10 26 31 7 q -16 69 -10 45 q -22 100 -19 85 q -24 155 -24 115 q -22 214 -24 184 q -16 273 -19 243 q -10 328 -12 297 q -3 380 -7 359 q 9 436 5 434 q 52 434 19 443 q 109 392 85 424 q 125 292 132 361 q 112 209 122 253 q 95 127 102 165 q 87 61 89 89 q 99 28 85 33 m 222 531 q 240 521 229 531 q 240 479 255 502 q 222 471 234 472 q 201 479 210 470 q 195 489 196 484 q 194 500 194 493 q 222 531 194 531 m 146 530 q 174 516 165 530 q 174 486 182 503 q 135 476 161 455 q 121 510 116 490 q 146 530 125 530 z "},"":{"ha":509,"x_min":-24,"x_max":540,"o":"m 99 28 q 119 34 108 24 q 141 59 130 43 q 162 92 153 75 q 175 118 172 109 q 202 188 193 158 q 215 247 212 217 q 235 344 222 297 q 264 408 248 391 q 287 420 273 417 q 318 423 302 424 q 346 417 333 422 q 368 403 359 411 q 379 388 375 394 q 380 358 384 382 q 365 207 372 280 q 356 50 359 134 q 358 0 354 10 q 368 -4 361 -10 q 385 19 375 2 q 403 54 394 36 q 420 86 410 64 q 439 130 431 108 q 464 183 450 151 q 491 246 477 215 q 515 299 505 276 q 524 323 524 321 q 529 332 524 330 q 536 332 533 335 q 539 329 538 330 q 538 323 540 328 q 532 306 536 318 q 521 273 528 295 q 500 220 514 253 q 472 152 486 186 q 445 89 458 118 q 427 47 432 59 q 398 0 415 23 q 370 -28 382 -23 q 307 -31 340 -43 q 246 27 271 -17 q 215 135 220 71 l 214 167 l 219 165 q 180 78 194 108 q 151 33 165 49 q 102 1 128 9 q 47 2 75 -7 q 10 26 31 7 q -16 69 -10 45 q -22 100 -19 85 q -24 155 -24 115 q -22 214 -24 184 q -16 273 -19 243 q -10 328 -12 297 q -3 380 -7 359 q 9 436 5 434 q 52 434 19 443 q 109 392 85 424 q 125 292 132 361 q 112 209 122 253 q 95 127 102 165 q 87 61 89 89 q 99 28 85 33 m 132 469 q 129 473 128 472 q 134 483 130 474 q 158 514 144 498 q 177 533 172 530 q 214 524 196 542 q 221 512 215 521 q 233 494 227 503 q 242 477 238 484 q 247 467 247 469 q 238 460 247 464 q 224 457 229 457 q 220 457 222 457 q 214 458 217 458 q 201 466 205 460 q 189 490 196 472 q 179 512 182 512 q 175 507 177 510 q 171 502 174 503 q 167 497 168 500 q 139 467 146 467 l 137 467 q 132 469 134 467 z "},"":{"ha":509,"x_min":-24,"x_max":540,"o":"m 99 28 q 119 34 108 24 q 141 59 130 43 q 162 92 153 75 q 175 118 172 109 q 202 188 193 158 q 215 247 212 217 q 235 344 222 297 q 264 408 248 391 q 287 420 273 417 q 318 423 302 424 q 346 417 333 422 q 368 403 359 411 q 379 388 375 394 q 380 358 384 382 q 365 207 372 280 q 356 50 359 134 q 358 0 354 10 q 368 -4 361 -10 q 385 19 375 2 q 403 54 394 36 q 420 86 410 64 q 439 130 431 108 q 464 183 450 151 q 491 246 477 215 q 515 299 505 276 q 524 323 524 321 q 529 332 524 330 q 536 332 533 335 q 539 329 538 330 q 538 323 540 328 q 532 306 536 318 q 521 273 528 295 q 500 220 514 253 q 472 152 486 186 q 445 89 458 118 q 427 47 432 59 q 398 0 415 23 q 370 -28 382 -23 q 307 -31 340 -43 q 246 27 271 -17 q 215 135 220 71 l 214 167 l 219 165 q 180 78 194 108 q 151 33 165 49 q 102 1 128 9 q 47 2 75 -7 q 10 26 31 7 q -16 69 -10 45 q -22 100 -19 85 q -24 155 -24 115 q -22 214 -24 184 q -16 273 -19 243 q -10 328 -12 297 q -3 380 -7 359 q 9 436 5 434 q 52 434 19 443 q 109 392 85 424 q 125 292 132 361 q 112 209 122 253 q 95 127 102 165 q 87 61 89 89 q 99 28 85 33 m 200 538 q 208 544 205 543 q 220 545 212 545 q 244 539 234 545 q 250 526 253 533 q 229 504 247 521 q 196 474 212 488 q 165 470 181 460 q 160 477 160 472 q 165 487 160 479 q 176 505 170 495 q 189 525 182 516 q 200 538 196 535 z "},"":{"ha":509,"x_min":-24,"x_max":540,"o":"m 99 28 q 119 34 108 24 q 141 59 130 43 q 162 92 153 75 q 175 118 172 109 q 202 188 193 158 q 215 247 212 217 q 235 344 222 297 q 264 408 248 391 q 287 420 273 417 q 318 423 302 424 q 346 417 333 422 q 368 403 359 411 q 379 388 375 394 q 380 358 384 382 q 365 207 372 280 q 356 50 359 134 q 358 0 354 10 q 368 -4 361 -10 q 385 19 375 2 q 403 54 394 36 q 420 86 410 64 q 439 130 431 108 q 464 183 450 151 q 491 246 477 215 q 515 299 505 276 q 524 323 524 321 q 529 332 524 330 q 536 332 533 335 q 539 329 538 330 q 538 323 540 328 q 532 306 536 318 q 521 273 528 295 q 500 220 514 253 q 472 152 486 186 q 445 89 458 118 q 427 47 432 59 q 398 0 415 23 q 370 -28 382 -23 q 307 -31 340 -43 q 246 27 271 -17 q 215 135 220 71 l 214 167 l 219 165 q 180 78 194 108 q 151 33 165 49 q 102 1 128 9 q 47 2 75 -7 q 10 26 31 7 q -16 69 -10 45 q -22 100 -19 85 q -24 155 -24 115 q -22 214 -24 184 q -16 273 -19 243 q -10 328 -12 297 q -3 380 -7 359 q 9 436 5 434 q 52 434 19 443 q 109 392 85 424 q 125 292 132 361 q 112 209 122 253 q 95 127 102 165 q 87 61 89 89 q 99 28 85 33 m 123 549 q 154 540 142 549 q 188 500 165 531 q 200 480 198 486 q 196 470 201 474 q 167 467 182 464 q 152 478 163 469 q 128 500 141 488 q 107 523 116 512 q 97 536 97 533 q 123 549 97 549 z "},"":{"ha":531,"x_min":-33,"x_max":580,"o":"m 210 193 q 205 178 207 184 q 201 168 203 172 q 198 160 200 163 q 160 76 175 108 q 133 29 144 45 q 110 6 122 12 q 85 0 99 0 q 34 14 56 0 q -3 52 12 28 q -26 109 -19 76 q -33 177 -33 141 q -14 273 -33 226 q 36 358 5 319 q 103 419 66 396 q 181 443 141 443 q 220 432 207 443 q 240 413 234 422 l 240 415 q 263 434 247 420 q 299 448 280 448 q 367 433 349 448 q 385 399 385 418 q 378 325 385 377 q 363 186 372 273 q 358 130 359 165 q 356 66 356 95 q 361 3 356 3 q 363 2 363 3 q 365 3 363 0 q 389 35 372 7 q 428 102 406 63 q 474 187 450 141 q 518 271 498 233 q 552 334 538 309 q 566 359 566 359 q 573 359 568 359 q 580 356 578 358 q 569 334 580 358 q 540 275 557 311 q 503 197 523 240 q 465 118 483 155 q 424 40 443 69 q 394 -5 406 10 q 369 -29 380 -24 q 342 -33 358 -33 q 320 -28 330 -33 q 297 -14 311 -23 q 261 24 276 0 q 236 76 247 49 q 220 133 226 104 q 212 184 214 161 l 210 193 m 233 363 q 234 368 234 366 q 234 373 233 370 l 234 382 q 224 407 233 396 q 191 403 215 418 q 135 326 158 382 q 99 215 111 271 q 93 179 97 205 q 86 123 89 153 q 83 68 83 94 q 92 31 83 42 q 113 40 99 23 q 144 90 127 57 q 179 167 161 123 q 210 252 196 210 q 221 303 215 276 q 233 359 227 330 l 233 363 m 146 552 q 176 543 165 552 q 210 503 188 535 q 222 484 220 490 q 219 474 224 477 q 189 470 205 467 q 174 482 186 472 q 151 503 163 491 q 129 526 139 516 q 120 540 120 536 q 146 552 120 552 z "},"":{"ha":531,"x_min":-33,"x_max":580,"o":"m 210 193 q 205 178 207 184 q 201 168 203 172 q 198 160 200 163 q 160 76 175 108 q 133 29 144 45 q 110 6 122 12 q 85 0 99 0 q 34 14 56 0 q -3 52 12 28 q -26 109 -19 76 q -33 177 -33 141 q -14 273 -33 226 q 36 358 5 319 q 103 419 66 396 q 181 443 141 443 q 220 432 207 443 q 240 413 234 422 l 240 415 q 263 434 247 420 q 299 448 280 448 q 367 433 349 448 q 385 399 385 418 q 378 325 385 377 q 363 186 372 273 q 358 130 359 165 q 356 66 356 95 q 361 3 356 3 q 363 2 363 3 q 365 3 363 0 q 389 35 372 7 q 428 102 406 63 q 474 187 450 141 q 518 271 498 233 q 552 334 538 309 q 566 359 566 359 q 573 359 568 359 q 580 356 578 358 q 569 334 580 358 q 540 275 557 311 q 503 197 523 240 q 465 118 483 155 q 424 40 443 69 q 394 -5 406 10 q 369 -29 380 -24 q 342 -33 358 -33 q 320 -28 330 -33 q 297 -14 311 -23 q 261 24 276 0 q 236 76 247 49 q 220 133 226 104 q 212 184 214 161 l 210 193 m 233 363 q 234 368 234 366 q 234 373 233 370 l 234 382 q 224 407 233 396 q 191 403 215 418 q 135 326 158 382 q 99 215 111 271 q 93 179 97 205 q 86 123 89 153 q 83 68 83 94 q 92 31 83 42 q 113 40 99 23 q 144 90 127 57 q 179 167 161 123 q 210 252 196 210 q 221 303 215 276 q 233 359 227 330 l 233 363 m 201 540 q 210 546 207 545 q 222 547 214 547 q 246 541 236 547 q 252 528 255 535 q 231 506 248 523 q 198 476 214 490 q 167 472 182 462 q 161 479 161 474 q 167 489 161 481 q 178 507 172 497 q 191 527 184 517 q 201 540 198 536 z "},"":{"ha":531,"x_min":-33,"x_max":580,"o":"m 210 193 q 205 178 207 184 q 201 168 203 172 q 198 160 200 163 q 160 76 175 108 q 133 29 144 45 q 110 6 122 12 q 85 0 99 0 q 34 14 56 0 q -3 52 12 28 q -26 109 -19 76 q -33 177 -33 141 q -14 273 -33 226 q 36 358 5 319 q 103 419 66 396 q 181 443 141 443 q 220 432 207 443 q 240 413 234 422 l 240 415 q 263 434 247 420 q 299 448 280 448 q 367 433 349 448 q 385 399 385 418 q 378 325 385 377 q 363 186 372 273 q 358 130 359 165 q 356 66 356 95 q 361 3 356 3 q 363 2 363 3 q 365 3 363 0 q 389 35 372 7 q 428 102 406 63 q 474 187 450 141 q 518 271 498 233 q 552 334 538 309 q 566 359 566 359 q 573 359 568 359 q 580 356 578 358 q 569 334 580 358 q 540 275 557 311 q 503 197 523 240 q 465 118 483 155 q 424 40 443 69 q 394 -5 406 10 q 369 -29 380 -24 q 342 -33 358 -33 q 320 -28 330 -33 q 297 -14 311 -23 q 261 24 276 0 q 236 76 247 49 q 220 133 226 104 q 212 184 214 161 l 210 193 m 233 363 q 234 368 234 366 q 234 373 233 370 l 234 382 q 224 407 233 396 q 191 403 215 418 q 135 326 158 382 q 99 215 111 271 q 93 179 97 205 q 86 123 89 153 q 83 68 83 94 q 92 31 83 42 q 113 40 99 23 q 144 90 127 57 q 179 167 161 123 q 210 252 196 210 q 221 303 215 276 q 233 359 227 330 l 233 363 m 151 470 q 148 475 148 474 q 153 484 149 476 q 177 516 163 500 q 196 535 191 531 q 233 526 215 543 q 240 514 234 523 q 252 496 247 505 q 261 478 257 486 q 266 469 266 470 q 257 462 266 465 q 243 458 248 458 q 239 459 241 458 q 233 460 236 460 q 220 468 224 462 q 208 491 215 474 q 198 514 201 514 q 194 509 196 512 q 190 503 193 505 q 186 498 188 502 q 158 469 165 469 l 156 469 q 151 470 153 469 z "},"":{"ha":531,"x_min":-33,"x_max":580,"o":"m 210 193 q 205 178 207 184 q 201 168 203 172 q 198 160 200 163 q 160 76 175 108 q 133 29 144 45 q 110 6 122 12 q 85 0 99 0 q 34 14 56 0 q -3 52 12 28 q -26 109 -19 76 q -33 177 -33 141 q -14 273 -33 226 q 36 358 5 319 q 103 419 66 396 q 181 443 141 443 q 220 432 207 443 q 240 413 234 422 l 240 415 q 263 434 247 420 q 299 448 280 448 q 367 433 349 448 q 385 399 385 418 q 378 325 385 377 q 363 186 372 273 q 358 130 359 165 q 356 66 356 95 q 361 3 356 3 q 363 2 363 3 q 365 3 363 0 q 389 35 372 7 q 428 102 406 63 q 474 187 450 141 q 518 271 498 233 q 552 334 538 309 q 566 359 566 359 q 573 359 568 359 q 580 356 578 358 q 569 334 580 358 q 540 275 557 311 q 503 197 523 240 q 465 118 483 155 q 424 40 443 69 q 394 -5 406 10 q 369 -29 380 -24 q 342 -33 358 -33 q 320 -28 330 -33 q 297 -14 311 -23 q 261 24 276 0 q 236 76 247 49 q 220 133 226 104 q 212 184 214 161 l 210 193 m 233 363 q 234 368 234 366 q 234 373 233 370 l 234 382 q 224 407 233 396 q 191 403 215 418 q 135 326 158 382 q 99 215 111 271 q 93 179 97 205 q 86 123 89 153 q 83 68 83 94 q 92 31 83 42 q 113 40 99 23 q 144 90 127 57 q 179 167 161 123 q 210 252 196 210 q 221 303 215 276 q 233 359 227 330 l 233 363 m 236 528 q 247 516 243 528 q 247 491 250 505 q 242 482 245 488 q 236 472 240 476 q 227 464 231 465 q 214 462 222 464 q 194 465 201 462 q 174 478 184 469 q 158 498 163 488 q 151 510 155 510 q 137 479 141 510 q 123 477 134 467 q 121 501 116 484 q 134 526 125 517 q 167 531 146 536 q 187 523 181 528 q 200 510 193 519 q 220 486 217 486 q 227 495 224 486 q 231 514 229 503 q 236 528 233 528 z "},"":{"ha":531,"x_min":-33,"x_max":580,"o":"m 210 193 q 205 178 207 184 q 201 168 203 172 q 198 160 200 163 q 160 76 175 108 q 133 29 144 45 q 110 6 122 12 q 85 0 99 0 q 34 14 56 0 q -3 52 12 28 q -26 109 -19 76 q -33 177 -33 141 q -14 273 -33 226 q 36 358 5 319 q 103 419 66 396 q 181 443 141 443 q 220 432 207 443 q 240 413 234 422 l 240 415 q 263 434 247 420 q 299 448 280 448 q 367 433 349 448 q 385 399 385 418 q 378 325 385 377 q 363 186 372 273 q 358 130 359 165 q 356 66 356 95 q 361 3 356 3 q 363 2 363 3 q 365 3 363 0 q 389 35 372 7 q 428 102 406 63 q 474 187 450 141 q 518 271 498 233 q 552 334 538 309 q 566 359 566 359 q 573 359 568 359 q 580 356 578 358 q 569 334 580 358 q 540 275 557 311 q 503 197 523 240 q 465 118 483 155 q 424 40 443 69 q 394 -5 406 10 q 369 -29 380 -24 q 342 -33 358 -33 q 320 -28 330 -33 q 297 -14 311 -23 q 261 24 276 0 q 236 76 247 49 q 220 133 226 104 q 212 184 214 161 l 210 193 m 233 363 q 234 368 234 366 q 234 373 233 370 l 234 382 q 224 407 233 396 q 191 403 215 418 q 135 326 158 382 q 99 215 111 271 q 93 179 97 205 q 86 123 89 153 q 83 68 83 94 q 92 31 83 42 q 113 40 99 23 q 144 90 127 57 q 179 167 161 123 q 210 252 196 210 q 221 303 215 276 q 233 359 227 330 l 233 363 m 234 528 q 252 517 241 528 q 252 476 267 498 q 234 468 247 469 q 214 476 222 467 q 207 485 208 481 q 207 497 207 490 q 234 528 207 528 m 158 526 q 186 513 177 526 q 186 483 194 500 q 148 472 174 451 q 133 506 128 486 q 158 526 137 526 z "},"":{"ha":531,"x_min":-33,"x_max":580,"o":"m 210 193 q 205 178 207 184 q 201 168 203 172 q 198 160 200 163 q 160 76 175 108 q 133 29 144 45 q 110 6 122 12 q 85 0 99 0 q 34 14 56 0 q -3 52 12 28 q -26 109 -19 76 q -33 177 -33 141 q -14 273 -33 226 q 36 358 5 319 q 103 419 66 396 q 181 443 141 443 q 220 432 207 443 q 240 413 234 422 l 240 415 q 263 434 247 420 q 299 448 280 448 q 367 433 349 448 q 385 399 385 418 q 378 325 385 377 q 363 186 372 273 q 358 130 359 165 q 356 66 356 95 q 361 3 356 3 q 363 2 363 3 q 365 3 363 0 q 389 35 372 7 q 428 102 406 63 q 474 187 450 141 q 518 271 498 233 q 552 334 538 309 q 566 359 566 359 q 573 359 568 359 q 580 356 578 358 q 569 334 580 358 q 540 275 557 311 q 503 197 523 240 q 465 118 483 155 q 424 40 443 69 q 394 -5 406 10 q 369 -29 380 -24 q 342 -33 358 -33 q 320 -28 330 -33 q 297 -14 311 -23 q 261 24 276 0 q 236 76 247 49 q 220 133 226 104 q 212 184 214 161 l 210 193 m 233 363 q 234 368 234 366 q 234 373 233 370 l 234 382 q 224 407 233 396 q 191 403 215 418 q 135 326 158 382 q 99 215 111 271 q 93 179 97 205 q 86 123 89 153 q 83 68 83 94 q 92 31 83 42 q 113 40 99 23 q 144 90 127 57 q 179 167 161 123 q 210 252 196 210 q 221 303 215 276 q 233 359 227 330 l 233 363 m 130 486 q 123 495 125 491 q 120 502 122 498 q 127 545 115 523 q 139 559 130 554 q 151 566 142 563 q 168 571 158 571 q 194 571 191 571 q 205 568 198 571 q 220 551 214 564 q 229 524 226 538 q 229 508 231 517 q 224 491 227 498 q 196 469 215 474 q 148 470 170 460 q 139 476 141 474 q 130 486 137 477 m 168 531 q 163 510 163 523 q 167 491 163 498 q 179 481 174 481 q 190 484 182 479 q 201 493 198 488 q 210 512 210 502 q 207 538 212 526 q 194 554 203 550 l 191 554 q 168 531 181 556 z "},"":{"ha":773,"x_min":-33,"x_max":804,"o":"m 457 -9 q 398 22 425 0 q 356 80 372 43 l 356 66 q 356 23 356 42 q 354 -33 356 5 l 342 -33 q 320 -28 330 -33 q 297 -14 311 -23 q 261 24 276 0 q 236 76 247 49 q 220 133 226 104 q 212 184 214 161 l 210 193 q 205 178 207 184 q 201 168 203 172 q 198 160 200 163 q 160 76 175 108 q 133 29 144 45 q 110 6 122 12 q 85 0 99 0 q 34 14 56 0 q -3 52 12 28 q -26 109 -19 76 q -33 177 -33 141 q -14 273 -33 226 q 36 358 5 319 q 103 419 66 396 q 181 443 141 443 q 220 432 207 443 q 240 413 234 422 l 240 415 q 263 434 247 420 q 299 448 280 448 q 367 433 349 448 q 385 399 385 418 q 384 371 385 389 q 378 328 382 352 q 415 377 394 354 q 460 415 436 399 q 515 443 484 432 q 575 453 545 453 q 622 438 608 453 q 635 398 635 422 q 623 348 635 375 q 592 300 611 321 q 539 245 569 274 q 479 200 509 215 q 460 196 469 196 q 460 75 446 127 q 495 17 472 30 q 543 15 517 5 q 594 49 568 24 q 641 101 620 73 q 676 154 660 128 q 708 206 693 179 q 740 263 724 233 q 773 332 755 293 q 789 356 781 351 q 799 361 797 361 q 802 351 804 361 q 795 326 800 340 q 735 203 766 266 q 658 78 705 141 q 572 -3 618 24 q 457 -9 526 -30 m 233 363 q 234 368 234 366 q 234 373 233 370 l 234 382 q 224 407 233 396 q 191 403 215 418 q 135 326 158 382 q 99 215 111 271 q 93 179 97 205 q 86 123 89 153 q 83 68 83 94 q 92 31 83 42 q 113 40 99 23 q 144 90 127 57 q 179 167 161 123 q 210 252 196 210 q 221 303 215 276 q 233 359 227 330 l 233 363 m 582 415 q 512 338 542 392 q 467 220 483 283 q 519 254 490 229 q 573 311 549 280 q 602 360 592 337 q 615 400 613 384 q 609 422 616 417 q 582 415 601 427 z "},"":{"ha":351,"x_min":-26,"x_max":377,"o":"m 188 -14 q 219 -43 208 -19 q 219 -87 229 -68 q 194 -109 212 -102 q 175 -113 188 -113 q 156 -109 163 -113 q 125 -87 134 -99 q 118 -75 118 -76 q 137 -80 118 -68 q 158 -87 151 -89 q 176 -75 167 -85 q 189 -52 186 -64 q 190 -34 193 -38 q 172 -33 188 -30 q 151 -2 135 -36 q 124 -3 137 -3 q 99 0 111 -3 q 30 46 63 9 q -17 134 -3 83 q -23 214 -26 172 q -6 297 -19 257 q 30 371 7 337 q 89 429 54 405 q 135 448 111 444 q 182 448 160 451 q 221 436 205 444 q 243 417 238 427 q 247 378 255 396 q 229 363 238 361 q 224 369 224 363 q 225 382 224 375 q 225 398 226 389 q 219 411 224 406 q 195 422 208 425 q 169 404 182 418 q 145 367 156 389 q 127 323 134 345 q 109 257 116 292 q 100 188 102 222 q 98 123 97 155 q 104 68 99 92 q 136 22 116 26 q 179 38 156 17 q 189 47 188 47 l 196 56 q 258 138 224 89 q 340 274 292 188 q 365 315 356 304 q 377 326 373 326 q 361 284 377 318 q 324 210 345 250 q 280 132 302 170 q 247 78 259 94 q 220 47 234 64 q 191 16 205 30 q 190 13 191 14 q 189 10 189 12 l 177 -10 l 188 -14 l 188 -14 z "},"":{"ha":375,"x_min":-40,"x_max":431,"o":"m 83 -9 q 12 36 43 2 q -31 125 -19 69 q -35 207 -40 165 q -14 287 -30 248 q 27 360 2 326 q 87 415 52 394 q 141 443 111 432 q 201 453 172 453 q 248 438 234 453 q 262 398 262 422 q 250 348 262 375 q 219 300 238 321 q 166 245 196 274 q 106 200 135 215 q 91 196 99 196 q 75 193 83 196 q 77 206 78 194 q 90 220 76 217 q 144 253 113 227 q 200 311 175 278 q 229 360 219 337 q 241 400 240 384 q 235 422 243 417 q 208 415 227 427 q 150 357 177 398 q 106 266 123 316 q 82 164 89 215 q 87 75 76 113 q 122 17 99 30 q 169 15 144 5 q 220 49 194 24 q 267 101 247 73 q 303 154 286 128 q 335 206 319 179 q 366 263 351 233 q 399 332 382 293 q 416 356 408 351 q 425 361 424 361 q 429 351 431 361 q 422 326 427 340 q 362 203 392 266 q 285 78 332 141 q 199 -3 245 24 q 83 -9 153 -30 m 141 552 q 171 543 160 552 q 205 503 182 535 q 217 484 215 490 q 214 474 219 477 q 184 470 200 467 q 169 482 181 472 q 146 503 158 491 q 124 526 134 516 q 115 540 115 536 q 141 552 115 552 z "},"":{"ha":375,"x_min":-40,"x_max":431,"o":"m 83 -9 q 12 36 43 2 q -31 125 -19 69 q -35 207 -40 165 q -14 287 -30 248 q 27 360 2 326 q 87 415 52 394 q 141 443 111 432 q 201 453 172 453 q 248 438 234 453 q 262 398 262 422 q 250 348 262 375 q 219 300 238 321 q 166 245 196 274 q 106 200 135 215 q 91 196 99 196 q 75 193 83 196 q 77 206 78 194 q 90 220 76 217 q 144 253 113 227 q 200 311 175 278 q 229 360 219 337 q 241 400 240 384 q 235 422 243 417 q 208 415 227 427 q 150 357 177 398 q 106 266 123 316 q 82 164 89 215 q 87 75 76 113 q 122 17 99 30 q 169 15 144 5 q 220 49 194 24 q 267 101 247 73 q 303 154 286 128 q 335 206 319 179 q 366 263 351 233 q 399 332 382 293 q 416 356 408 351 q 425 361 424 361 q 429 351 431 361 q 422 326 427 340 q 362 203 392 266 q 285 78 332 141 q 199 -3 245 24 q 83 -9 153 -30 m 196 545 q 205 551 201 550 q 217 552 208 552 q 240 546 231 552 q 247 533 250 540 q 226 511 243 528 q 193 481 208 495 q 161 477 177 467 q 156 484 156 479 q 161 494 156 486 q 173 512 167 502 q 186 532 179 523 q 196 545 193 542 z "},"":{"ha":375,"x_min":-40,"x_max":431,"o":"m 83 -9 q 12 36 43 2 q -31 125 -19 69 q -35 207 -40 165 q -14 287 -30 248 q 27 360 2 326 q 87 415 52 394 q 141 443 111 432 q 201 453 172 453 q 248 438 234 453 q 262 398 262 422 q 250 348 262 375 q 219 300 238 321 q 166 245 196 274 q 106 200 135 215 q 91 196 99 196 q 75 193 83 196 q 77 206 78 194 q 90 220 76 217 q 144 253 113 227 q 200 311 175 278 q 229 360 219 337 q 241 400 240 384 q 235 422 243 417 q 208 415 227 427 q 150 357 177 398 q 106 266 123 316 q 82 164 89 215 q 87 75 76 113 q 122 17 99 30 q 169 15 144 5 q 220 49 194 24 q 267 101 247 73 q 303 154 286 128 q 335 206 319 179 q 366 263 351 233 q 399 332 382 293 q 416 356 408 351 q 425 361 424 361 q 429 351 431 361 q 422 326 427 340 q 362 203 392 266 q 285 78 332 141 q 199 -3 245 24 q 83 -9 153 -30 m 139 472 q 136 477 135 476 q 141 486 137 477 q 165 517 151 502 q 184 536 179 533 q 220 528 203 545 q 228 516 222 524 q 240 497 234 507 q 249 480 245 488 q 253 470 253 472 q 245 464 253 467 q 231 460 236 460 q 227 461 229 460 q 220 462 224 462 q 207 470 212 464 q 196 493 203 476 q 186 516 189 516 q 182 510 184 514 q 178 505 181 507 q 174 500 175 503 q 146 470 153 470 l 144 470 q 139 472 141 470 z "},"":{"ha":375,"x_min":-40,"x_max":431,"o":"m 83 -9 q 12 36 43 2 q -31 125 -19 69 q -35 207 -40 165 q -14 287 -30 248 q 27 360 2 326 q 87 415 52 394 q 141 443 111 432 q 201 453 172 453 q 248 438 234 453 q 262 398 262 422 q 250 348 262 375 q 219 300 238 321 q 166 245 196 274 q 106 200 135 215 q 91 196 99 196 q 75 193 83 196 q 77 206 78 194 q 90 220 76 217 q 144 253 113 227 q 200 311 175 278 q 229 360 219 337 q 241 400 240 384 q 235 422 243 417 q 208 415 227 427 q 150 357 177 398 q 106 266 123 316 q 82 164 89 215 q 87 75 76 113 q 122 17 99 30 q 169 15 144 5 q 220 49 194 24 q 267 101 247 73 q 303 154 286 128 q 335 206 319 179 q 366 263 351 233 q 399 332 382 293 q 416 356 408 351 q 425 361 424 361 q 429 351 431 361 q 422 326 427 340 q 362 203 392 266 q 285 78 332 141 q 199 -3 245 24 q 83 -9 153 -30 m 214 531 q 231 521 220 531 q 231 479 247 502 q 214 471 226 472 q 193 479 201 470 q 187 489 188 484 q 186 500 186 493 q 214 531 186 531 m 137 530 q 165 516 156 530 q 165 486 174 503 q 127 476 153 455 q 112 510 108 490 q 137 530 116 530 z "},"":{"ha":304,"x_min":-7,"x_max":333,"o":"m 14 401 q 95 438 30 450 q 149 411 139 429 q 156 375 160 394 q 149 324 153 361 q 143 241 146 286 q 139 148 141 196 q 139 61 137 99 q 146 28 141 30 q 169 30 155 23 q 205 69 184 38 q 253 157 226 99 q 311 313 280 215 q 326 335 316 335 q 333 333 333 335 q 333 333 333 332 q 332 330 333 335 q 325 307 330 325 q 309 250 319 290 q 260 115 283 165 q 217 38 238 64 q 176 5 196 12 q 134 -2 156 -2 q 35 52 73 -2 q -5 210 -3 106 q -1 328 -7 281 q 14 401 5 375 m 49 552 q 79 543 68 552 q 113 503 90 535 q 125 484 123 490 q 122 474 127 477 q 92 470 108 467 q 77 482 89 472 q 54 503 66 491 q 32 526 42 516 q 23 540 23 536 q 49 552 23 552 z "},"":{"ha":304,"x_min":-7,"x_max":333,"o":"m 14 401 q 95 438 30 450 q 149 411 139 429 q 156 375 160 394 q 149 324 153 361 q 143 241 146 286 q 139 148 141 196 q 139 61 137 99 q 146 28 141 30 q 169 30 155 23 q 205 69 184 38 q 253 157 226 99 q 311 313 280 215 q 326 335 316 335 q 333 333 333 335 q 333 333 333 332 q 332 330 333 335 q 325 307 330 325 q 309 250 319 290 q 260 115 283 165 q 217 38 238 64 q 176 5 196 12 q 134 -2 156 -2 q 35 52 73 -2 q -5 210 -3 106 q -1 328 -7 281 q 14 401 5 375 m 111 540 q 120 546 116 545 q 132 547 123 547 q 155 541 146 547 q 161 528 165 535 q 141 506 158 523 q 108 476 123 490 q 76 472 92 462 q 71 479 71 474 q 76 489 71 481 q 88 507 82 497 q 101 527 94 517 q 111 540 108 536 z "},"":{"ha":304,"x_min":-7,"x_max":333,"o":"m 14 401 q 95 438 30 450 q 149 411 139 429 q 156 375 160 394 q 149 324 153 361 q 143 241 146 286 q 139 148 141 196 q 139 61 137 99 q 146 28 141 30 q 169 30 155 23 q 205 69 184 38 q 253 157 226 99 q 311 313 280 215 q 326 335 316 335 q 333 333 333 335 q 333 333 333 332 q 332 330 333 335 q 325 307 330 325 q 309 250 319 290 q 260 115 283 165 q 217 38 238 64 q 176 5 196 12 q 134 -2 156 -2 q 35 52 73 -2 q -5 210 -3 106 q -1 328 -7 281 q 14 401 5 375 m 50 469 q 48 473 47 472 q 52 483 49 474 q 76 514 63 498 q 95 533 90 530 q 132 524 115 542 q 140 512 134 521 q 151 494 146 503 q 161 477 156 484 q 165 467 165 469 q 156 460 165 464 q 142 457 148 457 q 138 457 141 457 q 132 458 135 458 q 119 466 123 460 q 108 490 115 472 q 97 512 101 512 q 94 507 95 510 q 89 502 92 503 q 85 497 87 500 q 57 467 64 467 l 56 467 q 50 469 52 467 z "},"":{"ha":304,"x_min":-7,"x_max":333,"o":"m 14 401 q 95 438 30 450 q 149 411 139 429 q 156 375 160 394 q 149 324 153 361 q 143 241 146 286 q 139 148 141 196 q 139 61 137 99 q 146 28 141 30 q 169 30 155 23 q 205 69 184 38 q 253 157 226 99 q 311 313 280 215 q 326 335 316 335 q 333 333 333 335 q 333 333 333 332 q 332 330 333 335 q 325 307 330 325 q 309 250 319 290 q 260 115 283 165 q 217 38 238 64 q 176 5 196 12 q 134 -2 156 -2 q 35 52 73 -2 q -5 210 -3 106 q -1 328 -7 281 q 14 401 5 375 m 137 531 q 155 521 144 531 q 155 479 170 502 q 137 471 149 472 q 116 479 125 470 q 110 489 111 484 q 109 500 109 493 q 137 531 109 531 m 61 530 q 89 516 80 530 q 89 486 97 503 q 50 476 76 455 q 36 510 31 490 q 61 530 40 530 z "}}}
